M48
; DRILL file {KiCad 6.0.5-a6ca702e91~116~ubuntu20.04.1} date Fri 22 Jul 2022 03:09:40 PM CDT
; FORMAT={-:-/ absolute / inch / decimal}
; #@! TF.CreationDate,2022-07-22T15:09:40-05:00
; #@! TF.GenerationSoftware,Kicad,Pcbnew,6.0.5-a6ca702e91~116~ubuntu20.04.1
; #@! TF.FileFunction,Plated,1,4,PTH
FMAT,2
INCH
; #@! TA.AperFunction,Plated,PTH,ViaDrill
T1C0.0157
; #@! TA.AperFunction,Plated,PTH,ComponentDrill
T2C0.0374
; #@! TA.AperFunction,Plated,PTH,ComponentDrill
T3C0.0394
; #@! TA.AperFunction,Plated,PTH,ComponentDrill
T4C0.0433
%
G90
G05
T1
X2.2539Y-4.3406
X2.2736Y-4.1929
X2.4606Y-2.0768
X2.4705Y-3.9665
X2.5591Y-2.126
X2.5591Y-2.1752
X2.628Y-3.4843
X2.6772Y-3.5335
X2.7067Y-3.2677
X2.7165Y-2.5787
X2.7559Y-2.0571
X2.8051Y-2.3819
X2.8051Y-2.8543
X2.8051Y-3.5039
X2.815Y-4.311
X2.8248Y-1.8799
X2.8642Y-3.4941
X2.874Y-2.2441
X2.874Y-2.628
X2.9035Y-3.5728
X2.9134Y-2.313
X2.9134Y-2.372
X2.9134Y-2.4114
X2.9528Y-2.628
X2.9823Y-4.3898
X3.002Y-3.5236
X3.0118Y-2.6476
X3.0413Y-2.4508
X3.0709Y-3.2776
X3.1201Y-2.628
X3.1693Y-3.4557
X3.1791Y-2.6378
X3.2087Y-4.0354
X3.2283Y-2.5787
X3.2972Y-3.4646
X3.3465Y-3.5335
X3.3853Y-2.2338
X3.3858Y-4.439
X3.4055Y-3.1988
X3.4154Y-3.435
X3.4547Y-2.815
X3.5335Y-3.4843
X3.5433Y-2.9724
X3.5728Y-2.4902
X3.7598Y-2.372
X3.7598Y-3.1791
X3.7795Y-3.7697
X3.7894Y-3.6909
X3.8287Y-2.6181
X3.8976Y-3.1201
X3.9173Y-3.2874
X3.9173Y-3.3957
X3.9272Y-2.7362
X3.9272Y-2.7854
X3.9272Y-2.8346
X3.9272Y-2.9921
X3.9567Y-3.1791
X3.9842Y-3.2972
X3.9961Y-2.8839
X4.0059Y-3.1102
X4.0157Y-3.4449
X4.1142Y-3.1398
X4.124Y-2.1949
X4.1339Y-3.0118
X4.1339Y-3.3661
X4.1339Y-3.7008
X4.1339Y-4.0354
X4.1339Y-4.3701
X4.1437Y-1.9882
X4.1437Y-2.3327
X4.1437Y-2.6673
X4.1732Y-4.1634
X4.1831Y-2.5197
X4.1831Y-2.874
X4.1929Y-2.5689
X4.1929Y-3.8287
X4.2028Y-2.2047
X4.2126Y-4.5571
X4.2224Y-2.8839
X4.2224Y-4.2028
X4.2421Y-1.8307
X4.2717Y-3.1988
X4.2913Y-3.878
X4.3307Y-1.8406
X4.3406Y-2.874
X4.3406Y-3.2087
X4.3406Y-3.5531
X4.3406Y-3.8976
X4.3406Y-4.2323
X4.3406Y-4.5669
X4.3504Y-2.185
X4.3504Y-2.5295
X4.5177Y-1.8996
X4.5472Y-1.7913
T2
X4.7441Y-1.9882
X4.7441Y-2.0866
X4.7441Y-2.185
X4.7441Y-2.2835
X4.7441Y-2.6575
X4.7441Y-2.7559
X4.7441Y-2.8543
X4.7441Y-2.9528
X4.7441Y-3.3268
X4.7441Y-3.4252
X4.7441Y-3.5236
X4.7441Y-3.622
X4.7441Y-3.9961
X4.7441Y-4.0945
X4.7441Y-4.1929
X4.7441Y-4.2913
T3
X2.2037Y-3.8287
X2.2037Y-3.9272
X2.7012Y-1.7717
X2.8012Y-1.7717
X2.9012Y-1.7717
X3.0012Y-1.7717
X3.1012Y-1.7717
X3.2012Y-1.7717
X3.3012Y-1.7717
X3.4012Y-1.7717
X3.5012Y-1.7717
X3.6012Y-1.7717
X3.9012Y-1.7717
X4.0012Y-1.7717
X4.1012Y-1.7717
X4.2012Y-1.7717
X4.3012Y-1.7717
X4.4012Y-1.7717
T4
X3.2972Y-3.9469
X3.2972Y-4.5177
X3.3957Y-4.5177
X3.4941Y-3.9469
X3.4941Y-4.5177
T0
M30
