%TF.GenerationSoftware,KiCad,Pcbnew,6.0.5-a6ca702e91~116~ubuntu20.04.1*%
%TF.CreationDate,2022-07-22T15:22:31-05:00*%
%TF.ProjectId,FormulaMixer_PCB-rounded,466f726d-756c-4614-9d69-7865725f5043,rev?*%
%TF.SameCoordinates,Original*%
%TF.FileFunction,Soldermask,Top*%
%TF.FilePolarity,Negative*%
%FSLAX46Y46*%
G04 Gerber Fmt 4.6, Leading zero omitted, Abs format (unit mm)*
G04 Created by KiCad (PCBNEW 6.0.5-a6ca702e91~116~ubuntu20.04.1) date 2022-07-22 15:22:31*
%MOMM*%
%LPD*%
G01*
G04 APERTURE LIST*
G04 Aperture macros list*
%AMRoundRect*
0 Rectangle with rounded corners*
0 $1 Rounding radius*
0 $2 $3 $4 $5 $6 $7 $8 $9 X,Y pos of 4 corners*
0 Add a 4 corners polygon primitive as box body*
4,1,4,$2,$3,$4,$5,$6,$7,$8,$9,$2,$3,0*
0 Add four circle primitives for the rounded corners*
1,1,$1+$1,$2,$3*
1,1,$1+$1,$4,$5*
1,1,$1+$1,$6,$7*
1,1,$1+$1,$8,$9*
0 Add four rect primitives between the rounded corners*
20,1,$1+$1,$2,$3,$4,$5,0*
20,1,$1+$1,$4,$5,$6,$7,0*
20,1,$1+$1,$6,$7,$8,$9,0*
20,1,$1+$1,$8,$9,$2,$3,0*%
G04 Aperture macros list end*
%ADD10C,3.200000*%
%ADD11R,0.900000X2.000000*%
%ADD12R,2.000000X0.900000*%
%ADD13R,5.000000X5.000000*%
%ADD14RoundRect,0.150000X-0.150000X0.662500X-0.150000X-0.662500X0.150000X-0.662500X0.150000X0.662500X0*%
%ADD15R,3.200000X2.514000*%
%ADD16RoundRect,0.062500X0.337500X0.062500X-0.337500X0.062500X-0.337500X-0.062500X0.337500X-0.062500X0*%
%ADD17RoundRect,0.062500X0.062500X0.337500X-0.062500X0.337500X-0.062500X-0.337500X0.062500X-0.337500X0*%
%ADD18R,3.350000X3.350000*%
%ADD19RoundRect,0.225000X-0.225000X-0.250000X0.225000X-0.250000X0.225000X0.250000X-0.225000X0.250000X0*%
%ADD20RoundRect,0.250000X-0.725000X0.600000X-0.725000X-0.600000X0.725000X-0.600000X0.725000X0.600000X0*%
%ADD21O,1.950000X1.700000*%
%ADD22RoundRect,0.200000X0.275000X-0.200000X0.275000X0.200000X-0.275000X0.200000X-0.275000X-0.200000X0*%
%ADD23RoundRect,0.250000X0.750000X-0.600000X0.750000X0.600000X-0.750000X0.600000X-0.750000X-0.600000X0*%
%ADD24O,2.000000X1.700000*%
%ADD25R,1.700000X1.700000*%
%ADD26O,1.700000X1.700000*%
%ADD27RoundRect,0.100000X-0.712500X-0.100000X0.712500X-0.100000X0.712500X0.100000X-0.712500X0.100000X0*%
%ADD28RoundRect,0.200000X0.200000X0.275000X-0.200000X0.275000X-0.200000X-0.275000X0.200000X-0.275000X0*%
%ADD29RoundRect,0.225000X-0.250000X0.225000X-0.250000X-0.225000X0.250000X-0.225000X0.250000X0.225000X0*%
%ADD30R,2.200000X1.200000*%
%ADD31R,6.400000X5.800000*%
%ADD32RoundRect,0.200000X-0.275000X0.200000X-0.275000X-0.200000X0.275000X-0.200000X0.275000X0.200000X0*%
%ADD33RoundRect,0.150000X-0.825000X-0.150000X0.825000X-0.150000X0.825000X0.150000X-0.825000X0.150000X0*%
%ADD34R,2.750000X1.000000*%
%ADD35R,0.510000X0.400000*%
%ADD36RoundRect,0.200000X-0.200000X-0.275000X0.200000X-0.275000X0.200000X0.275000X-0.200000X0.275000X0*%
%ADD37R,1.400000X0.400000*%
%ADD38R,1.900000X1.800000*%
%ADD39R,1.900000X2.300000*%
%ADD40RoundRect,1.300000X0.000000X0.300000X0.000000X0.300000X0.000000X-0.300000X0.000000X-0.300000X0*%
%ADD41C,2.000000*%
G04 APERTURE END LIST*
D10*
%TO.C,REF\u002A\u002A*%
X58750000Y-46000000D03*
%TD*%
%TO.C,REF\u002A\u002A*%
X121500000Y-46000000D03*
%TD*%
%TO.C,REF\u002A\u002A*%
X121500000Y-115000000D03*
%TD*%
%TO.C,REF\u002A\u002A*%
X58500000Y-115000000D03*
%TD*%
D11*
%TO.C,ESP32-WROOM-32D1*%
X66000000Y-86000000D03*
X67270000Y-86000000D03*
X68540000Y-86000000D03*
X69810000Y-86000000D03*
X71080000Y-86000000D03*
X72350000Y-86000000D03*
X73620000Y-86000000D03*
X74890000Y-86000000D03*
X76160000Y-86000000D03*
X77430000Y-86000000D03*
X78700000Y-86000000D03*
X79970000Y-86000000D03*
X81240000Y-86000000D03*
X82510000Y-86000000D03*
D12*
X83510000Y-83215000D03*
X83510000Y-81945000D03*
X83510000Y-80675000D03*
X83510000Y-79405000D03*
X83510000Y-78135000D03*
X83510000Y-76865000D03*
X83510000Y-75595000D03*
X83510000Y-74325000D03*
X83510000Y-73055000D03*
X83510000Y-71785000D03*
D11*
X82510000Y-69000000D03*
X81240000Y-69000000D03*
X79970000Y-69000000D03*
X78700000Y-69000000D03*
X77430000Y-69000000D03*
X76160000Y-69000000D03*
X74890000Y-69000000D03*
X73620000Y-69000000D03*
X72350000Y-69000000D03*
X71080000Y-69000000D03*
X69810000Y-69000000D03*
X68540000Y-69000000D03*
X67270000Y-69000000D03*
X66000000Y-69000000D03*
D13*
X73500000Y-78500000D03*
%TD*%
D14*
%TO.C,U4*%
X112355000Y-65742500D03*
X111085000Y-65742500D03*
X109815000Y-65742500D03*
X108545000Y-65742500D03*
X108545000Y-71017500D03*
X109815000Y-71017500D03*
X111085000Y-71017500D03*
X112355000Y-71017500D03*
D15*
X110450000Y-68380000D03*
%TD*%
D16*
%TO.C,CP1*%
X72950000Y-62880000D03*
X72950000Y-62380000D03*
X72950000Y-61880000D03*
X72950000Y-61380000D03*
X72950000Y-60880000D03*
X72950000Y-60380000D03*
X72950000Y-59880000D03*
D17*
X72000000Y-58930000D03*
X71500000Y-58930000D03*
X71000000Y-58930000D03*
X70500000Y-58930000D03*
X70000000Y-58930000D03*
X69500000Y-58930000D03*
X69000000Y-58930000D03*
D16*
X68050000Y-59880000D03*
X68050000Y-60380000D03*
X68050000Y-60880000D03*
X68050000Y-61380000D03*
X68050000Y-61880000D03*
X68050000Y-62380000D03*
X68050000Y-62880000D03*
D17*
X69000000Y-63830000D03*
X69500000Y-63830000D03*
X70000000Y-63830000D03*
X70500000Y-63830000D03*
X71000000Y-63830000D03*
X71500000Y-63830000D03*
X72000000Y-63830000D03*
D18*
X70500000Y-61380000D03*
%TD*%
D14*
%TO.C,U6*%
X112355000Y-100232500D03*
X111085000Y-100232500D03*
X109815000Y-100232500D03*
X108545000Y-100232500D03*
X108545000Y-105507500D03*
X109815000Y-105507500D03*
X111085000Y-105507500D03*
X112355000Y-105507500D03*
D15*
X110450000Y-102870000D03*
%TD*%
D14*
%TO.C,U10*%
X112205000Y-91742500D03*
X110935000Y-91742500D03*
X109665000Y-91742500D03*
X108395000Y-91742500D03*
X108395000Y-97017500D03*
X109665000Y-97017500D03*
X110935000Y-97017500D03*
X112205000Y-97017500D03*
D15*
X110300000Y-94380000D03*
%TD*%
D19*
%TO.C,C7*%
X101950000Y-102500000D03*
X103500000Y-102500000D03*
%TD*%
%TO.C,C8*%
X101950000Y-111000000D03*
X103500000Y-111000000D03*
%TD*%
%TO.C,C5*%
X101725000Y-85500000D03*
X103275000Y-85500000D03*
%TD*%
D20*
%TO.C,J4*%
X120500000Y-101500000D03*
D21*
X120500000Y-104000000D03*
X120500000Y-106500000D03*
X120500000Y-109000000D03*
%TD*%
D22*
%TO.C,R4*%
X71500000Y-55650000D03*
X71500000Y-54000000D03*
%TD*%
D23*
%TO.C,J5*%
X55975000Y-99750000D03*
D24*
X55975000Y-97250000D03*
%TD*%
D25*
%TO.C,U7*%
X68610000Y-45000000D03*
D26*
X71150000Y-45000000D03*
X73690000Y-45000000D03*
X76230000Y-45000000D03*
X78770000Y-45000000D03*
X81310000Y-45000000D03*
X83850000Y-45000000D03*
X86390000Y-45000000D03*
X88930000Y-45000000D03*
X91470000Y-45000000D03*
X99090000Y-45000000D03*
X101630000Y-45000000D03*
X104170000Y-45000000D03*
X106710000Y-45000000D03*
X109250000Y-45000000D03*
X111790000Y-45000000D03*
%TD*%
D22*
%TO.C,R6*%
X77250000Y-59825000D03*
X77250000Y-58175000D03*
%TD*%
D20*
%TO.C,J2*%
X120500000Y-67500000D03*
D21*
X120500000Y-70000000D03*
X120500000Y-72500000D03*
X120500000Y-75000000D03*
%TD*%
D19*
%TO.C,C9*%
X70725000Y-90750000D03*
X72275000Y-90750000D03*
%TD*%
%TO.C,C2*%
X101975000Y-59250000D03*
X103525000Y-59250000D03*
%TD*%
%TO.C,C4*%
X101725000Y-76500000D03*
X103275000Y-76500000D03*
%TD*%
D27*
%TO.C,MIC1*%
X87632500Y-58053000D03*
X87632500Y-59353000D03*
X91857500Y-59353000D03*
X91857500Y-58053000D03*
X91857500Y-60003000D03*
X91857500Y-58703000D03*
X87632500Y-58703000D03*
X87632500Y-60003000D03*
%TD*%
D28*
%TO.C,R7*%
X96575000Y-116000000D03*
X94925000Y-116000000D03*
%TD*%
D29*
%TO.C,C10*%
X87500000Y-63000000D03*
X87500000Y-64550000D03*
%TD*%
D28*
%TO.C,R8*%
X78075000Y-116250000D03*
X76425000Y-116250000D03*
%TD*%
D20*
%TO.C,J3*%
X120500000Y-84500000D03*
D21*
X120500000Y-87000000D03*
X120500000Y-89500000D03*
X120500000Y-92000000D03*
%TD*%
D30*
%TO.C,U12*%
X65375000Y-97195000D03*
D31*
X71675000Y-99475000D03*
D30*
X65375000Y-101755000D03*
%TD*%
D14*
%TO.C,U3*%
X112340000Y-48362500D03*
X111070000Y-48362500D03*
X109800000Y-48362500D03*
X108530000Y-48362500D03*
X108530000Y-53637500D03*
X109800000Y-53637500D03*
X111070000Y-53637500D03*
X112340000Y-53637500D03*
D15*
X110435000Y-51000000D03*
%TD*%
D14*
%TO.C,U11*%
X112355000Y-108732500D03*
X111085000Y-108732500D03*
X109815000Y-108732500D03*
X108545000Y-108732500D03*
X108545000Y-114007500D03*
X109815000Y-114007500D03*
X111085000Y-114007500D03*
X112355000Y-114007500D03*
D15*
X110450000Y-111370000D03*
%TD*%
D19*
%TO.C,C11*%
X62200000Y-105250000D03*
X63750000Y-105250000D03*
%TD*%
D22*
%TO.C,R5*%
X81750000Y-59825000D03*
X81750000Y-58175000D03*
%TD*%
D32*
%TO.C,R1*%
X79750000Y-101925000D03*
X79750000Y-103575000D03*
%TD*%
D14*
%TO.C,U5*%
X112155000Y-83112500D03*
X110885000Y-83112500D03*
X109615000Y-83112500D03*
X108345000Y-83112500D03*
X108345000Y-88387500D03*
X109615000Y-88387500D03*
X110885000Y-88387500D03*
X112155000Y-88387500D03*
D15*
X110250000Y-85750000D03*
%TD*%
D33*
%TO.C,U1*%
X92275000Y-82555000D03*
X92275000Y-83825000D03*
X92275000Y-85095000D03*
X92275000Y-86365000D03*
X92275000Y-87635000D03*
X92275000Y-88905000D03*
X92275000Y-90175000D03*
X92275000Y-91445000D03*
X97225000Y-91445000D03*
X97225000Y-90175000D03*
X97225000Y-88905000D03*
X97225000Y-87635000D03*
X97225000Y-86365000D03*
X97225000Y-85095000D03*
X97225000Y-83825000D03*
X97225000Y-82555000D03*
%TD*%
D19*
%TO.C,C3*%
X101975000Y-67750000D03*
X103525000Y-67750000D03*
%TD*%
D14*
%TO.C,U9*%
X112155000Y-74362500D03*
X110885000Y-74362500D03*
X109615000Y-74362500D03*
X108345000Y-74362500D03*
X108345000Y-79637500D03*
X109615000Y-79637500D03*
X110885000Y-79637500D03*
X112155000Y-79637500D03*
D15*
X110250000Y-77000000D03*
%TD*%
D19*
%TO.C,C1*%
X101975000Y-50500000D03*
X103525000Y-50500000D03*
%TD*%
%TO.C,C6*%
X101725000Y-94000000D03*
X103275000Y-94000000D03*
%TD*%
D34*
%TO.C,SW3*%
X78120000Y-92500000D03*
X83880000Y-92500000D03*
X78120000Y-96500000D03*
X83880000Y-96500000D03*
%TD*%
D33*
%TO.C,U2*%
X92275000Y-68305000D03*
X92275000Y-69575000D03*
X92275000Y-70845000D03*
X92275000Y-72115000D03*
X92275000Y-73385000D03*
X92275000Y-74655000D03*
X92275000Y-75925000D03*
X92275000Y-77195000D03*
X97225000Y-77195000D03*
X97225000Y-75925000D03*
X97225000Y-74655000D03*
X97225000Y-73385000D03*
X97225000Y-72115000D03*
X97225000Y-70845000D03*
X97225000Y-69575000D03*
X97225000Y-68305000D03*
%TD*%
D28*
%TO.C,R2*%
X74500000Y-112000000D03*
X72850000Y-112000000D03*
%TD*%
D20*
%TO.C,J1*%
X120500000Y-50500000D03*
D21*
X120500000Y-53000000D03*
X120500000Y-55500000D03*
X120500000Y-58000000D03*
%TD*%
D35*
%TO.C,Q2*%
X80355000Y-63000000D03*
X80355000Y-64000000D03*
X81645000Y-63500000D03*
%TD*%
D36*
%TO.C,R3*%
X75100000Y-64500000D03*
X76750000Y-64500000D03*
%TD*%
D37*
%TO.C,USB_MICRO1*%
X59100000Y-53300000D03*
X59100000Y-53950000D03*
X59100000Y-54600000D03*
X59100000Y-55250000D03*
X59100000Y-55900000D03*
D38*
X56250000Y-53450000D03*
D39*
X56250000Y-50850000D03*
X56250000Y-58350000D03*
D38*
X56250000Y-55750000D03*
%TD*%
D14*
%TO.C,U8*%
X112355000Y-56992500D03*
X111085000Y-56992500D03*
X109815000Y-56992500D03*
X108545000Y-56992500D03*
X108545000Y-62267500D03*
X109815000Y-62267500D03*
X111085000Y-62267500D03*
X112355000Y-62267500D03*
D15*
X110450000Y-59630000D03*
%TD*%
D35*
%TO.C,Q1*%
X79105000Y-51250000D03*
X79105000Y-52250000D03*
X80395000Y-51750000D03*
%TD*%
D40*
%TO.C,SW1*%
X91850000Y-107250000D03*
X80650000Y-107250000D03*
D41*
X88750000Y-114750000D03*
X83750000Y-114750000D03*
X86250000Y-114750000D03*
X88750000Y-100250000D03*
X83750000Y-100250000D03*
%TD*%
M02*
