%TF.GenerationSoftware,KiCad,Pcbnew,6.0.5-a6ca702e91~116~ubuntu20.04.1*%
%TF.CreationDate,2022-07-22T15:22:31-05:00*%
%TF.ProjectId,FormulaMixer_PCB-rounded,466f726d-756c-4614-9d69-7865725f5043,rev?*%
%TF.SameCoordinates,Original*%
%TF.FileFunction,Paste,Top*%
%TF.FilePolarity,Positive*%
%FSLAX46Y46*%
G04 Gerber Fmt 4.6, Leading zero omitted, Abs format (unit mm)*
G04 Created by KiCad (PCBNEW 6.0.5-a6ca702e91~116~ubuntu20.04.1) date 2022-07-22 15:22:31*
%MOMM*%
%LPD*%
G01*
G04 APERTURE LIST*
G04 Aperture macros list*
%AMRoundRect*
0 Rectangle with rounded corners*
0 $1 Rounding radius*
0 $2 $3 $4 $5 $6 $7 $8 $9 X,Y pos of 4 corners*
0 Add a 4 corners polygon primitive as box body*
4,1,4,$2,$3,$4,$5,$6,$7,$8,$9,$2,$3,0*
0 Add four circle primitives for the rounded corners*
1,1,$1+$1,$2,$3*
1,1,$1+$1,$4,$5*
1,1,$1+$1,$6,$7*
1,1,$1+$1,$8,$9*
0 Add four rect primitives between the rounded corners*
20,1,$1+$1,$2,$3,$4,$5,0*
20,1,$1+$1,$4,$5,$6,$7,0*
20,1,$1+$1,$6,$7,$8,$9,0*
20,1,$1+$1,$8,$9,$2,$3,0*%
G04 Aperture macros list end*
%ADD10R,0.900000X2.000000*%
%ADD11R,2.000000X0.900000*%
%ADD12R,5.000000X5.000000*%
%ADD13RoundRect,0.250000X-0.395000X0.255000X-0.395000X-0.255000X0.395000X-0.255000X0.395000X0.255000X0*%
%ADD14RoundRect,0.150000X-0.150000X0.662500X-0.150000X-0.662500X0.150000X-0.662500X0.150000X0.662500X0*%
%ADD15RoundRect,0.225000X0.225000X0.225000X-0.225000X0.225000X-0.225000X-0.225000X0.225000X-0.225000X0*%
%ADD16RoundRect,0.062500X0.337500X0.062500X-0.337500X0.062500X-0.337500X-0.062500X0.337500X-0.062500X0*%
%ADD17RoundRect,0.062500X0.062500X0.337500X-0.062500X0.337500X-0.062500X-0.337500X0.062500X-0.337500X0*%
%ADD18RoundRect,0.225000X-0.225000X-0.250000X0.225000X-0.250000X0.225000X0.250000X-0.225000X0.250000X0*%
%ADD19RoundRect,0.200000X0.275000X-0.200000X0.275000X0.200000X-0.275000X0.200000X-0.275000X-0.200000X0*%
%ADD20RoundRect,0.100000X-0.712500X-0.100000X0.712500X-0.100000X0.712500X0.100000X-0.712500X0.100000X0*%
%ADD21RoundRect,0.200000X0.200000X0.275000X-0.200000X0.275000X-0.200000X-0.275000X0.200000X-0.275000X0*%
%ADD22RoundRect,0.225000X-0.250000X0.225000X-0.250000X-0.225000X0.250000X-0.225000X0.250000X0.225000X0*%
%ADD23R,3.050000X2.750000*%
%ADD24R,2.200000X1.200000*%
%ADD25RoundRect,0.200000X-0.275000X0.200000X-0.275000X-0.200000X0.275000X-0.200000X0.275000X0.200000X0*%
%ADD26RoundRect,0.150000X-0.825000X-0.150000X0.825000X-0.150000X0.825000X0.150000X-0.825000X0.150000X0*%
%ADD27R,2.750000X1.000000*%
%ADD28R,0.510000X0.400000*%
%ADD29RoundRect,0.200000X-0.200000X-0.275000X0.200000X-0.275000X0.200000X0.275000X-0.200000X0.275000X0*%
%ADD30R,1.400000X0.400000*%
%ADD31R,1.900000X1.800000*%
%ADD32R,1.900000X2.300000*%
G04 APERTURE END LIST*
D10*
%TO.C,ESP32-WROOM-32D1*%
X66000000Y-86000000D03*
X67270000Y-86000000D03*
X68540000Y-86000000D03*
X69810000Y-86000000D03*
X71080000Y-86000000D03*
X72350000Y-86000000D03*
X73620000Y-86000000D03*
X74890000Y-86000000D03*
X76160000Y-86000000D03*
X77430000Y-86000000D03*
X78700000Y-86000000D03*
X79970000Y-86000000D03*
X81240000Y-86000000D03*
X82510000Y-86000000D03*
D11*
X83510000Y-83215000D03*
X83510000Y-81945000D03*
X83510000Y-80675000D03*
X83510000Y-79405000D03*
X83510000Y-78135000D03*
X83510000Y-76865000D03*
X83510000Y-75595000D03*
X83510000Y-74325000D03*
X83510000Y-73055000D03*
X83510000Y-71785000D03*
D10*
X82510000Y-69000000D03*
X81240000Y-69000000D03*
X79970000Y-69000000D03*
X78700000Y-69000000D03*
X77430000Y-69000000D03*
X76160000Y-69000000D03*
X74890000Y-69000000D03*
X73620000Y-69000000D03*
X72350000Y-69000000D03*
X71080000Y-69000000D03*
X69810000Y-69000000D03*
X68540000Y-69000000D03*
X67270000Y-69000000D03*
X66000000Y-69000000D03*
D12*
X73500000Y-78500000D03*
%TD*%
D13*
%TO.C,U4*%
X111250000Y-67750000D03*
X109650000Y-69010000D03*
X109650000Y-67750000D03*
X111250000Y-69010000D03*
D14*
X112355000Y-65742500D03*
X111085000Y-65742500D03*
X109815000Y-65742500D03*
X108545000Y-65742500D03*
X108545000Y-71017500D03*
X109815000Y-71017500D03*
X111085000Y-71017500D03*
X112355000Y-71017500D03*
%TD*%
D15*
%TO.C,CP1*%
X71620000Y-61380000D03*
X70500000Y-62500000D03*
X70500000Y-61380000D03*
X69380000Y-61380000D03*
X71620000Y-60260000D03*
X70500000Y-60260000D03*
X71620000Y-62500000D03*
X69380000Y-60260000D03*
X69380000Y-62500000D03*
D16*
X72950000Y-62880000D03*
X72950000Y-62380000D03*
X72950000Y-61880000D03*
X72950000Y-61380000D03*
X72950000Y-60880000D03*
X72950000Y-60380000D03*
X72950000Y-59880000D03*
D17*
X72000000Y-58930000D03*
X71500000Y-58930000D03*
X71000000Y-58930000D03*
X70500000Y-58930000D03*
X70000000Y-58930000D03*
X69500000Y-58930000D03*
X69000000Y-58930000D03*
D16*
X68050000Y-59880000D03*
X68050000Y-60380000D03*
X68050000Y-60880000D03*
X68050000Y-61380000D03*
X68050000Y-61880000D03*
X68050000Y-62380000D03*
X68050000Y-62880000D03*
D17*
X69000000Y-63830000D03*
X69500000Y-63830000D03*
X70000000Y-63830000D03*
X70500000Y-63830000D03*
X71000000Y-63830000D03*
X71500000Y-63830000D03*
X72000000Y-63830000D03*
%TD*%
D13*
%TO.C,U6*%
X111250000Y-102240000D03*
X111250000Y-103500000D03*
X109650000Y-102240000D03*
X109650000Y-103500000D03*
D14*
X112355000Y-100232500D03*
X111085000Y-100232500D03*
X109815000Y-100232500D03*
X108545000Y-100232500D03*
X108545000Y-105507500D03*
X109815000Y-105507500D03*
X111085000Y-105507500D03*
X112355000Y-105507500D03*
%TD*%
D13*
%TO.C,U10*%
X109500000Y-95010000D03*
X111100000Y-95010000D03*
X111100000Y-93750000D03*
X109500000Y-93750000D03*
D14*
X112205000Y-91742500D03*
X110935000Y-91742500D03*
X109665000Y-91742500D03*
X108395000Y-91742500D03*
X108395000Y-97017500D03*
X109665000Y-97017500D03*
X110935000Y-97017500D03*
X112205000Y-97017500D03*
%TD*%
D18*
%TO.C,C7*%
X101950000Y-102500000D03*
X103500000Y-102500000D03*
%TD*%
%TO.C,C8*%
X101950000Y-111000000D03*
X103500000Y-111000000D03*
%TD*%
%TO.C,C5*%
X101725000Y-85500000D03*
X103275000Y-85500000D03*
%TD*%
D19*
%TO.C,R4*%
X71500000Y-55650000D03*
X71500000Y-54000000D03*
%TD*%
%TO.C,R6*%
X77250000Y-59825000D03*
X77250000Y-58175000D03*
%TD*%
D18*
%TO.C,C9*%
X70725000Y-90750000D03*
X72275000Y-90750000D03*
%TD*%
%TO.C,C2*%
X101975000Y-59250000D03*
X103525000Y-59250000D03*
%TD*%
%TO.C,C4*%
X101725000Y-76500000D03*
X103275000Y-76500000D03*
%TD*%
D20*
%TO.C,MIC1*%
X87632500Y-58053000D03*
X87632500Y-59353000D03*
X91857500Y-59353000D03*
X91857500Y-58053000D03*
X91857500Y-60003000D03*
X91857500Y-58703000D03*
X87632500Y-58703000D03*
X87632500Y-60003000D03*
%TD*%
D21*
%TO.C,R7*%
X96575000Y-116000000D03*
X94925000Y-116000000D03*
%TD*%
D22*
%TO.C,C10*%
X87500000Y-63000000D03*
X87500000Y-64550000D03*
%TD*%
D21*
%TO.C,R8*%
X78075000Y-116250000D03*
X76425000Y-116250000D03*
%TD*%
D23*
%TO.C,U12*%
X73350000Y-101000000D03*
X70000000Y-97950000D03*
X70000000Y-101000000D03*
X73350000Y-97950000D03*
D24*
X65375000Y-97195000D03*
X65375000Y-101755000D03*
%TD*%
D13*
%TO.C,U3*%
X111235000Y-51630000D03*
X111235000Y-50370000D03*
X109635000Y-50370000D03*
X109635000Y-51630000D03*
D14*
X112340000Y-48362500D03*
X111070000Y-48362500D03*
X109800000Y-48362500D03*
X108530000Y-48362500D03*
X108530000Y-53637500D03*
X109800000Y-53637500D03*
X111070000Y-53637500D03*
X112340000Y-53637500D03*
%TD*%
D13*
%TO.C,U11*%
X111250000Y-110740000D03*
X109650000Y-112000000D03*
X111250000Y-112000000D03*
X109650000Y-110740000D03*
D14*
X112355000Y-108732500D03*
X111085000Y-108732500D03*
X109815000Y-108732500D03*
X108545000Y-108732500D03*
X108545000Y-114007500D03*
X109815000Y-114007500D03*
X111085000Y-114007500D03*
X112355000Y-114007500D03*
%TD*%
D18*
%TO.C,C11*%
X62200000Y-105250000D03*
X63750000Y-105250000D03*
%TD*%
D19*
%TO.C,R5*%
X81750000Y-59825000D03*
X81750000Y-58175000D03*
%TD*%
D25*
%TO.C,R1*%
X79750000Y-101925000D03*
X79750000Y-103575000D03*
%TD*%
D13*
%TO.C,U5*%
X111050000Y-85120000D03*
X109450000Y-86380000D03*
X109450000Y-85120000D03*
X111050000Y-86380000D03*
D14*
X112155000Y-83112500D03*
X110885000Y-83112500D03*
X109615000Y-83112500D03*
X108345000Y-83112500D03*
X108345000Y-88387500D03*
X109615000Y-88387500D03*
X110885000Y-88387500D03*
X112155000Y-88387500D03*
%TD*%
D26*
%TO.C,U1*%
X92275000Y-82555000D03*
X92275000Y-83825000D03*
X92275000Y-85095000D03*
X92275000Y-86365000D03*
X92275000Y-87635000D03*
X92275000Y-88905000D03*
X92275000Y-90175000D03*
X92275000Y-91445000D03*
X97225000Y-91445000D03*
X97225000Y-90175000D03*
X97225000Y-88905000D03*
X97225000Y-87635000D03*
X97225000Y-86365000D03*
X97225000Y-85095000D03*
X97225000Y-83825000D03*
X97225000Y-82555000D03*
%TD*%
D18*
%TO.C,C3*%
X101975000Y-67750000D03*
X103525000Y-67750000D03*
%TD*%
D13*
%TO.C,U9*%
X111050000Y-76370000D03*
X109450000Y-76370000D03*
X109450000Y-77630000D03*
X111050000Y-77630000D03*
D14*
X112155000Y-74362500D03*
X110885000Y-74362500D03*
X109615000Y-74362500D03*
X108345000Y-74362500D03*
X108345000Y-79637500D03*
X109615000Y-79637500D03*
X110885000Y-79637500D03*
X112155000Y-79637500D03*
%TD*%
D18*
%TO.C,C1*%
X101975000Y-50500000D03*
X103525000Y-50500000D03*
%TD*%
%TO.C,C6*%
X101725000Y-94000000D03*
X103275000Y-94000000D03*
%TD*%
D27*
%TO.C,SW3*%
X78120000Y-92500000D03*
X83880000Y-92500000D03*
X78120000Y-96500000D03*
X83880000Y-96500000D03*
%TD*%
D26*
%TO.C,U2*%
X92275000Y-68305000D03*
X92275000Y-69575000D03*
X92275000Y-70845000D03*
X92275000Y-72115000D03*
X92275000Y-73385000D03*
X92275000Y-74655000D03*
X92275000Y-75925000D03*
X92275000Y-77195000D03*
X97225000Y-77195000D03*
X97225000Y-75925000D03*
X97225000Y-74655000D03*
X97225000Y-73385000D03*
X97225000Y-72115000D03*
X97225000Y-70845000D03*
X97225000Y-69575000D03*
X97225000Y-68305000D03*
%TD*%
D21*
%TO.C,R2*%
X74500000Y-112000000D03*
X72850000Y-112000000D03*
%TD*%
D28*
%TO.C,Q2*%
X80355000Y-63000000D03*
X80355000Y-64000000D03*
X81645000Y-63500000D03*
%TD*%
D29*
%TO.C,R3*%
X75100000Y-64500000D03*
X76750000Y-64500000D03*
%TD*%
D30*
%TO.C,USB_MICRO1*%
X59100000Y-53300000D03*
X59100000Y-53950000D03*
X59100000Y-54600000D03*
X59100000Y-55250000D03*
X59100000Y-55900000D03*
D31*
X56250000Y-53450000D03*
D32*
X56250000Y-50850000D03*
X56250000Y-58350000D03*
D31*
X56250000Y-55750000D03*
%TD*%
D13*
%TO.C,U8*%
X111250000Y-60260000D03*
X111250000Y-59000000D03*
X109650000Y-60260000D03*
X109650000Y-59000000D03*
D14*
X112355000Y-56992500D03*
X111085000Y-56992500D03*
X109815000Y-56992500D03*
X108545000Y-56992500D03*
X108545000Y-62267500D03*
X109815000Y-62267500D03*
X111085000Y-62267500D03*
X112355000Y-62267500D03*
%TD*%
D28*
%TO.C,Q1*%
X79105000Y-51250000D03*
X79105000Y-52250000D03*
X80395000Y-51750000D03*
%TD*%
M02*
