%TF.GenerationSoftware,KiCad,Pcbnew,6.0.5-a6ca702e91~116~ubuntu20.04.1*%
%TF.CreationDate,2022-07-22T15:22:31-05:00*%
%TF.ProjectId,FormulaMixer_PCB-rounded,466f726d-756c-4614-9d69-7865725f5043,rev?*%
%TF.SameCoordinates,Original*%
%TF.FileFunction,Legend,Top*%
%TF.FilePolarity,Positive*%
%FSLAX46Y46*%
G04 Gerber Fmt 4.6, Leading zero omitted, Abs format (unit mm)*
G04 Created by KiCad (PCBNEW 6.0.5-a6ca702e91~116~ubuntu20.04.1) date 2022-07-22 15:22:31*
%MOMM*%
%LPD*%
G01*
G04 APERTURE LIST*
%ADD10C,0.150000*%
%ADD11C,0.120000*%
G04 APERTURE END LIST*
D10*
X83833333Y-32552380D02*
X84500000Y-32552380D01*
X84071428Y-33552380D01*
X85309523Y-32885714D02*
X85309523Y-33552380D01*
X85071428Y-32504761D02*
X84833333Y-33219047D01*
X85452380Y-33219047D01*
X85833333Y-33457142D02*
X85880952Y-33504761D01*
X85833333Y-33552380D01*
X85785714Y-33504761D01*
X85833333Y-33457142D01*
X85833333Y-33552380D01*
X86785714Y-32552380D02*
X86309523Y-32552380D01*
X86261904Y-33028571D01*
X86309523Y-32980952D01*
X86404761Y-32933333D01*
X86642857Y-32933333D01*
X86738095Y-32980952D01*
X86785714Y-33028571D01*
X86833333Y-33123809D01*
X86833333Y-33361904D01*
X86785714Y-33457142D01*
X86738095Y-33504761D01*
X86642857Y-33552380D01*
X86404761Y-33552380D01*
X86309523Y-33504761D01*
X86261904Y-33457142D01*
X87452380Y-32552380D02*
X87547619Y-32552380D01*
X87642857Y-32600000D01*
X87690476Y-32647619D01*
X87738095Y-32742857D01*
X87785714Y-32933333D01*
X87785714Y-33171428D01*
X87738095Y-33361904D01*
X87690476Y-33457142D01*
X87642857Y-33504761D01*
X87547619Y-33552380D01*
X87452380Y-33552380D01*
X87357142Y-33504761D01*
X87309523Y-33457142D01*
X87261904Y-33361904D01*
X87214285Y-33171428D01*
X87214285Y-32933333D01*
X87261904Y-32742857D01*
X87309523Y-32647619D01*
X87357142Y-32600000D01*
X87452380Y-32552380D01*
X88404761Y-32552380D02*
X88500000Y-32552380D01*
X88595238Y-32600000D01*
X88642857Y-32647619D01*
X88690476Y-32742857D01*
X88738095Y-32933333D01*
X88738095Y-33171428D01*
X88690476Y-33361904D01*
X88642857Y-33457142D01*
X88595238Y-33504761D01*
X88500000Y-33552380D01*
X88404761Y-33552380D01*
X88309523Y-33504761D01*
X88261904Y-33457142D01*
X88214285Y-33361904D01*
X88166666Y-33171428D01*
X88166666Y-32933333D01*
X88214285Y-32742857D01*
X88261904Y-32647619D01*
X88309523Y-32600000D01*
X88404761Y-32552380D01*
X89357142Y-32552380D02*
X89452380Y-32552380D01*
X89547619Y-32600000D01*
X89595238Y-32647619D01*
X89642857Y-32742857D01*
X89690476Y-32933333D01*
X89690476Y-33171428D01*
X89642857Y-33361904D01*
X89595238Y-33457142D01*
X89547619Y-33504761D01*
X89452380Y-33552380D01*
X89357142Y-33552380D01*
X89261904Y-33504761D01*
X89214285Y-33457142D01*
X89166666Y-33361904D01*
X89119047Y-33171428D01*
X89119047Y-32933333D01*
X89166666Y-32742857D01*
X89214285Y-32647619D01*
X89261904Y-32600000D01*
X89357142Y-32552380D01*
X90880952Y-33552380D02*
X90880952Y-32885714D01*
X90880952Y-32980952D02*
X90928571Y-32933333D01*
X91023809Y-32885714D01*
X91166666Y-32885714D01*
X91261904Y-32933333D01*
X91309523Y-33028571D01*
X91309523Y-33552380D01*
X91309523Y-33028571D02*
X91357142Y-32933333D01*
X91452380Y-32885714D01*
X91595238Y-32885714D01*
X91690476Y-32933333D01*
X91738095Y-33028571D01*
X91738095Y-33552380D01*
X92214285Y-33552380D02*
X92214285Y-32885714D01*
X92214285Y-32980952D02*
X92261904Y-32933333D01*
X92357142Y-32885714D01*
X92500000Y-32885714D01*
X92595238Y-32933333D01*
X92642857Y-33028571D01*
X92642857Y-33552380D01*
X92642857Y-33028571D02*
X92690476Y-32933333D01*
X92785714Y-32885714D01*
X92928571Y-32885714D01*
X93023809Y-32933333D01*
X93071428Y-33028571D01*
X93071428Y-33552380D01*
X51250000Y-42000000D02*
X51250000Y-33663580D01*
X125750000Y-42000000D02*
X125750000Y-33663580D01*
X51250000Y-34250000D02*
X125750000Y-34250000D01*
X51250000Y-34250000D02*
X125750000Y-34250000D01*
X51250000Y-34250000D02*
X52376504Y-34836421D01*
X51250000Y-34250000D02*
X52376504Y-33663579D01*
X125750000Y-34250000D02*
X124623496Y-33663579D01*
X125750000Y-34250000D02*
X124623496Y-34836421D01*
X132302380Y-85541666D02*
X132302380Y-84875000D01*
X133302380Y-85303571D01*
X132302380Y-84065476D02*
X132302380Y-84255952D01*
X132350000Y-84351190D01*
X132397619Y-84398809D01*
X132540476Y-84494047D01*
X132730952Y-84541666D01*
X133111904Y-84541666D01*
X133207142Y-84494047D01*
X133254761Y-84446428D01*
X133302380Y-84351190D01*
X133302380Y-84160714D01*
X133254761Y-84065476D01*
X133207142Y-84017857D01*
X133111904Y-83970238D01*
X132873809Y-83970238D01*
X132778571Y-84017857D01*
X132730952Y-84065476D01*
X132683333Y-84160714D01*
X132683333Y-84351190D01*
X132730952Y-84446428D01*
X132778571Y-84494047D01*
X132873809Y-84541666D01*
X133207142Y-83541666D02*
X133254761Y-83494047D01*
X133302380Y-83541666D01*
X133254761Y-83589285D01*
X133207142Y-83541666D01*
X133302380Y-83541666D01*
X132302380Y-83160714D02*
X132302380Y-82494047D01*
X133302380Y-82922619D01*
X132302380Y-81636904D02*
X132302380Y-82113095D01*
X132778571Y-82160714D01*
X132730952Y-82113095D01*
X132683333Y-82017857D01*
X132683333Y-81779761D01*
X132730952Y-81684523D01*
X132778571Y-81636904D01*
X132873809Y-81589285D01*
X133111904Y-81589285D01*
X133207142Y-81636904D01*
X133254761Y-81684523D01*
X133302380Y-81779761D01*
X133302380Y-82017857D01*
X133254761Y-82113095D01*
X133207142Y-82160714D01*
X132302380Y-80970238D02*
X132302380Y-80875000D01*
X132350000Y-80779761D01*
X132397619Y-80732142D01*
X132492857Y-80684523D01*
X132683333Y-80636904D01*
X132921428Y-80636904D01*
X133111904Y-80684523D01*
X133207142Y-80732142D01*
X133254761Y-80779761D01*
X133302380Y-80875000D01*
X133302380Y-80970238D01*
X133254761Y-81065476D01*
X133207142Y-81113095D01*
X133111904Y-81160714D01*
X132921428Y-81208333D01*
X132683333Y-81208333D01*
X132492857Y-81160714D01*
X132397619Y-81113095D01*
X132350000Y-81065476D01*
X132302380Y-80970238D01*
X132302380Y-80017857D02*
X132302380Y-79922619D01*
X132350000Y-79827380D01*
X132397619Y-79779761D01*
X132492857Y-79732142D01*
X132683333Y-79684523D01*
X132921428Y-79684523D01*
X133111904Y-79732142D01*
X133207142Y-79779761D01*
X133254761Y-79827380D01*
X133302380Y-79922619D01*
X133302380Y-80017857D01*
X133254761Y-80113095D01*
X133207142Y-80160714D01*
X133111904Y-80208333D01*
X132921428Y-80255952D01*
X132683333Y-80255952D01*
X132492857Y-80208333D01*
X132397619Y-80160714D01*
X132350000Y-80113095D01*
X132302380Y-80017857D01*
X133302380Y-78494047D02*
X132635714Y-78494047D01*
X132730952Y-78494047D02*
X132683333Y-78446428D01*
X132635714Y-78351190D01*
X132635714Y-78208333D01*
X132683333Y-78113095D01*
X132778571Y-78065476D01*
X133302380Y-78065476D01*
X132778571Y-78065476D02*
X132683333Y-78017857D01*
X132635714Y-77922619D01*
X132635714Y-77779761D01*
X132683333Y-77684523D01*
X132778571Y-77636904D01*
X133302380Y-77636904D01*
X133302380Y-77160714D02*
X132635714Y-77160714D01*
X132730952Y-77160714D02*
X132683333Y-77113095D01*
X132635714Y-77017857D01*
X132635714Y-76875000D01*
X132683333Y-76779761D01*
X132778571Y-76732142D01*
X133302380Y-76732142D01*
X132778571Y-76732142D02*
X132683333Y-76684523D01*
X132635714Y-76589285D01*
X132635714Y-76446428D01*
X132683333Y-76351190D01*
X132778571Y-76303571D01*
X133302380Y-76303571D01*
X126250000Y-42500000D02*
X134586420Y-42500000D01*
X126250000Y-119250000D02*
X134586420Y-119250000D01*
X134000000Y-42500000D02*
X134000000Y-119250000D01*
X134000000Y-42500000D02*
X134000000Y-119250000D01*
X134000000Y-42500000D02*
X133413579Y-43626504D01*
X134000000Y-42500000D02*
X134586421Y-43626504D01*
X134000000Y-119250000D02*
X134586421Y-118123496D01*
X134000000Y-119250000D02*
X133413579Y-118123496D01*
%TO.C,REF\u002A\u002A*%
X57416666Y-42252380D02*
X57083333Y-41776190D01*
X56845238Y-42252380D02*
X56845238Y-41252380D01*
X57226190Y-41252380D01*
X57321428Y-41300000D01*
X57369047Y-41347619D01*
X57416666Y-41442857D01*
X57416666Y-41585714D01*
X57369047Y-41680952D01*
X57321428Y-41728571D01*
X57226190Y-41776190D01*
X56845238Y-41776190D01*
X57845238Y-41728571D02*
X58178571Y-41728571D01*
X58321428Y-42252380D02*
X57845238Y-42252380D01*
X57845238Y-41252380D01*
X58321428Y-41252380D01*
X59083333Y-41728571D02*
X58750000Y-41728571D01*
X58750000Y-42252380D02*
X58750000Y-41252380D01*
X59226190Y-41252380D01*
X59750000Y-41252380D02*
X59750000Y-41490476D01*
X59511904Y-41395238D02*
X59750000Y-41490476D01*
X59988095Y-41395238D01*
X59607142Y-41680952D02*
X59750000Y-41490476D01*
X59892857Y-41680952D01*
X60511904Y-41252380D02*
X60511904Y-41490476D01*
X60273809Y-41395238D02*
X60511904Y-41490476D01*
X60750000Y-41395238D01*
X60369047Y-41680952D02*
X60511904Y-41490476D01*
X60654761Y-41680952D01*
X120166666Y-42252380D02*
X119833333Y-41776190D01*
X119595238Y-42252380D02*
X119595238Y-41252380D01*
X119976190Y-41252380D01*
X120071428Y-41300000D01*
X120119047Y-41347619D01*
X120166666Y-41442857D01*
X120166666Y-41585714D01*
X120119047Y-41680952D01*
X120071428Y-41728571D01*
X119976190Y-41776190D01*
X119595238Y-41776190D01*
X120595238Y-41728571D02*
X120928571Y-41728571D01*
X121071428Y-42252380D02*
X120595238Y-42252380D01*
X120595238Y-41252380D01*
X121071428Y-41252380D01*
X121833333Y-41728571D02*
X121500000Y-41728571D01*
X121500000Y-42252380D02*
X121500000Y-41252380D01*
X121976190Y-41252380D01*
X122500000Y-41252380D02*
X122500000Y-41490476D01*
X122261904Y-41395238D02*
X122500000Y-41490476D01*
X122738095Y-41395238D01*
X122357142Y-41680952D02*
X122500000Y-41490476D01*
X122642857Y-41680952D01*
X123261904Y-41252380D02*
X123261904Y-41490476D01*
X123023809Y-41395238D02*
X123261904Y-41490476D01*
X123500000Y-41395238D01*
X123119047Y-41680952D02*
X123261904Y-41490476D01*
X123404761Y-41680952D01*
X120166666Y-111252380D02*
X119833333Y-110776190D01*
X119595238Y-111252380D02*
X119595238Y-110252380D01*
X119976190Y-110252380D01*
X120071428Y-110300000D01*
X120119047Y-110347619D01*
X120166666Y-110442857D01*
X120166666Y-110585714D01*
X120119047Y-110680952D01*
X120071428Y-110728571D01*
X119976190Y-110776190D01*
X119595238Y-110776190D01*
X120595238Y-110728571D02*
X120928571Y-110728571D01*
X121071428Y-111252380D02*
X120595238Y-111252380D01*
X120595238Y-110252380D01*
X121071428Y-110252380D01*
X121833333Y-110728571D02*
X121500000Y-110728571D01*
X121500000Y-111252380D02*
X121500000Y-110252380D01*
X121976190Y-110252380D01*
X122500000Y-110252380D02*
X122500000Y-110490476D01*
X122261904Y-110395238D02*
X122500000Y-110490476D01*
X122738095Y-110395238D01*
X122357142Y-110680952D02*
X122500000Y-110490476D01*
X122642857Y-110680952D01*
X123261904Y-110252380D02*
X123261904Y-110490476D01*
X123023809Y-110395238D02*
X123261904Y-110490476D01*
X123500000Y-110395238D01*
X123119047Y-110680952D02*
X123261904Y-110490476D01*
X123404761Y-110680952D01*
X57166666Y-111252380D02*
X56833333Y-110776190D01*
X56595238Y-111252380D02*
X56595238Y-110252380D01*
X56976190Y-110252380D01*
X57071428Y-110300000D01*
X57119047Y-110347619D01*
X57166666Y-110442857D01*
X57166666Y-110585714D01*
X57119047Y-110680952D01*
X57071428Y-110728571D01*
X56976190Y-110776190D01*
X56595238Y-110776190D01*
X57595238Y-110728571D02*
X57928571Y-110728571D01*
X58071428Y-111252380D02*
X57595238Y-111252380D01*
X57595238Y-110252380D01*
X58071428Y-110252380D01*
X58833333Y-110728571D02*
X58500000Y-110728571D01*
X58500000Y-111252380D02*
X58500000Y-110252380D01*
X58976190Y-110252380D01*
X59500000Y-110252380D02*
X59500000Y-110490476D01*
X59261904Y-110395238D02*
X59500000Y-110490476D01*
X59738095Y-110395238D01*
X59357142Y-110680952D02*
X59500000Y-110490476D01*
X59642857Y-110680952D01*
X60261904Y-110252380D02*
X60261904Y-110490476D01*
X60023809Y-110395238D02*
X60261904Y-110490476D01*
X60500000Y-110395238D01*
X60119047Y-110680952D02*
X60261904Y-110490476D01*
X60404761Y-110680952D01*
%TO.C,ESP32-WROOM-32D1*%
X86178571Y-86000000D02*
X86178571Y-85666666D01*
X86702380Y-85523809D02*
X86702380Y-86000000D01*
X85702380Y-86000000D01*
X85702380Y-85523809D01*
X86654761Y-85142857D02*
X86702380Y-85000000D01*
X86702380Y-84761904D01*
X86654761Y-84666666D01*
X86607142Y-84619047D01*
X86511904Y-84571428D01*
X86416666Y-84571428D01*
X86321428Y-84619047D01*
X86273809Y-84666666D01*
X86226190Y-84761904D01*
X86178571Y-84952380D01*
X86130952Y-85047619D01*
X86083333Y-85095238D01*
X85988095Y-85142857D01*
X85892857Y-85142857D01*
X85797619Y-85095238D01*
X85750000Y-85047619D01*
X85702380Y-84952380D01*
X85702380Y-84714285D01*
X85750000Y-84571428D01*
X86702380Y-84142857D02*
X85702380Y-84142857D01*
X85702380Y-83761904D01*
X85750000Y-83666666D01*
X85797619Y-83619047D01*
X85892857Y-83571428D01*
X86035714Y-83571428D01*
X86130952Y-83619047D01*
X86178571Y-83666666D01*
X86226190Y-83761904D01*
X86226190Y-84142857D01*
X85702380Y-83238095D02*
X85702380Y-82619047D01*
X86083333Y-82952380D01*
X86083333Y-82809523D01*
X86130952Y-82714285D01*
X86178571Y-82666666D01*
X86273809Y-82619047D01*
X86511904Y-82619047D01*
X86607142Y-82666666D01*
X86654761Y-82714285D01*
X86702380Y-82809523D01*
X86702380Y-83095238D01*
X86654761Y-83190476D01*
X86607142Y-83238095D01*
X85797619Y-82238095D02*
X85750000Y-82190476D01*
X85702380Y-82095238D01*
X85702380Y-81857142D01*
X85750000Y-81761904D01*
X85797619Y-81714285D01*
X85892857Y-81666666D01*
X85988095Y-81666666D01*
X86130952Y-81714285D01*
X86702380Y-82285714D01*
X86702380Y-81666666D01*
X86321428Y-81238095D02*
X86321428Y-80476190D01*
X85702380Y-80095238D02*
X86702380Y-79857142D01*
X85988095Y-79666666D01*
X86702380Y-79476190D01*
X85702380Y-79238095D01*
X86702380Y-78285714D02*
X86226190Y-78619047D01*
X86702380Y-78857142D02*
X85702380Y-78857142D01*
X85702380Y-78476190D01*
X85750000Y-78380952D01*
X85797619Y-78333333D01*
X85892857Y-78285714D01*
X86035714Y-78285714D01*
X86130952Y-78333333D01*
X86178571Y-78380952D01*
X86226190Y-78476190D01*
X86226190Y-78857142D01*
X85702380Y-77666666D02*
X85702380Y-77476190D01*
X85750000Y-77380952D01*
X85845238Y-77285714D01*
X86035714Y-77238095D01*
X86369047Y-77238095D01*
X86559523Y-77285714D01*
X86654761Y-77380952D01*
X86702380Y-77476190D01*
X86702380Y-77666666D01*
X86654761Y-77761904D01*
X86559523Y-77857142D01*
X86369047Y-77904761D01*
X86035714Y-77904761D01*
X85845238Y-77857142D01*
X85750000Y-77761904D01*
X85702380Y-77666666D01*
X85702380Y-76619047D02*
X85702380Y-76428571D01*
X85750000Y-76333333D01*
X85845238Y-76238095D01*
X86035714Y-76190476D01*
X86369047Y-76190476D01*
X86559523Y-76238095D01*
X86654761Y-76333333D01*
X86702380Y-76428571D01*
X86702380Y-76619047D01*
X86654761Y-76714285D01*
X86559523Y-76809523D01*
X86369047Y-76857142D01*
X86035714Y-76857142D01*
X85845238Y-76809523D01*
X85750000Y-76714285D01*
X85702380Y-76619047D01*
X86702380Y-75761904D02*
X85702380Y-75761904D01*
X86416666Y-75428571D01*
X85702380Y-75095238D01*
X86702380Y-75095238D01*
X86321428Y-74619047D02*
X86321428Y-73857142D01*
X85702380Y-73476190D02*
X85702380Y-72857142D01*
X86083333Y-73190476D01*
X86083333Y-73047619D01*
X86130952Y-72952380D01*
X86178571Y-72904761D01*
X86273809Y-72857142D01*
X86511904Y-72857142D01*
X86607142Y-72904761D01*
X86654761Y-72952380D01*
X86702380Y-73047619D01*
X86702380Y-73333333D01*
X86654761Y-73428571D01*
X86607142Y-73476190D01*
X85797619Y-72476190D02*
X85750000Y-72428571D01*
X85702380Y-72333333D01*
X85702380Y-72095238D01*
X85750000Y-72000000D01*
X85797619Y-71952380D01*
X85892857Y-71904761D01*
X85988095Y-71904761D01*
X86130952Y-71952380D01*
X86702380Y-72523809D01*
X86702380Y-71904761D01*
X86702380Y-71476190D02*
X85702380Y-71476190D01*
X85702380Y-71238095D01*
X85750000Y-71095238D01*
X85845238Y-71000000D01*
X85940476Y-70952380D01*
X86130952Y-70904761D01*
X86273809Y-70904761D01*
X86464285Y-70952380D01*
X86559523Y-71000000D01*
X86654761Y-71095238D01*
X86702380Y-71238095D01*
X86702380Y-71476190D01*
X86702380Y-69952380D02*
X86702380Y-70523809D01*
X86702380Y-70238095D02*
X85702380Y-70238095D01*
X85845238Y-70333333D01*
X85940476Y-70428571D01*
X85988095Y-70523809D01*
%TO.C,U4*%
X113302380Y-69141904D02*
X114111904Y-69141904D01*
X114207142Y-69094285D01*
X114254761Y-69046666D01*
X114302380Y-68951428D01*
X114302380Y-68760952D01*
X114254761Y-68665714D01*
X114207142Y-68618095D01*
X114111904Y-68570476D01*
X113302380Y-68570476D01*
X113635714Y-67665714D02*
X114302380Y-67665714D01*
X113254761Y-67903809D02*
X113969047Y-68141904D01*
X113969047Y-67522857D01*
X106978571Y-71189523D02*
X107026190Y-71046666D01*
X107073809Y-70999047D01*
X107169047Y-70951428D01*
X107311904Y-70951428D01*
X107407142Y-70999047D01*
X107454761Y-71046666D01*
X107502380Y-71141904D01*
X107502380Y-71522857D01*
X106502380Y-71522857D01*
X106502380Y-71189523D01*
X106550000Y-71094285D01*
X106597619Y-71046666D01*
X106692857Y-70999047D01*
X106788095Y-70999047D01*
X106883333Y-71046666D01*
X106930952Y-71094285D01*
X106978571Y-71189523D01*
X106978571Y-71522857D01*
X107502380Y-70522857D02*
X106502380Y-70522857D01*
X106502380Y-70284761D01*
X106550000Y-70141904D01*
X106645238Y-70046666D01*
X106740476Y-69999047D01*
X106930952Y-69951428D01*
X107073809Y-69951428D01*
X107264285Y-69999047D01*
X107359523Y-70046666D01*
X107454761Y-70141904D01*
X107502380Y-70284761D01*
X107502380Y-70522857D01*
X106502380Y-69094285D02*
X106502380Y-69284761D01*
X106550000Y-69380000D01*
X106597619Y-69427619D01*
X106740476Y-69522857D01*
X106930952Y-69570476D01*
X107311904Y-69570476D01*
X107407142Y-69522857D01*
X107454761Y-69475238D01*
X107502380Y-69380000D01*
X107502380Y-69189523D01*
X107454761Y-69094285D01*
X107407142Y-69046666D01*
X107311904Y-68999047D01*
X107073809Y-68999047D01*
X106978571Y-69046666D01*
X106930952Y-69094285D01*
X106883333Y-69189523D01*
X106883333Y-69380000D01*
X106930952Y-69475238D01*
X106978571Y-69522857D01*
X107073809Y-69570476D01*
X106597619Y-68618095D02*
X106550000Y-68570476D01*
X106502380Y-68475238D01*
X106502380Y-68237142D01*
X106550000Y-68141904D01*
X106597619Y-68094285D01*
X106692857Y-68046666D01*
X106788095Y-68046666D01*
X106930952Y-68094285D01*
X107502380Y-68665714D01*
X107502380Y-68046666D01*
X107502380Y-67094285D02*
X107502380Y-67665714D01*
X107502380Y-67380000D02*
X106502380Y-67380000D01*
X106645238Y-67475238D01*
X106740476Y-67570476D01*
X106788095Y-67665714D01*
X106502380Y-66760952D02*
X106502380Y-66141904D01*
X106883333Y-66475238D01*
X106883333Y-66332380D01*
X106930952Y-66237142D01*
X106978571Y-66189523D01*
X107073809Y-66141904D01*
X107311904Y-66141904D01*
X107407142Y-66189523D01*
X107454761Y-66237142D01*
X107502380Y-66332380D01*
X107502380Y-66618095D01*
X107454761Y-66713333D01*
X107407142Y-66760952D01*
X106502380Y-65522857D02*
X106502380Y-65427619D01*
X106550000Y-65332380D01*
X106597619Y-65284761D01*
X106692857Y-65237142D01*
X106883333Y-65189523D01*
X107121428Y-65189523D01*
X107311904Y-65237142D01*
X107407142Y-65284761D01*
X107454761Y-65332380D01*
X107502380Y-65427619D01*
X107502380Y-65522857D01*
X107454761Y-65618095D01*
X107407142Y-65665714D01*
X107311904Y-65713333D01*
X107121428Y-65760952D01*
X106883333Y-65760952D01*
X106692857Y-65713333D01*
X106597619Y-65665714D01*
X106550000Y-65618095D01*
X106502380Y-65522857D01*
%TO.C,CP1*%
X69833333Y-65537142D02*
X69785714Y-65584761D01*
X69642857Y-65632380D01*
X69547619Y-65632380D01*
X69404761Y-65584761D01*
X69309523Y-65489523D01*
X69261904Y-65394285D01*
X69214285Y-65203809D01*
X69214285Y-65060952D01*
X69261904Y-64870476D01*
X69309523Y-64775238D01*
X69404761Y-64680000D01*
X69547619Y-64632380D01*
X69642857Y-64632380D01*
X69785714Y-64680000D01*
X69833333Y-64727619D01*
X70261904Y-65632380D02*
X70261904Y-64632380D01*
X70642857Y-64632380D01*
X70738095Y-64680000D01*
X70785714Y-64727619D01*
X70833333Y-64822857D01*
X70833333Y-64965714D01*
X70785714Y-65060952D01*
X70738095Y-65108571D01*
X70642857Y-65156190D01*
X70261904Y-65156190D01*
X71785714Y-65632380D02*
X71214285Y-65632380D01*
X71500000Y-65632380D02*
X71500000Y-64632380D01*
X71404761Y-64775238D01*
X71309523Y-64870476D01*
X71214285Y-64918095D01*
X67880952Y-57937142D02*
X67833333Y-57984761D01*
X67690476Y-58032380D01*
X67595238Y-58032380D01*
X67452380Y-57984761D01*
X67357142Y-57889523D01*
X67309523Y-57794285D01*
X67261904Y-57603809D01*
X67261904Y-57460952D01*
X67309523Y-57270476D01*
X67357142Y-57175238D01*
X67452380Y-57080000D01*
X67595238Y-57032380D01*
X67690476Y-57032380D01*
X67833333Y-57080000D01*
X67880952Y-57127619D01*
X68309523Y-58032380D02*
X68309523Y-57032380D01*
X68690476Y-57032380D01*
X68785714Y-57080000D01*
X68833333Y-57127619D01*
X68880952Y-57222857D01*
X68880952Y-57365714D01*
X68833333Y-57460952D01*
X68785714Y-57508571D01*
X68690476Y-57556190D01*
X68309523Y-57556190D01*
X69261904Y-57127619D02*
X69309523Y-57080000D01*
X69404761Y-57032380D01*
X69642857Y-57032380D01*
X69738095Y-57080000D01*
X69785714Y-57127619D01*
X69833333Y-57222857D01*
X69833333Y-57318095D01*
X69785714Y-57460952D01*
X69214285Y-58032380D01*
X69833333Y-58032380D01*
X70785714Y-58032380D02*
X70214285Y-58032380D01*
X70500000Y-58032380D02*
X70500000Y-57032380D01*
X70404761Y-57175238D01*
X70309523Y-57270476D01*
X70214285Y-57318095D01*
X71404761Y-57032380D02*
X71500000Y-57032380D01*
X71595238Y-57080000D01*
X71642857Y-57127619D01*
X71690476Y-57222857D01*
X71738095Y-57413333D01*
X71738095Y-57651428D01*
X71690476Y-57841904D01*
X71642857Y-57937142D01*
X71595238Y-57984761D01*
X71500000Y-58032380D01*
X71404761Y-58032380D01*
X71309523Y-57984761D01*
X71261904Y-57937142D01*
X71214285Y-57841904D01*
X71166666Y-57651428D01*
X71166666Y-57413333D01*
X71214285Y-57222857D01*
X71261904Y-57127619D01*
X71309523Y-57080000D01*
X71404761Y-57032380D01*
X72119047Y-57127619D02*
X72166666Y-57080000D01*
X72261904Y-57032380D01*
X72500000Y-57032380D01*
X72595238Y-57080000D01*
X72642857Y-57127619D01*
X72690476Y-57222857D01*
X72690476Y-57318095D01*
X72642857Y-57460952D01*
X72071428Y-58032380D01*
X72690476Y-58032380D01*
X73119047Y-58032380D02*
X73119047Y-57032380D01*
X73690476Y-58032380D01*
X73690476Y-57032380D01*
%TO.C,U6*%
X113302380Y-103631904D02*
X114111904Y-103631904D01*
X114207142Y-103584285D01*
X114254761Y-103536666D01*
X114302380Y-103441428D01*
X114302380Y-103250952D01*
X114254761Y-103155714D01*
X114207142Y-103108095D01*
X114111904Y-103060476D01*
X113302380Y-103060476D01*
X113302380Y-102155714D02*
X113302380Y-102346190D01*
X113350000Y-102441428D01*
X113397619Y-102489047D01*
X113540476Y-102584285D01*
X113730952Y-102631904D01*
X114111904Y-102631904D01*
X114207142Y-102584285D01*
X114254761Y-102536666D01*
X114302380Y-102441428D01*
X114302380Y-102250952D01*
X114254761Y-102155714D01*
X114207142Y-102108095D01*
X114111904Y-102060476D01*
X113873809Y-102060476D01*
X113778571Y-102108095D01*
X113730952Y-102155714D01*
X113683333Y-102250952D01*
X113683333Y-102441428D01*
X113730952Y-102536666D01*
X113778571Y-102584285D01*
X113873809Y-102631904D01*
X106978571Y-105679523D02*
X107026190Y-105536666D01*
X107073809Y-105489047D01*
X107169047Y-105441428D01*
X107311904Y-105441428D01*
X107407142Y-105489047D01*
X107454761Y-105536666D01*
X107502380Y-105631904D01*
X107502380Y-106012857D01*
X106502380Y-106012857D01*
X106502380Y-105679523D01*
X106550000Y-105584285D01*
X106597619Y-105536666D01*
X106692857Y-105489047D01*
X106788095Y-105489047D01*
X106883333Y-105536666D01*
X106930952Y-105584285D01*
X106978571Y-105679523D01*
X106978571Y-106012857D01*
X107502380Y-105012857D02*
X106502380Y-105012857D01*
X106502380Y-104774761D01*
X106550000Y-104631904D01*
X106645238Y-104536666D01*
X106740476Y-104489047D01*
X106930952Y-104441428D01*
X107073809Y-104441428D01*
X107264285Y-104489047D01*
X107359523Y-104536666D01*
X107454761Y-104631904D01*
X107502380Y-104774761D01*
X107502380Y-105012857D01*
X106502380Y-103584285D02*
X106502380Y-103774761D01*
X106550000Y-103870000D01*
X106597619Y-103917619D01*
X106740476Y-104012857D01*
X106930952Y-104060476D01*
X107311904Y-104060476D01*
X107407142Y-104012857D01*
X107454761Y-103965238D01*
X107502380Y-103870000D01*
X107502380Y-103679523D01*
X107454761Y-103584285D01*
X107407142Y-103536666D01*
X107311904Y-103489047D01*
X107073809Y-103489047D01*
X106978571Y-103536666D01*
X106930952Y-103584285D01*
X106883333Y-103679523D01*
X106883333Y-103870000D01*
X106930952Y-103965238D01*
X106978571Y-104012857D01*
X107073809Y-104060476D01*
X106597619Y-103108095D02*
X106550000Y-103060476D01*
X106502380Y-102965238D01*
X106502380Y-102727142D01*
X106550000Y-102631904D01*
X106597619Y-102584285D01*
X106692857Y-102536666D01*
X106788095Y-102536666D01*
X106930952Y-102584285D01*
X107502380Y-103155714D01*
X107502380Y-102536666D01*
X107502380Y-101584285D02*
X107502380Y-102155714D01*
X107502380Y-101870000D02*
X106502380Y-101870000D01*
X106645238Y-101965238D01*
X106740476Y-102060476D01*
X106788095Y-102155714D01*
X106502380Y-101250952D02*
X106502380Y-100631904D01*
X106883333Y-100965238D01*
X106883333Y-100822380D01*
X106930952Y-100727142D01*
X106978571Y-100679523D01*
X107073809Y-100631904D01*
X107311904Y-100631904D01*
X107407142Y-100679523D01*
X107454761Y-100727142D01*
X107502380Y-100822380D01*
X107502380Y-101108095D01*
X107454761Y-101203333D01*
X107407142Y-101250952D01*
X106502380Y-100012857D02*
X106502380Y-99917619D01*
X106550000Y-99822380D01*
X106597619Y-99774761D01*
X106692857Y-99727142D01*
X106883333Y-99679523D01*
X107121428Y-99679523D01*
X107311904Y-99727142D01*
X107407142Y-99774761D01*
X107454761Y-99822380D01*
X107502380Y-99917619D01*
X107502380Y-100012857D01*
X107454761Y-100108095D01*
X107407142Y-100155714D01*
X107311904Y-100203333D01*
X107121428Y-100250952D01*
X106883333Y-100250952D01*
X106692857Y-100203333D01*
X106597619Y-100155714D01*
X106550000Y-100108095D01*
X106502380Y-100012857D01*
%TO.C,U10*%
X113152380Y-95618095D02*
X113961904Y-95618095D01*
X114057142Y-95570476D01*
X114104761Y-95522857D01*
X114152380Y-95427619D01*
X114152380Y-95237142D01*
X114104761Y-95141904D01*
X114057142Y-95094285D01*
X113961904Y-95046666D01*
X113152380Y-95046666D01*
X114152380Y-94046666D02*
X114152380Y-94618095D01*
X114152380Y-94332380D02*
X113152380Y-94332380D01*
X113295238Y-94427619D01*
X113390476Y-94522857D01*
X113438095Y-94618095D01*
X113152380Y-93427619D02*
X113152380Y-93332380D01*
X113200000Y-93237142D01*
X113247619Y-93189523D01*
X113342857Y-93141904D01*
X113533333Y-93094285D01*
X113771428Y-93094285D01*
X113961904Y-93141904D01*
X114057142Y-93189523D01*
X114104761Y-93237142D01*
X114152380Y-93332380D01*
X114152380Y-93427619D01*
X114104761Y-93522857D01*
X114057142Y-93570476D01*
X113961904Y-93618095D01*
X113771428Y-93665714D01*
X113533333Y-93665714D01*
X113342857Y-93618095D01*
X113247619Y-93570476D01*
X113200000Y-93522857D01*
X113152380Y-93427619D01*
X106828571Y-97189523D02*
X106876190Y-97046666D01*
X106923809Y-96999047D01*
X107019047Y-96951428D01*
X107161904Y-96951428D01*
X107257142Y-96999047D01*
X107304761Y-97046666D01*
X107352380Y-97141904D01*
X107352380Y-97522857D01*
X106352380Y-97522857D01*
X106352380Y-97189523D01*
X106400000Y-97094285D01*
X106447619Y-97046666D01*
X106542857Y-96999047D01*
X106638095Y-96999047D01*
X106733333Y-97046666D01*
X106780952Y-97094285D01*
X106828571Y-97189523D01*
X106828571Y-97522857D01*
X107352380Y-96522857D02*
X106352380Y-96522857D01*
X106352380Y-96284761D01*
X106400000Y-96141904D01*
X106495238Y-96046666D01*
X106590476Y-95999047D01*
X106780952Y-95951428D01*
X106923809Y-95951428D01*
X107114285Y-95999047D01*
X107209523Y-96046666D01*
X107304761Y-96141904D01*
X107352380Y-96284761D01*
X107352380Y-96522857D01*
X106352380Y-95094285D02*
X106352380Y-95284761D01*
X106400000Y-95380000D01*
X106447619Y-95427619D01*
X106590476Y-95522857D01*
X106780952Y-95570476D01*
X107161904Y-95570476D01*
X107257142Y-95522857D01*
X107304761Y-95475238D01*
X107352380Y-95380000D01*
X107352380Y-95189523D01*
X107304761Y-95094285D01*
X107257142Y-95046666D01*
X107161904Y-94999047D01*
X106923809Y-94999047D01*
X106828571Y-95046666D01*
X106780952Y-95094285D01*
X106733333Y-95189523D01*
X106733333Y-95380000D01*
X106780952Y-95475238D01*
X106828571Y-95522857D01*
X106923809Y-95570476D01*
X106447619Y-94618095D02*
X106400000Y-94570476D01*
X106352380Y-94475238D01*
X106352380Y-94237142D01*
X106400000Y-94141904D01*
X106447619Y-94094285D01*
X106542857Y-94046666D01*
X106638095Y-94046666D01*
X106780952Y-94094285D01*
X107352380Y-94665714D01*
X107352380Y-94046666D01*
X107352380Y-93094285D02*
X107352380Y-93665714D01*
X107352380Y-93380000D02*
X106352380Y-93380000D01*
X106495238Y-93475238D01*
X106590476Y-93570476D01*
X106638095Y-93665714D01*
X106352380Y-92760952D02*
X106352380Y-92141904D01*
X106733333Y-92475238D01*
X106733333Y-92332380D01*
X106780952Y-92237142D01*
X106828571Y-92189523D01*
X106923809Y-92141904D01*
X107161904Y-92141904D01*
X107257142Y-92189523D01*
X107304761Y-92237142D01*
X107352380Y-92332380D01*
X107352380Y-92618095D01*
X107304761Y-92713333D01*
X107257142Y-92760952D01*
X106352380Y-91522857D02*
X106352380Y-91427619D01*
X106400000Y-91332380D01*
X106447619Y-91284761D01*
X106542857Y-91237142D01*
X106733333Y-91189523D01*
X106971428Y-91189523D01*
X107161904Y-91237142D01*
X107257142Y-91284761D01*
X107304761Y-91332380D01*
X107352380Y-91427619D01*
X107352380Y-91522857D01*
X107304761Y-91618095D01*
X107257142Y-91665714D01*
X107161904Y-91713333D01*
X106971428Y-91760952D01*
X106733333Y-91760952D01*
X106542857Y-91713333D01*
X106447619Y-91665714D01*
X106400000Y-91618095D01*
X106352380Y-91522857D01*
%TO.C,C7*%
X102558333Y-101427142D02*
X102510714Y-101474761D01*
X102367857Y-101522380D01*
X102272619Y-101522380D01*
X102129761Y-101474761D01*
X102034523Y-101379523D01*
X101986904Y-101284285D01*
X101939285Y-101093809D01*
X101939285Y-100950952D01*
X101986904Y-100760476D01*
X102034523Y-100665238D01*
X102129761Y-100570000D01*
X102272619Y-100522380D01*
X102367857Y-100522380D01*
X102510714Y-100570000D01*
X102558333Y-100617619D01*
X102891666Y-100522380D02*
X103558333Y-100522380D01*
X103129761Y-101522380D01*
X101177380Y-104382380D02*
X100605952Y-104382380D01*
X100891666Y-104382380D02*
X100891666Y-103382380D01*
X100796428Y-103525238D01*
X100701190Y-103620476D01*
X100605952Y-103668095D01*
X101796428Y-103382380D02*
X101891666Y-103382380D01*
X101986904Y-103430000D01*
X102034523Y-103477619D01*
X102082142Y-103572857D01*
X102129761Y-103763333D01*
X102129761Y-104001428D01*
X102082142Y-104191904D01*
X102034523Y-104287142D01*
X101986904Y-104334761D01*
X101891666Y-104382380D01*
X101796428Y-104382380D01*
X101701190Y-104334761D01*
X101653571Y-104287142D01*
X101605952Y-104191904D01*
X101558333Y-104001428D01*
X101558333Y-103763333D01*
X101605952Y-103572857D01*
X101653571Y-103477619D01*
X101701190Y-103430000D01*
X101796428Y-103382380D01*
X102748809Y-103382380D02*
X102844047Y-103382380D01*
X102939285Y-103430000D01*
X102986904Y-103477619D01*
X103034523Y-103572857D01*
X103082142Y-103763333D01*
X103082142Y-104001428D01*
X103034523Y-104191904D01*
X102986904Y-104287142D01*
X102939285Y-104334761D01*
X102844047Y-104382380D01*
X102748809Y-104382380D01*
X102653571Y-104334761D01*
X102605952Y-104287142D01*
X102558333Y-104191904D01*
X102510714Y-104001428D01*
X102510714Y-103763333D01*
X102558333Y-103572857D01*
X102605952Y-103477619D01*
X102653571Y-103430000D01*
X102748809Y-103382380D01*
X103939285Y-103715714D02*
X103939285Y-104382380D01*
X103510714Y-103715714D02*
X103510714Y-104239523D01*
X103558333Y-104334761D01*
X103653571Y-104382380D01*
X103796428Y-104382380D01*
X103891666Y-104334761D01*
X103939285Y-104287142D01*
X104748809Y-103858571D02*
X104415476Y-103858571D01*
X104415476Y-104382380D02*
X104415476Y-103382380D01*
X104891666Y-103382380D01*
%TO.C,C8*%
X102558333Y-109927142D02*
X102510714Y-109974761D01*
X102367857Y-110022380D01*
X102272619Y-110022380D01*
X102129761Y-109974761D01*
X102034523Y-109879523D01*
X101986904Y-109784285D01*
X101939285Y-109593809D01*
X101939285Y-109450952D01*
X101986904Y-109260476D01*
X102034523Y-109165238D01*
X102129761Y-109070000D01*
X102272619Y-109022380D01*
X102367857Y-109022380D01*
X102510714Y-109070000D01*
X102558333Y-109117619D01*
X103129761Y-109450952D02*
X103034523Y-109403333D01*
X102986904Y-109355714D01*
X102939285Y-109260476D01*
X102939285Y-109212857D01*
X102986904Y-109117619D01*
X103034523Y-109070000D01*
X103129761Y-109022380D01*
X103320238Y-109022380D01*
X103415476Y-109070000D01*
X103463095Y-109117619D01*
X103510714Y-109212857D01*
X103510714Y-109260476D01*
X103463095Y-109355714D01*
X103415476Y-109403333D01*
X103320238Y-109450952D01*
X103129761Y-109450952D01*
X103034523Y-109498571D01*
X102986904Y-109546190D01*
X102939285Y-109641428D01*
X102939285Y-109831904D01*
X102986904Y-109927142D01*
X103034523Y-109974761D01*
X103129761Y-110022380D01*
X103320238Y-110022380D01*
X103415476Y-109974761D01*
X103463095Y-109927142D01*
X103510714Y-109831904D01*
X103510714Y-109641428D01*
X103463095Y-109546190D01*
X103415476Y-109498571D01*
X103320238Y-109450952D01*
X101177380Y-112882380D02*
X100605952Y-112882380D01*
X100891666Y-112882380D02*
X100891666Y-111882380D01*
X100796428Y-112025238D01*
X100701190Y-112120476D01*
X100605952Y-112168095D01*
X101796428Y-111882380D02*
X101891666Y-111882380D01*
X101986904Y-111930000D01*
X102034523Y-111977619D01*
X102082142Y-112072857D01*
X102129761Y-112263333D01*
X102129761Y-112501428D01*
X102082142Y-112691904D01*
X102034523Y-112787142D01*
X101986904Y-112834761D01*
X101891666Y-112882380D01*
X101796428Y-112882380D01*
X101701190Y-112834761D01*
X101653571Y-112787142D01*
X101605952Y-112691904D01*
X101558333Y-112501428D01*
X101558333Y-112263333D01*
X101605952Y-112072857D01*
X101653571Y-111977619D01*
X101701190Y-111930000D01*
X101796428Y-111882380D01*
X102748809Y-111882380D02*
X102844047Y-111882380D01*
X102939285Y-111930000D01*
X102986904Y-111977619D01*
X103034523Y-112072857D01*
X103082142Y-112263333D01*
X103082142Y-112501428D01*
X103034523Y-112691904D01*
X102986904Y-112787142D01*
X102939285Y-112834761D01*
X102844047Y-112882380D01*
X102748809Y-112882380D01*
X102653571Y-112834761D01*
X102605952Y-112787142D01*
X102558333Y-112691904D01*
X102510714Y-112501428D01*
X102510714Y-112263333D01*
X102558333Y-112072857D01*
X102605952Y-111977619D01*
X102653571Y-111930000D01*
X102748809Y-111882380D01*
X103939285Y-112215714D02*
X103939285Y-112882380D01*
X103510714Y-112215714D02*
X103510714Y-112739523D01*
X103558333Y-112834761D01*
X103653571Y-112882380D01*
X103796428Y-112882380D01*
X103891666Y-112834761D01*
X103939285Y-112787142D01*
X104748809Y-112358571D02*
X104415476Y-112358571D01*
X104415476Y-112882380D02*
X104415476Y-111882380D01*
X104891666Y-111882380D01*
%TO.C,C5*%
X102333333Y-84427142D02*
X102285714Y-84474761D01*
X102142857Y-84522380D01*
X102047619Y-84522380D01*
X101904761Y-84474761D01*
X101809523Y-84379523D01*
X101761904Y-84284285D01*
X101714285Y-84093809D01*
X101714285Y-83950952D01*
X101761904Y-83760476D01*
X101809523Y-83665238D01*
X101904761Y-83570000D01*
X102047619Y-83522380D01*
X102142857Y-83522380D01*
X102285714Y-83570000D01*
X102333333Y-83617619D01*
X103238095Y-83522380D02*
X102761904Y-83522380D01*
X102714285Y-83998571D01*
X102761904Y-83950952D01*
X102857142Y-83903333D01*
X103095238Y-83903333D01*
X103190476Y-83950952D01*
X103238095Y-83998571D01*
X103285714Y-84093809D01*
X103285714Y-84331904D01*
X103238095Y-84427142D01*
X103190476Y-84474761D01*
X103095238Y-84522380D01*
X102857142Y-84522380D01*
X102761904Y-84474761D01*
X102714285Y-84427142D01*
X100952380Y-87382380D02*
X100380952Y-87382380D01*
X100666666Y-87382380D02*
X100666666Y-86382380D01*
X100571428Y-86525238D01*
X100476190Y-86620476D01*
X100380952Y-86668095D01*
X101571428Y-86382380D02*
X101666666Y-86382380D01*
X101761904Y-86430000D01*
X101809523Y-86477619D01*
X101857142Y-86572857D01*
X101904761Y-86763333D01*
X101904761Y-87001428D01*
X101857142Y-87191904D01*
X101809523Y-87287142D01*
X101761904Y-87334761D01*
X101666666Y-87382380D01*
X101571428Y-87382380D01*
X101476190Y-87334761D01*
X101428571Y-87287142D01*
X101380952Y-87191904D01*
X101333333Y-87001428D01*
X101333333Y-86763333D01*
X101380952Y-86572857D01*
X101428571Y-86477619D01*
X101476190Y-86430000D01*
X101571428Y-86382380D01*
X102523809Y-86382380D02*
X102619047Y-86382380D01*
X102714285Y-86430000D01*
X102761904Y-86477619D01*
X102809523Y-86572857D01*
X102857142Y-86763333D01*
X102857142Y-87001428D01*
X102809523Y-87191904D01*
X102761904Y-87287142D01*
X102714285Y-87334761D01*
X102619047Y-87382380D01*
X102523809Y-87382380D01*
X102428571Y-87334761D01*
X102380952Y-87287142D01*
X102333333Y-87191904D01*
X102285714Y-87001428D01*
X102285714Y-86763333D01*
X102333333Y-86572857D01*
X102380952Y-86477619D01*
X102428571Y-86430000D01*
X102523809Y-86382380D01*
X103714285Y-86715714D02*
X103714285Y-87382380D01*
X103285714Y-86715714D02*
X103285714Y-87239523D01*
X103333333Y-87334761D01*
X103428571Y-87382380D01*
X103571428Y-87382380D01*
X103666666Y-87334761D01*
X103714285Y-87287142D01*
X104523809Y-86858571D02*
X104190476Y-86858571D01*
X104190476Y-87382380D02*
X104190476Y-86382380D01*
X104666666Y-86382380D01*
%TO.C,J4*%
X123502380Y-105583333D02*
X124216666Y-105583333D01*
X124359523Y-105630952D01*
X124454761Y-105726190D01*
X124502380Y-105869047D01*
X124502380Y-105964285D01*
X123835714Y-104678571D02*
X124502380Y-104678571D01*
X123454761Y-104916666D02*
X124169047Y-105154761D01*
X124169047Y-104535714D01*
X116352380Y-107559523D02*
X115352380Y-107559523D01*
X115352380Y-107178571D01*
X115400000Y-107083333D01*
X115447619Y-107035714D01*
X115542857Y-106988095D01*
X115685714Y-106988095D01*
X115780952Y-107035714D01*
X115828571Y-107083333D01*
X115876190Y-107178571D01*
X115876190Y-107559523D01*
X115685714Y-106130952D02*
X116352380Y-106130952D01*
X115685714Y-106559523D02*
X116209523Y-106559523D01*
X116304761Y-106511904D01*
X116352380Y-106416666D01*
X116352380Y-106273809D01*
X116304761Y-106178571D01*
X116257142Y-106130952D01*
X116352380Y-105654761D02*
X115685714Y-105654761D01*
X115780952Y-105654761D02*
X115733333Y-105607142D01*
X115685714Y-105511904D01*
X115685714Y-105369047D01*
X115733333Y-105273809D01*
X115828571Y-105226190D01*
X116352380Y-105226190D01*
X115828571Y-105226190D02*
X115733333Y-105178571D01*
X115685714Y-105083333D01*
X115685714Y-104940476D01*
X115733333Y-104845238D01*
X115828571Y-104797619D01*
X116352380Y-104797619D01*
X115685714Y-104321428D02*
X116685714Y-104321428D01*
X115733333Y-104321428D02*
X115685714Y-104226190D01*
X115685714Y-104035714D01*
X115733333Y-103940476D01*
X115780952Y-103892857D01*
X115876190Y-103845238D01*
X116161904Y-103845238D01*
X116257142Y-103892857D01*
X116304761Y-103940476D01*
X116352380Y-104035714D01*
X116352380Y-104226190D01*
X116304761Y-104321428D01*
X115685714Y-102988095D02*
X116352380Y-102988095D01*
X115304761Y-103226190D02*
X116019047Y-103464285D01*
X116019047Y-102845238D01*
%TO.C,R4*%
X70522380Y-54991666D02*
X70046190Y-55325000D01*
X70522380Y-55563095D02*
X69522380Y-55563095D01*
X69522380Y-55182142D01*
X69570000Y-55086904D01*
X69617619Y-55039285D01*
X69712857Y-54991666D01*
X69855714Y-54991666D01*
X69950952Y-55039285D01*
X69998571Y-55086904D01*
X70046190Y-55182142D01*
X70046190Y-55563095D01*
X69855714Y-54134523D02*
X70522380Y-54134523D01*
X69474761Y-54372619D02*
X70189047Y-54610714D01*
X70189047Y-53991666D01*
X73382380Y-55420238D02*
X73382380Y-55991666D01*
X73382380Y-55705952D02*
X72382380Y-55705952D01*
X72525238Y-55801190D01*
X72620476Y-55896428D01*
X72668095Y-55991666D01*
X72382380Y-54801190D02*
X72382380Y-54705952D01*
X72430000Y-54610714D01*
X72477619Y-54563095D01*
X72572857Y-54515476D01*
X72763333Y-54467857D01*
X73001428Y-54467857D01*
X73191904Y-54515476D01*
X73287142Y-54563095D01*
X73334761Y-54610714D01*
X73382380Y-54705952D01*
X73382380Y-54801190D01*
X73334761Y-54896428D01*
X73287142Y-54944047D01*
X73191904Y-54991666D01*
X73001428Y-55039285D01*
X72763333Y-55039285D01*
X72572857Y-54991666D01*
X72477619Y-54944047D01*
X72430000Y-54896428D01*
X72382380Y-54801190D01*
X73382380Y-54039285D02*
X72382380Y-54039285D01*
X73001428Y-53944047D02*
X73382380Y-53658333D01*
X72715714Y-53658333D02*
X73096666Y-54039285D01*
%TO.C,J5*%
X51877380Y-98833333D02*
X52591666Y-98833333D01*
X52734523Y-98880952D01*
X52829761Y-98976190D01*
X52877380Y-99119047D01*
X52877380Y-99214285D01*
X51877380Y-97880952D02*
X51877380Y-98357142D01*
X52353571Y-98404761D01*
X52305952Y-98357142D01*
X52258333Y-98261904D01*
X52258333Y-98023809D01*
X52305952Y-97928571D01*
X52353571Y-97880952D01*
X52448809Y-97833333D01*
X52686904Y-97833333D01*
X52782142Y-97880952D01*
X52829761Y-97928571D01*
X52877380Y-98023809D01*
X52877380Y-98261904D01*
X52829761Y-98357142D01*
X52782142Y-98404761D01*
X60646428Y-103309523D02*
X60646428Y-102547619D01*
X61027380Y-102928571D02*
X60265476Y-102928571D01*
X61027380Y-101547619D02*
X61027380Y-102119047D01*
X61027380Y-101833333D02*
X60027380Y-101833333D01*
X60170238Y-101928571D01*
X60265476Y-102023809D01*
X60313095Y-102119047D01*
X60122619Y-101166666D02*
X60075000Y-101119047D01*
X60027380Y-101023809D01*
X60027380Y-100785714D01*
X60075000Y-100690476D01*
X60122619Y-100642857D01*
X60217857Y-100595238D01*
X60313095Y-100595238D01*
X60455952Y-100642857D01*
X61027380Y-101214285D01*
X61027380Y-100595238D01*
X60027380Y-100309523D02*
X61027380Y-99976190D01*
X60027380Y-99642857D01*
X60075000Y-95738095D02*
X60027380Y-95833333D01*
X60027380Y-95976190D01*
X60075000Y-96119047D01*
X60170238Y-96214285D01*
X60265476Y-96261904D01*
X60455952Y-96309523D01*
X60598809Y-96309523D01*
X60789285Y-96261904D01*
X60884523Y-96214285D01*
X60979761Y-96119047D01*
X61027380Y-95976190D01*
X61027380Y-95880952D01*
X60979761Y-95738095D01*
X60932142Y-95690476D01*
X60598809Y-95690476D01*
X60598809Y-95880952D01*
X61027380Y-95261904D02*
X60027380Y-95261904D01*
X61027380Y-94690476D01*
X60027380Y-94690476D01*
X61027380Y-94214285D02*
X60027380Y-94214285D01*
X60027380Y-93976190D01*
X60075000Y-93833333D01*
X60170238Y-93738095D01*
X60265476Y-93690476D01*
X60455952Y-93642857D01*
X60598809Y-93642857D01*
X60789285Y-93690476D01*
X60884523Y-93738095D01*
X60979761Y-93833333D01*
X61027380Y-93976190D01*
X61027380Y-94214285D01*
%TO.C,U7*%
X90992095Y-48952380D02*
X90992095Y-49761904D01*
X91039714Y-49857142D01*
X91087333Y-49904761D01*
X91182571Y-49952380D01*
X91373047Y-49952380D01*
X91468285Y-49904761D01*
X91515904Y-49857142D01*
X91563523Y-49761904D01*
X91563523Y-48952380D01*
X91944476Y-48952380D02*
X92611142Y-48952380D01*
X92182571Y-49952380D01*
X85904761Y-48202380D02*
X85428571Y-48202380D01*
X85428571Y-47202380D01*
X86809523Y-48107142D02*
X86761904Y-48154761D01*
X86619047Y-48202380D01*
X86523809Y-48202380D01*
X86380952Y-48154761D01*
X86285714Y-48059523D01*
X86238095Y-47964285D01*
X86190476Y-47773809D01*
X86190476Y-47630952D01*
X86238095Y-47440476D01*
X86285714Y-47345238D01*
X86380952Y-47250000D01*
X86523809Y-47202380D01*
X86619047Y-47202380D01*
X86761904Y-47250000D01*
X86809523Y-47297619D01*
X87238095Y-48202380D02*
X87238095Y-47202380D01*
X87476190Y-47202380D01*
X87619047Y-47250000D01*
X87714285Y-47345238D01*
X87761904Y-47440476D01*
X87809523Y-47630952D01*
X87809523Y-47773809D01*
X87761904Y-47964285D01*
X87714285Y-48059523D01*
X87619047Y-48154761D01*
X87476190Y-48202380D01*
X87238095Y-48202380D01*
X88238095Y-47821428D02*
X89000000Y-47821428D01*
X89666666Y-47202380D02*
X89761904Y-47202380D01*
X89857142Y-47250000D01*
X89904761Y-47297619D01*
X89952380Y-47392857D01*
X90000000Y-47583333D01*
X90000000Y-47821428D01*
X89952380Y-48011904D01*
X89904761Y-48107142D01*
X89857142Y-48154761D01*
X89761904Y-48202380D01*
X89666666Y-48202380D01*
X89571428Y-48154761D01*
X89523809Y-48107142D01*
X89476190Y-48011904D01*
X89428571Y-47821428D01*
X89428571Y-47583333D01*
X89476190Y-47392857D01*
X89523809Y-47297619D01*
X89571428Y-47250000D01*
X89666666Y-47202380D01*
X90952380Y-48202380D02*
X90380952Y-48202380D01*
X90666666Y-48202380D02*
X90666666Y-47202380D01*
X90571428Y-47345238D01*
X90476190Y-47440476D01*
X90380952Y-47488095D01*
X91809523Y-47202380D02*
X91619047Y-47202380D01*
X91523809Y-47250000D01*
X91476190Y-47297619D01*
X91380952Y-47440476D01*
X91333333Y-47630952D01*
X91333333Y-48011904D01*
X91380952Y-48107142D01*
X91428571Y-48154761D01*
X91523809Y-48202380D01*
X91714285Y-48202380D01*
X91809523Y-48154761D01*
X91857142Y-48107142D01*
X91904761Y-48011904D01*
X91904761Y-47773809D01*
X91857142Y-47678571D01*
X91809523Y-47630952D01*
X91714285Y-47583333D01*
X91523809Y-47583333D01*
X91428571Y-47630952D01*
X91380952Y-47678571D01*
X91333333Y-47773809D01*
X92333333Y-48202380D02*
X92333333Y-47202380D01*
X92904761Y-48202380D01*
X92904761Y-47202380D01*
X93571428Y-47202380D02*
X93666666Y-47202380D01*
X93761904Y-47250000D01*
X93809523Y-47297619D01*
X93857142Y-47392857D01*
X93904761Y-47583333D01*
X93904761Y-47821428D01*
X93857142Y-48011904D01*
X93809523Y-48107142D01*
X93761904Y-48154761D01*
X93666666Y-48202380D01*
X93571428Y-48202380D01*
X93476190Y-48154761D01*
X93428571Y-48107142D01*
X93380952Y-48011904D01*
X93333333Y-47821428D01*
X93333333Y-47583333D01*
X93380952Y-47392857D01*
X93428571Y-47297619D01*
X93476190Y-47250000D01*
X93571428Y-47202380D01*
X94523809Y-47202380D02*
X94619047Y-47202380D01*
X94714285Y-47250000D01*
X94761904Y-47297619D01*
X94809523Y-47392857D01*
X94857142Y-47583333D01*
X94857142Y-47821428D01*
X94809523Y-48011904D01*
X94761904Y-48107142D01*
X94714285Y-48154761D01*
X94619047Y-48202380D01*
X94523809Y-48202380D01*
X94428571Y-48154761D01*
X94380952Y-48107142D01*
X94333333Y-48011904D01*
X94285714Y-47821428D01*
X94285714Y-47583333D01*
X94333333Y-47392857D01*
X94380952Y-47297619D01*
X94428571Y-47250000D01*
X94523809Y-47202380D01*
X95238095Y-47297619D02*
X95285714Y-47250000D01*
X95380952Y-47202380D01*
X95619047Y-47202380D01*
X95714285Y-47250000D01*
X95761904Y-47297619D01*
X95809523Y-47392857D01*
X95809523Y-47488095D01*
X95761904Y-47630952D01*
X95190476Y-48202380D01*
X95809523Y-48202380D01*
X96714285Y-48202380D02*
X96238095Y-48202380D01*
X96238095Y-47202380D01*
%TO.C,R6*%
X76272380Y-59166666D02*
X75796190Y-59500000D01*
X76272380Y-59738095D02*
X75272380Y-59738095D01*
X75272380Y-59357142D01*
X75320000Y-59261904D01*
X75367619Y-59214285D01*
X75462857Y-59166666D01*
X75605714Y-59166666D01*
X75700952Y-59214285D01*
X75748571Y-59261904D01*
X75796190Y-59357142D01*
X75796190Y-59738095D01*
X75272380Y-58309523D02*
X75272380Y-58500000D01*
X75320000Y-58595238D01*
X75367619Y-58642857D01*
X75510476Y-58738095D01*
X75700952Y-58785714D01*
X76081904Y-58785714D01*
X76177142Y-58738095D01*
X76224761Y-58690476D01*
X76272380Y-58595238D01*
X76272380Y-58404761D01*
X76224761Y-58309523D01*
X76177142Y-58261904D01*
X76081904Y-58214285D01*
X75843809Y-58214285D01*
X75748571Y-58261904D01*
X75700952Y-58309523D01*
X75653333Y-58404761D01*
X75653333Y-58595238D01*
X75700952Y-58690476D01*
X75748571Y-58738095D01*
X75843809Y-58785714D01*
%TO.C,J2*%
X123502380Y-71583333D02*
X124216666Y-71583333D01*
X124359523Y-71630952D01*
X124454761Y-71726190D01*
X124502380Y-71869047D01*
X124502380Y-71964285D01*
X123597619Y-71154761D02*
X123550000Y-71107142D01*
X123502380Y-71011904D01*
X123502380Y-70773809D01*
X123550000Y-70678571D01*
X123597619Y-70630952D01*
X123692857Y-70583333D01*
X123788095Y-70583333D01*
X123930952Y-70630952D01*
X124502380Y-71202380D01*
X124502380Y-70583333D01*
X116352380Y-73559523D02*
X115352380Y-73559523D01*
X115352380Y-73178571D01*
X115400000Y-73083333D01*
X115447619Y-73035714D01*
X115542857Y-72988095D01*
X115685714Y-72988095D01*
X115780952Y-73035714D01*
X115828571Y-73083333D01*
X115876190Y-73178571D01*
X115876190Y-73559523D01*
X115685714Y-72130952D02*
X116352380Y-72130952D01*
X115685714Y-72559523D02*
X116209523Y-72559523D01*
X116304761Y-72511904D01*
X116352380Y-72416666D01*
X116352380Y-72273809D01*
X116304761Y-72178571D01*
X116257142Y-72130952D01*
X116352380Y-71654761D02*
X115685714Y-71654761D01*
X115780952Y-71654761D02*
X115733333Y-71607142D01*
X115685714Y-71511904D01*
X115685714Y-71369047D01*
X115733333Y-71273809D01*
X115828571Y-71226190D01*
X116352380Y-71226190D01*
X115828571Y-71226190D02*
X115733333Y-71178571D01*
X115685714Y-71083333D01*
X115685714Y-70940476D01*
X115733333Y-70845238D01*
X115828571Y-70797619D01*
X116352380Y-70797619D01*
X115685714Y-70321428D02*
X116685714Y-70321428D01*
X115733333Y-70321428D02*
X115685714Y-70226190D01*
X115685714Y-70035714D01*
X115733333Y-69940476D01*
X115780952Y-69892857D01*
X115876190Y-69845238D01*
X116161904Y-69845238D01*
X116257142Y-69892857D01*
X116304761Y-69940476D01*
X116352380Y-70035714D01*
X116352380Y-70226190D01*
X116304761Y-70321428D01*
X115447619Y-69464285D02*
X115400000Y-69416666D01*
X115352380Y-69321428D01*
X115352380Y-69083333D01*
X115400000Y-68988095D01*
X115447619Y-68940476D01*
X115542857Y-68892857D01*
X115638095Y-68892857D01*
X115780952Y-68940476D01*
X116352380Y-69511904D01*
X116352380Y-68892857D01*
%TO.C,C9*%
X71333333Y-89677142D02*
X71285714Y-89724761D01*
X71142857Y-89772380D01*
X71047619Y-89772380D01*
X70904761Y-89724761D01*
X70809523Y-89629523D01*
X70761904Y-89534285D01*
X70714285Y-89343809D01*
X70714285Y-89200952D01*
X70761904Y-89010476D01*
X70809523Y-88915238D01*
X70904761Y-88820000D01*
X71047619Y-88772380D01*
X71142857Y-88772380D01*
X71285714Y-88820000D01*
X71333333Y-88867619D01*
X71809523Y-89772380D02*
X72000000Y-89772380D01*
X72095238Y-89724761D01*
X72142857Y-89677142D01*
X72238095Y-89534285D01*
X72285714Y-89343809D01*
X72285714Y-88962857D01*
X72238095Y-88867619D01*
X72190476Y-88820000D01*
X72095238Y-88772380D01*
X71904761Y-88772380D01*
X71809523Y-88820000D01*
X71761904Y-88867619D01*
X71714285Y-88962857D01*
X71714285Y-89200952D01*
X71761904Y-89296190D01*
X71809523Y-89343809D01*
X71904761Y-89391428D01*
X72095238Y-89391428D01*
X72190476Y-89343809D01*
X72238095Y-89296190D01*
X72285714Y-89200952D01*
X70428571Y-92632380D02*
X69857142Y-92632380D01*
X70142857Y-92632380D02*
X70142857Y-91632380D01*
X70047619Y-91775238D01*
X69952380Y-91870476D01*
X69857142Y-91918095D01*
X71047619Y-91632380D02*
X71142857Y-91632380D01*
X71238095Y-91680000D01*
X71285714Y-91727619D01*
X71333333Y-91822857D01*
X71380952Y-92013333D01*
X71380952Y-92251428D01*
X71333333Y-92441904D01*
X71285714Y-92537142D01*
X71238095Y-92584761D01*
X71142857Y-92632380D01*
X71047619Y-92632380D01*
X70952380Y-92584761D01*
X70904761Y-92537142D01*
X70857142Y-92441904D01*
X70809523Y-92251428D01*
X70809523Y-92013333D01*
X70857142Y-91822857D01*
X70904761Y-91727619D01*
X70952380Y-91680000D01*
X71047619Y-91632380D01*
X72238095Y-91965714D02*
X72238095Y-92632380D01*
X71809523Y-91965714D02*
X71809523Y-92489523D01*
X71857142Y-92584761D01*
X71952380Y-92632380D01*
X72095238Y-92632380D01*
X72190476Y-92584761D01*
X72238095Y-92537142D01*
X73047619Y-92108571D02*
X72714285Y-92108571D01*
X72714285Y-92632380D02*
X72714285Y-91632380D01*
X73190476Y-91632380D01*
%TO.C,C2*%
X102583333Y-58177142D02*
X102535714Y-58224761D01*
X102392857Y-58272380D01*
X102297619Y-58272380D01*
X102154761Y-58224761D01*
X102059523Y-58129523D01*
X102011904Y-58034285D01*
X101964285Y-57843809D01*
X101964285Y-57700952D01*
X102011904Y-57510476D01*
X102059523Y-57415238D01*
X102154761Y-57320000D01*
X102297619Y-57272380D01*
X102392857Y-57272380D01*
X102535714Y-57320000D01*
X102583333Y-57367619D01*
X102964285Y-57367619D02*
X103011904Y-57320000D01*
X103107142Y-57272380D01*
X103345238Y-57272380D01*
X103440476Y-57320000D01*
X103488095Y-57367619D01*
X103535714Y-57462857D01*
X103535714Y-57558095D01*
X103488095Y-57700952D01*
X102916666Y-58272380D01*
X103535714Y-58272380D01*
X101202380Y-61132380D02*
X100630952Y-61132380D01*
X100916666Y-61132380D02*
X100916666Y-60132380D01*
X100821428Y-60275238D01*
X100726190Y-60370476D01*
X100630952Y-60418095D01*
X101821428Y-60132380D02*
X101916666Y-60132380D01*
X102011904Y-60180000D01*
X102059523Y-60227619D01*
X102107142Y-60322857D01*
X102154761Y-60513333D01*
X102154761Y-60751428D01*
X102107142Y-60941904D01*
X102059523Y-61037142D01*
X102011904Y-61084761D01*
X101916666Y-61132380D01*
X101821428Y-61132380D01*
X101726190Y-61084761D01*
X101678571Y-61037142D01*
X101630952Y-60941904D01*
X101583333Y-60751428D01*
X101583333Y-60513333D01*
X101630952Y-60322857D01*
X101678571Y-60227619D01*
X101726190Y-60180000D01*
X101821428Y-60132380D01*
X102773809Y-60132380D02*
X102869047Y-60132380D01*
X102964285Y-60180000D01*
X103011904Y-60227619D01*
X103059523Y-60322857D01*
X103107142Y-60513333D01*
X103107142Y-60751428D01*
X103059523Y-60941904D01*
X103011904Y-61037142D01*
X102964285Y-61084761D01*
X102869047Y-61132380D01*
X102773809Y-61132380D01*
X102678571Y-61084761D01*
X102630952Y-61037142D01*
X102583333Y-60941904D01*
X102535714Y-60751428D01*
X102535714Y-60513333D01*
X102583333Y-60322857D01*
X102630952Y-60227619D01*
X102678571Y-60180000D01*
X102773809Y-60132380D01*
X103964285Y-60465714D02*
X103964285Y-61132380D01*
X103535714Y-60465714D02*
X103535714Y-60989523D01*
X103583333Y-61084761D01*
X103678571Y-61132380D01*
X103821428Y-61132380D01*
X103916666Y-61084761D01*
X103964285Y-61037142D01*
X104773809Y-60608571D02*
X104440476Y-60608571D01*
X104440476Y-61132380D02*
X104440476Y-60132380D01*
X104916666Y-60132380D01*
%TO.C,C4*%
X102333333Y-75427142D02*
X102285714Y-75474761D01*
X102142857Y-75522380D01*
X102047619Y-75522380D01*
X101904761Y-75474761D01*
X101809523Y-75379523D01*
X101761904Y-75284285D01*
X101714285Y-75093809D01*
X101714285Y-74950952D01*
X101761904Y-74760476D01*
X101809523Y-74665238D01*
X101904761Y-74570000D01*
X102047619Y-74522380D01*
X102142857Y-74522380D01*
X102285714Y-74570000D01*
X102333333Y-74617619D01*
X103190476Y-74855714D02*
X103190476Y-75522380D01*
X102952380Y-74474761D02*
X102714285Y-75189047D01*
X103333333Y-75189047D01*
X100952380Y-78382380D02*
X100380952Y-78382380D01*
X100666666Y-78382380D02*
X100666666Y-77382380D01*
X100571428Y-77525238D01*
X100476190Y-77620476D01*
X100380952Y-77668095D01*
X101571428Y-77382380D02*
X101666666Y-77382380D01*
X101761904Y-77430000D01*
X101809523Y-77477619D01*
X101857142Y-77572857D01*
X101904761Y-77763333D01*
X101904761Y-78001428D01*
X101857142Y-78191904D01*
X101809523Y-78287142D01*
X101761904Y-78334761D01*
X101666666Y-78382380D01*
X101571428Y-78382380D01*
X101476190Y-78334761D01*
X101428571Y-78287142D01*
X101380952Y-78191904D01*
X101333333Y-78001428D01*
X101333333Y-77763333D01*
X101380952Y-77572857D01*
X101428571Y-77477619D01*
X101476190Y-77430000D01*
X101571428Y-77382380D01*
X102523809Y-77382380D02*
X102619047Y-77382380D01*
X102714285Y-77430000D01*
X102761904Y-77477619D01*
X102809523Y-77572857D01*
X102857142Y-77763333D01*
X102857142Y-78001428D01*
X102809523Y-78191904D01*
X102761904Y-78287142D01*
X102714285Y-78334761D01*
X102619047Y-78382380D01*
X102523809Y-78382380D01*
X102428571Y-78334761D01*
X102380952Y-78287142D01*
X102333333Y-78191904D01*
X102285714Y-78001428D01*
X102285714Y-77763333D01*
X102333333Y-77572857D01*
X102380952Y-77477619D01*
X102428571Y-77430000D01*
X102523809Y-77382380D01*
X103714285Y-77715714D02*
X103714285Y-78382380D01*
X103285714Y-77715714D02*
X103285714Y-78239523D01*
X103333333Y-78334761D01*
X103428571Y-78382380D01*
X103571428Y-78382380D01*
X103666666Y-78334761D01*
X103714285Y-78287142D01*
X104523809Y-77858571D02*
X104190476Y-77858571D01*
X104190476Y-78382380D02*
X104190476Y-77382380D01*
X104666666Y-77382380D01*
%TO.C,MIC1*%
X88329380Y-61865380D02*
X88329380Y-60865380D01*
X88662714Y-61579666D01*
X88996047Y-60865380D01*
X88996047Y-61865380D01*
X89472238Y-61865380D02*
X89472238Y-60865380D01*
X90519857Y-61770142D02*
X90472238Y-61817761D01*
X90329380Y-61865380D01*
X90234142Y-61865380D01*
X90091285Y-61817761D01*
X89996047Y-61722523D01*
X89948428Y-61627285D01*
X89900809Y-61436809D01*
X89900809Y-61293952D01*
X89948428Y-61103476D01*
X89996047Y-61008238D01*
X90091285Y-60913000D01*
X90234142Y-60865380D01*
X90329380Y-60865380D01*
X90472238Y-60913000D01*
X90519857Y-60960619D01*
X91472238Y-61865380D02*
X90900809Y-61865380D01*
X91186523Y-61865380D02*
X91186523Y-60865380D01*
X91091285Y-61008238D01*
X90996047Y-61103476D01*
X90900809Y-61151095D01*
X86773809Y-57039380D02*
X86773809Y-56039380D01*
X87107142Y-56753666D01*
X87440476Y-56039380D01*
X87440476Y-57039380D01*
X87916666Y-57039380D02*
X87916666Y-56039380D01*
X88964285Y-56944142D02*
X88916666Y-56991761D01*
X88773809Y-57039380D01*
X88678571Y-57039380D01*
X88535714Y-56991761D01*
X88440476Y-56896523D01*
X88392857Y-56801285D01*
X88345238Y-56610809D01*
X88345238Y-56467952D01*
X88392857Y-56277476D01*
X88440476Y-56182238D01*
X88535714Y-56087000D01*
X88678571Y-56039380D01*
X88773809Y-56039380D01*
X88916666Y-56087000D01*
X88964285Y-56134619D01*
X89297619Y-56039380D02*
X89916666Y-56039380D01*
X89583333Y-56420333D01*
X89726190Y-56420333D01*
X89821428Y-56467952D01*
X89869047Y-56515571D01*
X89916666Y-56610809D01*
X89916666Y-56848904D01*
X89869047Y-56944142D01*
X89821428Y-56991761D01*
X89726190Y-57039380D01*
X89440476Y-57039380D01*
X89345238Y-56991761D01*
X89297619Y-56944142D01*
X90250000Y-56039380D02*
X90916666Y-56039380D01*
X90488095Y-57039380D01*
X91202380Y-56039380D02*
X91869047Y-56039380D01*
X91440476Y-57039380D01*
X92726190Y-56039380D02*
X92250000Y-56039380D01*
X92202380Y-56515571D01*
X92250000Y-56467952D01*
X92345238Y-56420333D01*
X92583333Y-56420333D01*
X92678571Y-56467952D01*
X92726190Y-56515571D01*
X92773809Y-56610809D01*
X92773809Y-56848904D01*
X92726190Y-56944142D01*
X92678571Y-56991761D01*
X92583333Y-57039380D01*
X92345238Y-57039380D01*
X92250000Y-56991761D01*
X92202380Y-56944142D01*
%TO.C,R7*%
X95583333Y-117882380D02*
X95250000Y-117406190D01*
X95011904Y-117882380D02*
X95011904Y-116882380D01*
X95392857Y-116882380D01*
X95488095Y-116930000D01*
X95535714Y-116977619D01*
X95583333Y-117072857D01*
X95583333Y-117215714D01*
X95535714Y-117310952D01*
X95488095Y-117358571D01*
X95392857Y-117406190D01*
X95011904Y-117406190D01*
X95916666Y-116882380D02*
X96583333Y-116882380D01*
X96154761Y-117882380D01*
X95154761Y-115022380D02*
X94583333Y-115022380D01*
X94869047Y-115022380D02*
X94869047Y-114022380D01*
X94773809Y-114165238D01*
X94678571Y-114260476D01*
X94583333Y-114308095D01*
X95773809Y-114022380D02*
X95869047Y-114022380D01*
X95964285Y-114070000D01*
X96011904Y-114117619D01*
X96059523Y-114212857D01*
X96107142Y-114403333D01*
X96107142Y-114641428D01*
X96059523Y-114831904D01*
X96011904Y-114927142D01*
X95964285Y-114974761D01*
X95869047Y-115022380D01*
X95773809Y-115022380D01*
X95678571Y-114974761D01*
X95630952Y-114927142D01*
X95583333Y-114831904D01*
X95535714Y-114641428D01*
X95535714Y-114403333D01*
X95583333Y-114212857D01*
X95630952Y-114117619D01*
X95678571Y-114070000D01*
X95773809Y-114022380D01*
X96535714Y-115022380D02*
X96535714Y-114022380D01*
X96630952Y-114641428D02*
X96916666Y-115022380D01*
X96916666Y-114355714D02*
X96535714Y-114736666D01*
%TO.C,C10*%
X89287142Y-64417857D02*
X89334761Y-64465476D01*
X89382380Y-64608333D01*
X89382380Y-64703571D01*
X89334761Y-64846428D01*
X89239523Y-64941666D01*
X89144285Y-64989285D01*
X88953809Y-65036904D01*
X88810952Y-65036904D01*
X88620476Y-64989285D01*
X88525238Y-64941666D01*
X88430000Y-64846428D01*
X88382380Y-64703571D01*
X88382380Y-64608333D01*
X88430000Y-64465476D01*
X88477619Y-64417857D01*
X89382380Y-63465476D02*
X89382380Y-64036904D01*
X89382380Y-63751190D02*
X88382380Y-63751190D01*
X88525238Y-63846428D01*
X88620476Y-63941666D01*
X88668095Y-64036904D01*
X88382380Y-62846428D02*
X88382380Y-62751190D01*
X88430000Y-62655952D01*
X88477619Y-62608333D01*
X88572857Y-62560714D01*
X88763333Y-62513095D01*
X89001428Y-62513095D01*
X89191904Y-62560714D01*
X89287142Y-62608333D01*
X89334761Y-62655952D01*
X89382380Y-62751190D01*
X89382380Y-62846428D01*
X89334761Y-62941666D01*
X89287142Y-62989285D01*
X89191904Y-63036904D01*
X89001428Y-63084523D01*
X88763333Y-63084523D01*
X88572857Y-63036904D01*
X88477619Y-62989285D01*
X88430000Y-62941666D01*
X88382380Y-62846428D01*
X86522380Y-65322619D02*
X86522380Y-65894047D01*
X86522380Y-65608333D02*
X85522380Y-65608333D01*
X85665238Y-65703571D01*
X85760476Y-65798809D01*
X85808095Y-65894047D01*
X85522380Y-64703571D02*
X85522380Y-64608333D01*
X85570000Y-64513095D01*
X85617619Y-64465476D01*
X85712857Y-64417857D01*
X85903333Y-64370238D01*
X86141428Y-64370238D01*
X86331904Y-64417857D01*
X86427142Y-64465476D01*
X86474761Y-64513095D01*
X86522380Y-64608333D01*
X86522380Y-64703571D01*
X86474761Y-64798809D01*
X86427142Y-64846428D01*
X86331904Y-64894047D01*
X86141428Y-64941666D01*
X85903333Y-64941666D01*
X85712857Y-64894047D01*
X85617619Y-64846428D01*
X85570000Y-64798809D01*
X85522380Y-64703571D01*
X85522380Y-63751190D02*
X85522380Y-63655952D01*
X85570000Y-63560714D01*
X85617619Y-63513095D01*
X85712857Y-63465476D01*
X85903333Y-63417857D01*
X86141428Y-63417857D01*
X86331904Y-63465476D01*
X86427142Y-63513095D01*
X86474761Y-63560714D01*
X86522380Y-63655952D01*
X86522380Y-63751190D01*
X86474761Y-63846428D01*
X86427142Y-63894047D01*
X86331904Y-63941666D01*
X86141428Y-63989285D01*
X85903333Y-63989285D01*
X85712857Y-63941666D01*
X85617619Y-63894047D01*
X85570000Y-63846428D01*
X85522380Y-63751190D01*
X85855714Y-62560714D02*
X86522380Y-62560714D01*
X85855714Y-62989285D02*
X86379523Y-62989285D01*
X86474761Y-62941666D01*
X86522380Y-62846428D01*
X86522380Y-62703571D01*
X86474761Y-62608333D01*
X86427142Y-62560714D01*
X85998571Y-61751190D02*
X85998571Y-62084523D01*
X86522380Y-62084523D02*
X85522380Y-62084523D01*
X85522380Y-61608333D01*
%TO.C,R8*%
X77083333Y-118132380D02*
X76750000Y-117656190D01*
X76511904Y-118132380D02*
X76511904Y-117132380D01*
X76892857Y-117132380D01*
X76988095Y-117180000D01*
X77035714Y-117227619D01*
X77083333Y-117322857D01*
X77083333Y-117465714D01*
X77035714Y-117560952D01*
X76988095Y-117608571D01*
X76892857Y-117656190D01*
X76511904Y-117656190D01*
X77654761Y-117560952D02*
X77559523Y-117513333D01*
X77511904Y-117465714D01*
X77464285Y-117370476D01*
X77464285Y-117322857D01*
X77511904Y-117227619D01*
X77559523Y-117180000D01*
X77654761Y-117132380D01*
X77845238Y-117132380D01*
X77940476Y-117180000D01*
X77988095Y-117227619D01*
X78035714Y-117322857D01*
X78035714Y-117370476D01*
X77988095Y-117465714D01*
X77940476Y-117513333D01*
X77845238Y-117560952D01*
X77654761Y-117560952D01*
X77559523Y-117608571D01*
X77511904Y-117656190D01*
X77464285Y-117751428D01*
X77464285Y-117941904D01*
X77511904Y-118037142D01*
X77559523Y-118084761D01*
X77654761Y-118132380D01*
X77845238Y-118132380D01*
X77940476Y-118084761D01*
X77988095Y-118037142D01*
X78035714Y-117941904D01*
X78035714Y-117751428D01*
X77988095Y-117656190D01*
X77940476Y-117608571D01*
X77845238Y-117560952D01*
X76654761Y-115272380D02*
X76083333Y-115272380D01*
X76369047Y-115272380D02*
X76369047Y-114272380D01*
X76273809Y-114415238D01*
X76178571Y-114510476D01*
X76083333Y-114558095D01*
X77273809Y-114272380D02*
X77369047Y-114272380D01*
X77464285Y-114320000D01*
X77511904Y-114367619D01*
X77559523Y-114462857D01*
X77607142Y-114653333D01*
X77607142Y-114891428D01*
X77559523Y-115081904D01*
X77511904Y-115177142D01*
X77464285Y-115224761D01*
X77369047Y-115272380D01*
X77273809Y-115272380D01*
X77178571Y-115224761D01*
X77130952Y-115177142D01*
X77083333Y-115081904D01*
X77035714Y-114891428D01*
X77035714Y-114653333D01*
X77083333Y-114462857D01*
X77130952Y-114367619D01*
X77178571Y-114320000D01*
X77273809Y-114272380D01*
X78035714Y-115272380D02*
X78035714Y-114272380D01*
X78130952Y-114891428D02*
X78416666Y-115272380D01*
X78416666Y-114605714D02*
X78035714Y-114986666D01*
%TO.C,J3*%
X123502380Y-88583333D02*
X124216666Y-88583333D01*
X124359523Y-88630952D01*
X124454761Y-88726190D01*
X124502380Y-88869047D01*
X124502380Y-88964285D01*
X123502380Y-88202380D02*
X123502380Y-87583333D01*
X123883333Y-87916666D01*
X123883333Y-87773809D01*
X123930952Y-87678571D01*
X123978571Y-87630952D01*
X124073809Y-87583333D01*
X124311904Y-87583333D01*
X124407142Y-87630952D01*
X124454761Y-87678571D01*
X124502380Y-87773809D01*
X124502380Y-88059523D01*
X124454761Y-88154761D01*
X124407142Y-88202380D01*
X116352380Y-90559523D02*
X115352380Y-90559523D01*
X115352380Y-90178571D01*
X115400000Y-90083333D01*
X115447619Y-90035714D01*
X115542857Y-89988095D01*
X115685714Y-89988095D01*
X115780952Y-90035714D01*
X115828571Y-90083333D01*
X115876190Y-90178571D01*
X115876190Y-90559523D01*
X115685714Y-89130952D02*
X116352380Y-89130952D01*
X115685714Y-89559523D02*
X116209523Y-89559523D01*
X116304761Y-89511904D01*
X116352380Y-89416666D01*
X116352380Y-89273809D01*
X116304761Y-89178571D01*
X116257142Y-89130952D01*
X116352380Y-88654761D02*
X115685714Y-88654761D01*
X115780952Y-88654761D02*
X115733333Y-88607142D01*
X115685714Y-88511904D01*
X115685714Y-88369047D01*
X115733333Y-88273809D01*
X115828571Y-88226190D01*
X116352380Y-88226190D01*
X115828571Y-88226190D02*
X115733333Y-88178571D01*
X115685714Y-88083333D01*
X115685714Y-87940476D01*
X115733333Y-87845238D01*
X115828571Y-87797619D01*
X116352380Y-87797619D01*
X115685714Y-87321428D02*
X116685714Y-87321428D01*
X115733333Y-87321428D02*
X115685714Y-87226190D01*
X115685714Y-87035714D01*
X115733333Y-86940476D01*
X115780952Y-86892857D01*
X115876190Y-86845238D01*
X116161904Y-86845238D01*
X116257142Y-86892857D01*
X116304761Y-86940476D01*
X116352380Y-87035714D01*
X116352380Y-87226190D01*
X116304761Y-87321428D01*
X115352380Y-86511904D02*
X115352380Y-85892857D01*
X115733333Y-86226190D01*
X115733333Y-86083333D01*
X115780952Y-85988095D01*
X115828571Y-85940476D01*
X115923809Y-85892857D01*
X116161904Y-85892857D01*
X116257142Y-85940476D01*
X116304761Y-85988095D01*
X116352380Y-86083333D01*
X116352380Y-86369047D01*
X116304761Y-86464285D01*
X116257142Y-86511904D01*
%TO.C,U12*%
X68336904Y-94427380D02*
X68336904Y-95236904D01*
X68384523Y-95332142D01*
X68432142Y-95379761D01*
X68527380Y-95427380D01*
X68717857Y-95427380D01*
X68813095Y-95379761D01*
X68860714Y-95332142D01*
X68908333Y-95236904D01*
X68908333Y-94427380D01*
X69908333Y-95427380D02*
X69336904Y-95427380D01*
X69622619Y-95427380D02*
X69622619Y-94427380D01*
X69527380Y-94570238D01*
X69432142Y-94665476D01*
X69336904Y-94713095D01*
X70289285Y-94522619D02*
X70336904Y-94475000D01*
X70432142Y-94427380D01*
X70670238Y-94427380D01*
X70765476Y-94475000D01*
X70813095Y-94522619D01*
X70860714Y-94617857D01*
X70860714Y-94713095D01*
X70813095Y-94855952D01*
X70241666Y-95427380D01*
X70860714Y-95427380D01*
X66265476Y-104427380D02*
X66265476Y-103427380D01*
X66598809Y-104141666D01*
X66932142Y-103427380D01*
X66932142Y-104427380D01*
X67979761Y-104332142D02*
X67932142Y-104379761D01*
X67789285Y-104427380D01*
X67694047Y-104427380D01*
X67551190Y-104379761D01*
X67455952Y-104284523D01*
X67408333Y-104189285D01*
X67360714Y-103998809D01*
X67360714Y-103855952D01*
X67408333Y-103665476D01*
X67455952Y-103570238D01*
X67551190Y-103475000D01*
X67694047Y-103427380D01*
X67789285Y-103427380D01*
X67932142Y-103475000D01*
X67979761Y-103522619D01*
X68313095Y-103427380D02*
X68979761Y-103427380D01*
X68551190Y-104427380D01*
X69503571Y-103855952D02*
X69408333Y-103808333D01*
X69360714Y-103760714D01*
X69313095Y-103665476D01*
X69313095Y-103617857D01*
X69360714Y-103522619D01*
X69408333Y-103475000D01*
X69503571Y-103427380D01*
X69694047Y-103427380D01*
X69789285Y-103475000D01*
X69836904Y-103522619D01*
X69884523Y-103617857D01*
X69884523Y-103665476D01*
X69836904Y-103760714D01*
X69789285Y-103808333D01*
X69694047Y-103855952D01*
X69503571Y-103855952D01*
X69408333Y-103903571D01*
X69360714Y-103951190D01*
X69313095Y-104046428D01*
X69313095Y-104236904D01*
X69360714Y-104332142D01*
X69408333Y-104379761D01*
X69503571Y-104427380D01*
X69694047Y-104427380D01*
X69789285Y-104379761D01*
X69836904Y-104332142D01*
X69884523Y-104236904D01*
X69884523Y-104046428D01*
X69836904Y-103951190D01*
X69789285Y-103903571D01*
X69694047Y-103855952D01*
X70313095Y-104427380D02*
X70313095Y-103427380D01*
X70646428Y-104141666D01*
X70979761Y-103427380D01*
X70979761Y-104427380D01*
X71646428Y-103427380D02*
X71741666Y-103427380D01*
X71836904Y-103475000D01*
X71884523Y-103522619D01*
X71932142Y-103617857D01*
X71979761Y-103808333D01*
X71979761Y-104046428D01*
X71932142Y-104236904D01*
X71884523Y-104332142D01*
X71836904Y-104379761D01*
X71741666Y-104427380D01*
X71646428Y-104427380D01*
X71551190Y-104379761D01*
X71503571Y-104332142D01*
X71455952Y-104236904D01*
X71408333Y-104046428D01*
X71408333Y-103808333D01*
X71455952Y-103617857D01*
X71503571Y-103522619D01*
X71551190Y-103475000D01*
X71646428Y-103427380D01*
X72884523Y-103427380D02*
X72408333Y-103427380D01*
X72360714Y-103903571D01*
X72408333Y-103855952D01*
X72503571Y-103808333D01*
X72741666Y-103808333D01*
X72836904Y-103855952D01*
X72884523Y-103903571D01*
X72932142Y-103998809D01*
X72932142Y-104236904D01*
X72884523Y-104332142D01*
X72836904Y-104379761D01*
X72741666Y-104427380D01*
X72503571Y-104427380D01*
X72408333Y-104379761D01*
X72360714Y-104332142D01*
%TO.C,U3*%
X113287380Y-51761904D02*
X114096904Y-51761904D01*
X114192142Y-51714285D01*
X114239761Y-51666666D01*
X114287380Y-51571428D01*
X114287380Y-51380952D01*
X114239761Y-51285714D01*
X114192142Y-51238095D01*
X114096904Y-51190476D01*
X113287380Y-51190476D01*
X113287380Y-50809523D02*
X113287380Y-50190476D01*
X113668333Y-50523809D01*
X113668333Y-50380952D01*
X113715952Y-50285714D01*
X113763571Y-50238095D01*
X113858809Y-50190476D01*
X114096904Y-50190476D01*
X114192142Y-50238095D01*
X114239761Y-50285714D01*
X114287380Y-50380952D01*
X114287380Y-50666666D01*
X114239761Y-50761904D01*
X114192142Y-50809523D01*
X106963571Y-53809523D02*
X107011190Y-53666666D01*
X107058809Y-53619047D01*
X107154047Y-53571428D01*
X107296904Y-53571428D01*
X107392142Y-53619047D01*
X107439761Y-53666666D01*
X107487380Y-53761904D01*
X107487380Y-54142857D01*
X106487380Y-54142857D01*
X106487380Y-53809523D01*
X106535000Y-53714285D01*
X106582619Y-53666666D01*
X106677857Y-53619047D01*
X106773095Y-53619047D01*
X106868333Y-53666666D01*
X106915952Y-53714285D01*
X106963571Y-53809523D01*
X106963571Y-54142857D01*
X107487380Y-53142857D02*
X106487380Y-53142857D01*
X106487380Y-52904761D01*
X106535000Y-52761904D01*
X106630238Y-52666666D01*
X106725476Y-52619047D01*
X106915952Y-52571428D01*
X107058809Y-52571428D01*
X107249285Y-52619047D01*
X107344523Y-52666666D01*
X107439761Y-52761904D01*
X107487380Y-52904761D01*
X107487380Y-53142857D01*
X106487380Y-51714285D02*
X106487380Y-51904761D01*
X106535000Y-52000000D01*
X106582619Y-52047619D01*
X106725476Y-52142857D01*
X106915952Y-52190476D01*
X107296904Y-52190476D01*
X107392142Y-52142857D01*
X107439761Y-52095238D01*
X107487380Y-52000000D01*
X107487380Y-51809523D01*
X107439761Y-51714285D01*
X107392142Y-51666666D01*
X107296904Y-51619047D01*
X107058809Y-51619047D01*
X106963571Y-51666666D01*
X106915952Y-51714285D01*
X106868333Y-51809523D01*
X106868333Y-52000000D01*
X106915952Y-52095238D01*
X106963571Y-52142857D01*
X107058809Y-52190476D01*
X106582619Y-51238095D02*
X106535000Y-51190476D01*
X106487380Y-51095238D01*
X106487380Y-50857142D01*
X106535000Y-50761904D01*
X106582619Y-50714285D01*
X106677857Y-50666666D01*
X106773095Y-50666666D01*
X106915952Y-50714285D01*
X107487380Y-51285714D01*
X107487380Y-50666666D01*
X107487380Y-49714285D02*
X107487380Y-50285714D01*
X107487380Y-50000000D02*
X106487380Y-50000000D01*
X106630238Y-50095238D01*
X106725476Y-50190476D01*
X106773095Y-50285714D01*
X106487380Y-49380952D02*
X106487380Y-48761904D01*
X106868333Y-49095238D01*
X106868333Y-48952380D01*
X106915952Y-48857142D01*
X106963571Y-48809523D01*
X107058809Y-48761904D01*
X107296904Y-48761904D01*
X107392142Y-48809523D01*
X107439761Y-48857142D01*
X107487380Y-48952380D01*
X107487380Y-49238095D01*
X107439761Y-49333333D01*
X107392142Y-49380952D01*
X106487380Y-48142857D02*
X106487380Y-48047619D01*
X106535000Y-47952380D01*
X106582619Y-47904761D01*
X106677857Y-47857142D01*
X106868333Y-47809523D01*
X107106428Y-47809523D01*
X107296904Y-47857142D01*
X107392142Y-47904761D01*
X107439761Y-47952380D01*
X107487380Y-48047619D01*
X107487380Y-48142857D01*
X107439761Y-48238095D01*
X107392142Y-48285714D01*
X107296904Y-48333333D01*
X107106428Y-48380952D01*
X106868333Y-48380952D01*
X106677857Y-48333333D01*
X106582619Y-48285714D01*
X106535000Y-48238095D01*
X106487380Y-48142857D01*
%TO.C,U11*%
X113302380Y-112608095D02*
X114111904Y-112608095D01*
X114207142Y-112560476D01*
X114254761Y-112512857D01*
X114302380Y-112417619D01*
X114302380Y-112227142D01*
X114254761Y-112131904D01*
X114207142Y-112084285D01*
X114111904Y-112036666D01*
X113302380Y-112036666D01*
X114302380Y-111036666D02*
X114302380Y-111608095D01*
X114302380Y-111322380D02*
X113302380Y-111322380D01*
X113445238Y-111417619D01*
X113540476Y-111512857D01*
X113588095Y-111608095D01*
X114302380Y-110084285D02*
X114302380Y-110655714D01*
X114302380Y-110370000D02*
X113302380Y-110370000D01*
X113445238Y-110465238D01*
X113540476Y-110560476D01*
X113588095Y-110655714D01*
X106978571Y-114179523D02*
X107026190Y-114036666D01*
X107073809Y-113989047D01*
X107169047Y-113941428D01*
X107311904Y-113941428D01*
X107407142Y-113989047D01*
X107454761Y-114036666D01*
X107502380Y-114131904D01*
X107502380Y-114512857D01*
X106502380Y-114512857D01*
X106502380Y-114179523D01*
X106550000Y-114084285D01*
X106597619Y-114036666D01*
X106692857Y-113989047D01*
X106788095Y-113989047D01*
X106883333Y-114036666D01*
X106930952Y-114084285D01*
X106978571Y-114179523D01*
X106978571Y-114512857D01*
X107502380Y-113512857D02*
X106502380Y-113512857D01*
X106502380Y-113274761D01*
X106550000Y-113131904D01*
X106645238Y-113036666D01*
X106740476Y-112989047D01*
X106930952Y-112941428D01*
X107073809Y-112941428D01*
X107264285Y-112989047D01*
X107359523Y-113036666D01*
X107454761Y-113131904D01*
X107502380Y-113274761D01*
X107502380Y-113512857D01*
X106502380Y-112084285D02*
X106502380Y-112274761D01*
X106550000Y-112370000D01*
X106597619Y-112417619D01*
X106740476Y-112512857D01*
X106930952Y-112560476D01*
X107311904Y-112560476D01*
X107407142Y-112512857D01*
X107454761Y-112465238D01*
X107502380Y-112370000D01*
X107502380Y-112179523D01*
X107454761Y-112084285D01*
X107407142Y-112036666D01*
X107311904Y-111989047D01*
X107073809Y-111989047D01*
X106978571Y-112036666D01*
X106930952Y-112084285D01*
X106883333Y-112179523D01*
X106883333Y-112370000D01*
X106930952Y-112465238D01*
X106978571Y-112512857D01*
X107073809Y-112560476D01*
X106597619Y-111608095D02*
X106550000Y-111560476D01*
X106502380Y-111465238D01*
X106502380Y-111227142D01*
X106550000Y-111131904D01*
X106597619Y-111084285D01*
X106692857Y-111036666D01*
X106788095Y-111036666D01*
X106930952Y-111084285D01*
X107502380Y-111655714D01*
X107502380Y-111036666D01*
X107502380Y-110084285D02*
X107502380Y-110655714D01*
X107502380Y-110370000D02*
X106502380Y-110370000D01*
X106645238Y-110465238D01*
X106740476Y-110560476D01*
X106788095Y-110655714D01*
X106502380Y-109750952D02*
X106502380Y-109131904D01*
X106883333Y-109465238D01*
X106883333Y-109322380D01*
X106930952Y-109227142D01*
X106978571Y-109179523D01*
X107073809Y-109131904D01*
X107311904Y-109131904D01*
X107407142Y-109179523D01*
X107454761Y-109227142D01*
X107502380Y-109322380D01*
X107502380Y-109608095D01*
X107454761Y-109703333D01*
X107407142Y-109750952D01*
X106502380Y-108512857D02*
X106502380Y-108417619D01*
X106550000Y-108322380D01*
X106597619Y-108274761D01*
X106692857Y-108227142D01*
X106883333Y-108179523D01*
X107121428Y-108179523D01*
X107311904Y-108227142D01*
X107407142Y-108274761D01*
X107454761Y-108322380D01*
X107502380Y-108417619D01*
X107502380Y-108512857D01*
X107454761Y-108608095D01*
X107407142Y-108655714D01*
X107311904Y-108703333D01*
X107121428Y-108750952D01*
X106883333Y-108750952D01*
X106692857Y-108703333D01*
X106597619Y-108655714D01*
X106550000Y-108608095D01*
X106502380Y-108512857D01*
%TO.C,C11*%
X62332142Y-104177142D02*
X62284523Y-104224761D01*
X62141666Y-104272380D01*
X62046428Y-104272380D01*
X61903571Y-104224761D01*
X61808333Y-104129523D01*
X61760714Y-104034285D01*
X61713095Y-103843809D01*
X61713095Y-103700952D01*
X61760714Y-103510476D01*
X61808333Y-103415238D01*
X61903571Y-103320000D01*
X62046428Y-103272380D01*
X62141666Y-103272380D01*
X62284523Y-103320000D01*
X62332142Y-103367619D01*
X63284523Y-104272380D02*
X62713095Y-104272380D01*
X62998809Y-104272380D02*
X62998809Y-103272380D01*
X62903571Y-103415238D01*
X62808333Y-103510476D01*
X62713095Y-103558095D01*
X64236904Y-104272380D02*
X63665476Y-104272380D01*
X63951190Y-104272380D02*
X63951190Y-103272380D01*
X63855952Y-103415238D01*
X63760714Y-103510476D01*
X63665476Y-103558095D01*
X61427380Y-107132380D02*
X60855952Y-107132380D01*
X61141666Y-107132380D02*
X61141666Y-106132380D01*
X61046428Y-106275238D01*
X60951190Y-106370476D01*
X60855952Y-106418095D01*
X62046428Y-106132380D02*
X62141666Y-106132380D01*
X62236904Y-106180000D01*
X62284523Y-106227619D01*
X62332142Y-106322857D01*
X62379761Y-106513333D01*
X62379761Y-106751428D01*
X62332142Y-106941904D01*
X62284523Y-107037142D01*
X62236904Y-107084761D01*
X62141666Y-107132380D01*
X62046428Y-107132380D01*
X61951190Y-107084761D01*
X61903571Y-107037142D01*
X61855952Y-106941904D01*
X61808333Y-106751428D01*
X61808333Y-106513333D01*
X61855952Y-106322857D01*
X61903571Y-106227619D01*
X61951190Y-106180000D01*
X62046428Y-106132380D01*
X62998809Y-106132380D02*
X63094047Y-106132380D01*
X63189285Y-106180000D01*
X63236904Y-106227619D01*
X63284523Y-106322857D01*
X63332142Y-106513333D01*
X63332142Y-106751428D01*
X63284523Y-106941904D01*
X63236904Y-107037142D01*
X63189285Y-107084761D01*
X63094047Y-107132380D01*
X62998809Y-107132380D01*
X62903571Y-107084761D01*
X62855952Y-107037142D01*
X62808333Y-106941904D01*
X62760714Y-106751428D01*
X62760714Y-106513333D01*
X62808333Y-106322857D01*
X62855952Y-106227619D01*
X62903571Y-106180000D01*
X62998809Y-106132380D01*
X64189285Y-106465714D02*
X64189285Y-107132380D01*
X63760714Y-106465714D02*
X63760714Y-106989523D01*
X63808333Y-107084761D01*
X63903571Y-107132380D01*
X64046428Y-107132380D01*
X64141666Y-107084761D01*
X64189285Y-107037142D01*
X64998809Y-106608571D02*
X64665476Y-106608571D01*
X64665476Y-107132380D02*
X64665476Y-106132380D01*
X65141666Y-106132380D01*
%TO.C,R5*%
X80772380Y-59166666D02*
X80296190Y-59500000D01*
X80772380Y-59738095D02*
X79772380Y-59738095D01*
X79772380Y-59357142D01*
X79820000Y-59261904D01*
X79867619Y-59214285D01*
X79962857Y-59166666D01*
X80105714Y-59166666D01*
X80200952Y-59214285D01*
X80248571Y-59261904D01*
X80296190Y-59357142D01*
X80296190Y-59738095D01*
X79772380Y-58261904D02*
X79772380Y-58738095D01*
X80248571Y-58785714D01*
X80200952Y-58738095D01*
X80153333Y-58642857D01*
X80153333Y-58404761D01*
X80200952Y-58309523D01*
X80248571Y-58261904D01*
X80343809Y-58214285D01*
X80581904Y-58214285D01*
X80677142Y-58261904D01*
X80724761Y-58309523D01*
X80772380Y-58404761D01*
X80772380Y-58642857D01*
X80724761Y-58738095D01*
X80677142Y-58785714D01*
X83632380Y-59595238D02*
X83632380Y-60166666D01*
X83632380Y-59880952D02*
X82632380Y-59880952D01*
X82775238Y-59976190D01*
X82870476Y-60071428D01*
X82918095Y-60166666D01*
X82632380Y-58976190D02*
X82632380Y-58880952D01*
X82680000Y-58785714D01*
X82727619Y-58738095D01*
X82822857Y-58690476D01*
X83013333Y-58642857D01*
X83251428Y-58642857D01*
X83441904Y-58690476D01*
X83537142Y-58738095D01*
X83584761Y-58785714D01*
X83632380Y-58880952D01*
X83632380Y-58976190D01*
X83584761Y-59071428D01*
X83537142Y-59119047D01*
X83441904Y-59166666D01*
X83251428Y-59214285D01*
X83013333Y-59214285D01*
X82822857Y-59166666D01*
X82727619Y-59119047D01*
X82680000Y-59071428D01*
X82632380Y-58976190D01*
X83632380Y-58214285D02*
X82632380Y-58214285D01*
X83251428Y-58119047D02*
X83632380Y-57833333D01*
X82965714Y-57833333D02*
X83346666Y-58214285D01*
%TO.C,R1*%
X81632380Y-102916666D02*
X81156190Y-103250000D01*
X81632380Y-103488095D02*
X80632380Y-103488095D01*
X80632380Y-103107142D01*
X80680000Y-103011904D01*
X80727619Y-102964285D01*
X80822857Y-102916666D01*
X80965714Y-102916666D01*
X81060952Y-102964285D01*
X81108571Y-103011904D01*
X81156190Y-103107142D01*
X81156190Y-103488095D01*
X81632380Y-101964285D02*
X81632380Y-102535714D01*
X81632380Y-102250000D02*
X80632380Y-102250000D01*
X80775238Y-102345238D01*
X80870476Y-102440476D01*
X80918095Y-102535714D01*
X78772380Y-103345238D02*
X78772380Y-103916666D01*
X78772380Y-103630952D02*
X77772380Y-103630952D01*
X77915238Y-103726190D01*
X78010476Y-103821428D01*
X78058095Y-103916666D01*
X77772380Y-102726190D02*
X77772380Y-102630952D01*
X77820000Y-102535714D01*
X77867619Y-102488095D01*
X77962857Y-102440476D01*
X78153333Y-102392857D01*
X78391428Y-102392857D01*
X78581904Y-102440476D01*
X78677142Y-102488095D01*
X78724761Y-102535714D01*
X78772380Y-102630952D01*
X78772380Y-102726190D01*
X78724761Y-102821428D01*
X78677142Y-102869047D01*
X78581904Y-102916666D01*
X78391428Y-102964285D01*
X78153333Y-102964285D01*
X77962857Y-102916666D01*
X77867619Y-102869047D01*
X77820000Y-102821428D01*
X77772380Y-102726190D01*
X78772380Y-101964285D02*
X77772380Y-101964285D01*
X78391428Y-101869047D02*
X78772380Y-101583333D01*
X78105714Y-101583333D02*
X78486666Y-101964285D01*
%TO.C,U5*%
X113102380Y-86511904D02*
X113911904Y-86511904D01*
X114007142Y-86464285D01*
X114054761Y-86416666D01*
X114102380Y-86321428D01*
X114102380Y-86130952D01*
X114054761Y-86035714D01*
X114007142Y-85988095D01*
X113911904Y-85940476D01*
X113102380Y-85940476D01*
X113102380Y-84988095D02*
X113102380Y-85464285D01*
X113578571Y-85511904D01*
X113530952Y-85464285D01*
X113483333Y-85369047D01*
X113483333Y-85130952D01*
X113530952Y-85035714D01*
X113578571Y-84988095D01*
X113673809Y-84940476D01*
X113911904Y-84940476D01*
X114007142Y-84988095D01*
X114054761Y-85035714D01*
X114102380Y-85130952D01*
X114102380Y-85369047D01*
X114054761Y-85464285D01*
X114007142Y-85511904D01*
X106678571Y-88809523D02*
X106726190Y-88666666D01*
X106773809Y-88619047D01*
X106869047Y-88571428D01*
X107011904Y-88571428D01*
X107107142Y-88619047D01*
X107154761Y-88666666D01*
X107202380Y-88761904D01*
X107202380Y-89142857D01*
X106202380Y-89142857D01*
X106202380Y-88809523D01*
X106250000Y-88714285D01*
X106297619Y-88666666D01*
X106392857Y-88619047D01*
X106488095Y-88619047D01*
X106583333Y-88666666D01*
X106630952Y-88714285D01*
X106678571Y-88809523D01*
X106678571Y-89142857D01*
X107202380Y-88142857D02*
X106202380Y-88142857D01*
X106202380Y-87904761D01*
X106250000Y-87761904D01*
X106345238Y-87666666D01*
X106440476Y-87619047D01*
X106630952Y-87571428D01*
X106773809Y-87571428D01*
X106964285Y-87619047D01*
X107059523Y-87666666D01*
X107154761Y-87761904D01*
X107202380Y-87904761D01*
X107202380Y-88142857D01*
X106202380Y-86714285D02*
X106202380Y-86904761D01*
X106250000Y-87000000D01*
X106297619Y-87047619D01*
X106440476Y-87142857D01*
X106630952Y-87190476D01*
X107011904Y-87190476D01*
X107107142Y-87142857D01*
X107154761Y-87095238D01*
X107202380Y-87000000D01*
X107202380Y-86809523D01*
X107154761Y-86714285D01*
X107107142Y-86666666D01*
X107011904Y-86619047D01*
X106773809Y-86619047D01*
X106678571Y-86666666D01*
X106630952Y-86714285D01*
X106583333Y-86809523D01*
X106583333Y-87000000D01*
X106630952Y-87095238D01*
X106678571Y-87142857D01*
X106773809Y-87190476D01*
X106297619Y-86238095D02*
X106250000Y-86190476D01*
X106202380Y-86095238D01*
X106202380Y-85857142D01*
X106250000Y-85761904D01*
X106297619Y-85714285D01*
X106392857Y-85666666D01*
X106488095Y-85666666D01*
X106630952Y-85714285D01*
X107202380Y-86285714D01*
X107202380Y-85666666D01*
X107202380Y-84714285D02*
X107202380Y-85285714D01*
X107202380Y-85000000D02*
X106202380Y-85000000D01*
X106345238Y-85095238D01*
X106440476Y-85190476D01*
X106488095Y-85285714D01*
X106202380Y-84380952D02*
X106202380Y-83761904D01*
X106583333Y-84095238D01*
X106583333Y-83952380D01*
X106630952Y-83857142D01*
X106678571Y-83809523D01*
X106773809Y-83761904D01*
X107011904Y-83761904D01*
X107107142Y-83809523D01*
X107154761Y-83857142D01*
X107202380Y-83952380D01*
X107202380Y-84238095D01*
X107154761Y-84333333D01*
X107107142Y-84380952D01*
X106202380Y-83142857D02*
X106202380Y-83047619D01*
X106250000Y-82952380D01*
X106297619Y-82904761D01*
X106392857Y-82857142D01*
X106583333Y-82809523D01*
X106821428Y-82809523D01*
X107011904Y-82857142D01*
X107107142Y-82904761D01*
X107154761Y-82952380D01*
X107202380Y-83047619D01*
X107202380Y-83142857D01*
X107154761Y-83238095D01*
X107107142Y-83285714D01*
X107011904Y-83333333D01*
X106821428Y-83380952D01*
X106583333Y-83380952D01*
X106392857Y-83333333D01*
X106297619Y-83285714D01*
X106250000Y-83238095D01*
X106202380Y-83142857D01*
%TO.C,U1*%
X93988095Y-80552380D02*
X93988095Y-81361904D01*
X94035714Y-81457142D01*
X94083333Y-81504761D01*
X94178571Y-81552380D01*
X94369047Y-81552380D01*
X94464285Y-81504761D01*
X94511904Y-81457142D01*
X94559523Y-81361904D01*
X94559523Y-80552380D01*
X95559523Y-81552380D02*
X94988095Y-81552380D01*
X95273809Y-81552380D02*
X95273809Y-80552380D01*
X95178571Y-80695238D01*
X95083333Y-80790476D01*
X94988095Y-80838095D01*
X91107142Y-92352380D02*
X91773809Y-92352380D01*
X91345238Y-93352380D01*
X92583333Y-92685714D02*
X92583333Y-93352380D01*
X92345238Y-92304761D02*
X92107142Y-93019047D01*
X92726190Y-93019047D01*
X93107142Y-93352380D02*
X93107142Y-92352380D01*
X93107142Y-92828571D02*
X93678571Y-92828571D01*
X93678571Y-93352380D02*
X93678571Y-92352380D01*
X94726190Y-93257142D02*
X94678571Y-93304761D01*
X94535714Y-93352380D01*
X94440476Y-93352380D01*
X94297619Y-93304761D01*
X94202380Y-93209523D01*
X94154761Y-93114285D01*
X94107142Y-92923809D01*
X94107142Y-92780952D01*
X94154761Y-92590476D01*
X94202380Y-92495238D01*
X94297619Y-92400000D01*
X94440476Y-92352380D01*
X94535714Y-92352380D01*
X94678571Y-92400000D01*
X94726190Y-92447619D01*
X95011904Y-92352380D02*
X95583333Y-92352380D01*
X95297619Y-93352380D02*
X95297619Y-92352380D01*
X95869047Y-92447619D02*
X95916666Y-92400000D01*
X96011904Y-92352380D01*
X96250000Y-92352380D01*
X96345238Y-92400000D01*
X96392857Y-92447619D01*
X96440476Y-92542857D01*
X96440476Y-92638095D01*
X96392857Y-92780952D01*
X95821428Y-93352380D01*
X96440476Y-93352380D01*
X96773809Y-92352380D02*
X97392857Y-92352380D01*
X97059523Y-92733333D01*
X97202380Y-92733333D01*
X97297619Y-92780952D01*
X97345238Y-92828571D01*
X97392857Y-92923809D01*
X97392857Y-93161904D01*
X97345238Y-93257142D01*
X97297619Y-93304761D01*
X97202380Y-93352380D01*
X96916666Y-93352380D01*
X96821428Y-93304761D01*
X96773809Y-93257142D01*
X97726190Y-92352380D02*
X98392857Y-92352380D01*
X97964285Y-93352380D01*
%TO.C,C3*%
X102583333Y-66677142D02*
X102535714Y-66724761D01*
X102392857Y-66772380D01*
X102297619Y-66772380D01*
X102154761Y-66724761D01*
X102059523Y-66629523D01*
X102011904Y-66534285D01*
X101964285Y-66343809D01*
X101964285Y-66200952D01*
X102011904Y-66010476D01*
X102059523Y-65915238D01*
X102154761Y-65820000D01*
X102297619Y-65772380D01*
X102392857Y-65772380D01*
X102535714Y-65820000D01*
X102583333Y-65867619D01*
X102916666Y-65772380D02*
X103535714Y-65772380D01*
X103202380Y-66153333D01*
X103345238Y-66153333D01*
X103440476Y-66200952D01*
X103488095Y-66248571D01*
X103535714Y-66343809D01*
X103535714Y-66581904D01*
X103488095Y-66677142D01*
X103440476Y-66724761D01*
X103345238Y-66772380D01*
X103059523Y-66772380D01*
X102964285Y-66724761D01*
X102916666Y-66677142D01*
X101202380Y-69632380D02*
X100630952Y-69632380D01*
X100916666Y-69632380D02*
X100916666Y-68632380D01*
X100821428Y-68775238D01*
X100726190Y-68870476D01*
X100630952Y-68918095D01*
X101821428Y-68632380D02*
X101916666Y-68632380D01*
X102011904Y-68680000D01*
X102059523Y-68727619D01*
X102107142Y-68822857D01*
X102154761Y-69013333D01*
X102154761Y-69251428D01*
X102107142Y-69441904D01*
X102059523Y-69537142D01*
X102011904Y-69584761D01*
X101916666Y-69632380D01*
X101821428Y-69632380D01*
X101726190Y-69584761D01*
X101678571Y-69537142D01*
X101630952Y-69441904D01*
X101583333Y-69251428D01*
X101583333Y-69013333D01*
X101630952Y-68822857D01*
X101678571Y-68727619D01*
X101726190Y-68680000D01*
X101821428Y-68632380D01*
X102773809Y-68632380D02*
X102869047Y-68632380D01*
X102964285Y-68680000D01*
X103011904Y-68727619D01*
X103059523Y-68822857D01*
X103107142Y-69013333D01*
X103107142Y-69251428D01*
X103059523Y-69441904D01*
X103011904Y-69537142D01*
X102964285Y-69584761D01*
X102869047Y-69632380D01*
X102773809Y-69632380D01*
X102678571Y-69584761D01*
X102630952Y-69537142D01*
X102583333Y-69441904D01*
X102535714Y-69251428D01*
X102535714Y-69013333D01*
X102583333Y-68822857D01*
X102630952Y-68727619D01*
X102678571Y-68680000D01*
X102773809Y-68632380D01*
X103964285Y-68965714D02*
X103964285Y-69632380D01*
X103535714Y-68965714D02*
X103535714Y-69489523D01*
X103583333Y-69584761D01*
X103678571Y-69632380D01*
X103821428Y-69632380D01*
X103916666Y-69584761D01*
X103964285Y-69537142D01*
X104773809Y-69108571D02*
X104440476Y-69108571D01*
X104440476Y-69632380D02*
X104440476Y-68632380D01*
X104916666Y-68632380D01*
%TO.C,U9*%
X113102380Y-77761904D02*
X113911904Y-77761904D01*
X114007142Y-77714285D01*
X114054761Y-77666666D01*
X114102380Y-77571428D01*
X114102380Y-77380952D01*
X114054761Y-77285714D01*
X114007142Y-77238095D01*
X113911904Y-77190476D01*
X113102380Y-77190476D01*
X114102380Y-76666666D02*
X114102380Y-76476190D01*
X114054761Y-76380952D01*
X114007142Y-76333333D01*
X113864285Y-76238095D01*
X113673809Y-76190476D01*
X113292857Y-76190476D01*
X113197619Y-76238095D01*
X113150000Y-76285714D01*
X113102380Y-76380952D01*
X113102380Y-76571428D01*
X113150000Y-76666666D01*
X113197619Y-76714285D01*
X113292857Y-76761904D01*
X113530952Y-76761904D01*
X113626190Y-76714285D01*
X113673809Y-76666666D01*
X113721428Y-76571428D01*
X113721428Y-76380952D01*
X113673809Y-76285714D01*
X113626190Y-76238095D01*
X113530952Y-76190476D01*
X106778571Y-79809523D02*
X106826190Y-79666666D01*
X106873809Y-79619047D01*
X106969047Y-79571428D01*
X107111904Y-79571428D01*
X107207142Y-79619047D01*
X107254761Y-79666666D01*
X107302380Y-79761904D01*
X107302380Y-80142857D01*
X106302380Y-80142857D01*
X106302380Y-79809523D01*
X106350000Y-79714285D01*
X106397619Y-79666666D01*
X106492857Y-79619047D01*
X106588095Y-79619047D01*
X106683333Y-79666666D01*
X106730952Y-79714285D01*
X106778571Y-79809523D01*
X106778571Y-80142857D01*
X107302380Y-79142857D02*
X106302380Y-79142857D01*
X106302380Y-78904761D01*
X106350000Y-78761904D01*
X106445238Y-78666666D01*
X106540476Y-78619047D01*
X106730952Y-78571428D01*
X106873809Y-78571428D01*
X107064285Y-78619047D01*
X107159523Y-78666666D01*
X107254761Y-78761904D01*
X107302380Y-78904761D01*
X107302380Y-79142857D01*
X106302380Y-77714285D02*
X106302380Y-77904761D01*
X106350000Y-78000000D01*
X106397619Y-78047619D01*
X106540476Y-78142857D01*
X106730952Y-78190476D01*
X107111904Y-78190476D01*
X107207142Y-78142857D01*
X107254761Y-78095238D01*
X107302380Y-78000000D01*
X107302380Y-77809523D01*
X107254761Y-77714285D01*
X107207142Y-77666666D01*
X107111904Y-77619047D01*
X106873809Y-77619047D01*
X106778571Y-77666666D01*
X106730952Y-77714285D01*
X106683333Y-77809523D01*
X106683333Y-78000000D01*
X106730952Y-78095238D01*
X106778571Y-78142857D01*
X106873809Y-78190476D01*
X106397619Y-77238095D02*
X106350000Y-77190476D01*
X106302380Y-77095238D01*
X106302380Y-76857142D01*
X106350000Y-76761904D01*
X106397619Y-76714285D01*
X106492857Y-76666666D01*
X106588095Y-76666666D01*
X106730952Y-76714285D01*
X107302380Y-77285714D01*
X107302380Y-76666666D01*
X107302380Y-75714285D02*
X107302380Y-76285714D01*
X107302380Y-76000000D02*
X106302380Y-76000000D01*
X106445238Y-76095238D01*
X106540476Y-76190476D01*
X106588095Y-76285714D01*
X106302380Y-75380952D02*
X106302380Y-74761904D01*
X106683333Y-75095238D01*
X106683333Y-74952380D01*
X106730952Y-74857142D01*
X106778571Y-74809523D01*
X106873809Y-74761904D01*
X107111904Y-74761904D01*
X107207142Y-74809523D01*
X107254761Y-74857142D01*
X107302380Y-74952380D01*
X107302380Y-75238095D01*
X107254761Y-75333333D01*
X107207142Y-75380952D01*
X106302380Y-74142857D02*
X106302380Y-74047619D01*
X106350000Y-73952380D01*
X106397619Y-73904761D01*
X106492857Y-73857142D01*
X106683333Y-73809523D01*
X106921428Y-73809523D01*
X107111904Y-73857142D01*
X107207142Y-73904761D01*
X107254761Y-73952380D01*
X107302380Y-74047619D01*
X107302380Y-74142857D01*
X107254761Y-74238095D01*
X107207142Y-74285714D01*
X107111904Y-74333333D01*
X106921428Y-74380952D01*
X106683333Y-74380952D01*
X106492857Y-74333333D01*
X106397619Y-74285714D01*
X106350000Y-74238095D01*
X106302380Y-74142857D01*
%TO.C,C1*%
X102583333Y-49427142D02*
X102535714Y-49474761D01*
X102392857Y-49522380D01*
X102297619Y-49522380D01*
X102154761Y-49474761D01*
X102059523Y-49379523D01*
X102011904Y-49284285D01*
X101964285Y-49093809D01*
X101964285Y-48950952D01*
X102011904Y-48760476D01*
X102059523Y-48665238D01*
X102154761Y-48570000D01*
X102297619Y-48522380D01*
X102392857Y-48522380D01*
X102535714Y-48570000D01*
X102583333Y-48617619D01*
X103535714Y-49522380D02*
X102964285Y-49522380D01*
X103250000Y-49522380D02*
X103250000Y-48522380D01*
X103154761Y-48665238D01*
X103059523Y-48760476D01*
X102964285Y-48808095D01*
X101202380Y-52382380D02*
X100630952Y-52382380D01*
X100916666Y-52382380D02*
X100916666Y-51382380D01*
X100821428Y-51525238D01*
X100726190Y-51620476D01*
X100630952Y-51668095D01*
X101821428Y-51382380D02*
X101916666Y-51382380D01*
X102011904Y-51430000D01*
X102059523Y-51477619D01*
X102107142Y-51572857D01*
X102154761Y-51763333D01*
X102154761Y-52001428D01*
X102107142Y-52191904D01*
X102059523Y-52287142D01*
X102011904Y-52334761D01*
X101916666Y-52382380D01*
X101821428Y-52382380D01*
X101726190Y-52334761D01*
X101678571Y-52287142D01*
X101630952Y-52191904D01*
X101583333Y-52001428D01*
X101583333Y-51763333D01*
X101630952Y-51572857D01*
X101678571Y-51477619D01*
X101726190Y-51430000D01*
X101821428Y-51382380D01*
X102773809Y-51382380D02*
X102869047Y-51382380D01*
X102964285Y-51430000D01*
X103011904Y-51477619D01*
X103059523Y-51572857D01*
X103107142Y-51763333D01*
X103107142Y-52001428D01*
X103059523Y-52191904D01*
X103011904Y-52287142D01*
X102964285Y-52334761D01*
X102869047Y-52382380D01*
X102773809Y-52382380D01*
X102678571Y-52334761D01*
X102630952Y-52287142D01*
X102583333Y-52191904D01*
X102535714Y-52001428D01*
X102535714Y-51763333D01*
X102583333Y-51572857D01*
X102630952Y-51477619D01*
X102678571Y-51430000D01*
X102773809Y-51382380D01*
X103964285Y-51715714D02*
X103964285Y-52382380D01*
X103535714Y-51715714D02*
X103535714Y-52239523D01*
X103583333Y-52334761D01*
X103678571Y-52382380D01*
X103821428Y-52382380D01*
X103916666Y-52334761D01*
X103964285Y-52287142D01*
X104773809Y-51858571D02*
X104440476Y-51858571D01*
X104440476Y-52382380D02*
X104440476Y-51382380D01*
X104916666Y-51382380D01*
%TO.C,C6*%
X102333333Y-92927142D02*
X102285714Y-92974761D01*
X102142857Y-93022380D01*
X102047619Y-93022380D01*
X101904761Y-92974761D01*
X101809523Y-92879523D01*
X101761904Y-92784285D01*
X101714285Y-92593809D01*
X101714285Y-92450952D01*
X101761904Y-92260476D01*
X101809523Y-92165238D01*
X101904761Y-92070000D01*
X102047619Y-92022380D01*
X102142857Y-92022380D01*
X102285714Y-92070000D01*
X102333333Y-92117619D01*
X103190476Y-92022380D02*
X103000000Y-92022380D01*
X102904761Y-92070000D01*
X102857142Y-92117619D01*
X102761904Y-92260476D01*
X102714285Y-92450952D01*
X102714285Y-92831904D01*
X102761904Y-92927142D01*
X102809523Y-92974761D01*
X102904761Y-93022380D01*
X103095238Y-93022380D01*
X103190476Y-92974761D01*
X103238095Y-92927142D01*
X103285714Y-92831904D01*
X103285714Y-92593809D01*
X103238095Y-92498571D01*
X103190476Y-92450952D01*
X103095238Y-92403333D01*
X102904761Y-92403333D01*
X102809523Y-92450952D01*
X102761904Y-92498571D01*
X102714285Y-92593809D01*
X100952380Y-95882380D02*
X100380952Y-95882380D01*
X100666666Y-95882380D02*
X100666666Y-94882380D01*
X100571428Y-95025238D01*
X100476190Y-95120476D01*
X100380952Y-95168095D01*
X101571428Y-94882380D02*
X101666666Y-94882380D01*
X101761904Y-94930000D01*
X101809523Y-94977619D01*
X101857142Y-95072857D01*
X101904761Y-95263333D01*
X101904761Y-95501428D01*
X101857142Y-95691904D01*
X101809523Y-95787142D01*
X101761904Y-95834761D01*
X101666666Y-95882380D01*
X101571428Y-95882380D01*
X101476190Y-95834761D01*
X101428571Y-95787142D01*
X101380952Y-95691904D01*
X101333333Y-95501428D01*
X101333333Y-95263333D01*
X101380952Y-95072857D01*
X101428571Y-94977619D01*
X101476190Y-94930000D01*
X101571428Y-94882380D01*
X102523809Y-94882380D02*
X102619047Y-94882380D01*
X102714285Y-94930000D01*
X102761904Y-94977619D01*
X102809523Y-95072857D01*
X102857142Y-95263333D01*
X102857142Y-95501428D01*
X102809523Y-95691904D01*
X102761904Y-95787142D01*
X102714285Y-95834761D01*
X102619047Y-95882380D01*
X102523809Y-95882380D01*
X102428571Y-95834761D01*
X102380952Y-95787142D01*
X102333333Y-95691904D01*
X102285714Y-95501428D01*
X102285714Y-95263333D01*
X102333333Y-95072857D01*
X102380952Y-94977619D01*
X102428571Y-94930000D01*
X102523809Y-94882380D01*
X103714285Y-95215714D02*
X103714285Y-95882380D01*
X103285714Y-95215714D02*
X103285714Y-95739523D01*
X103333333Y-95834761D01*
X103428571Y-95882380D01*
X103571428Y-95882380D01*
X103666666Y-95834761D01*
X103714285Y-95787142D01*
X104523809Y-95358571D02*
X104190476Y-95358571D01*
X104190476Y-95882380D02*
X104190476Y-94882380D01*
X104666666Y-94882380D01*
%TO.C,SW3*%
X79666666Y-91004761D02*
X79809523Y-91052380D01*
X80047619Y-91052380D01*
X80142857Y-91004761D01*
X80190476Y-90957142D01*
X80238095Y-90861904D01*
X80238095Y-90766666D01*
X80190476Y-90671428D01*
X80142857Y-90623809D01*
X80047619Y-90576190D01*
X79857142Y-90528571D01*
X79761904Y-90480952D01*
X79714285Y-90433333D01*
X79666666Y-90338095D01*
X79666666Y-90242857D01*
X79714285Y-90147619D01*
X79761904Y-90100000D01*
X79857142Y-90052380D01*
X80095238Y-90052380D01*
X80238095Y-90100000D01*
X80571428Y-90052380D02*
X80809523Y-91052380D01*
X81000000Y-90338095D01*
X81190476Y-91052380D01*
X81428571Y-90052380D01*
X81714285Y-90052380D02*
X82333333Y-90052380D01*
X82000000Y-90433333D01*
X82142857Y-90433333D01*
X82238095Y-90480952D01*
X82285714Y-90528571D01*
X82333333Y-90623809D01*
X82333333Y-90861904D01*
X82285714Y-90957142D01*
X82238095Y-91004761D01*
X82142857Y-91052380D01*
X81857142Y-91052380D01*
X81761904Y-91004761D01*
X81714285Y-90957142D01*
%TO.C,U2*%
X93988095Y-66302380D02*
X93988095Y-67111904D01*
X94035714Y-67207142D01*
X94083333Y-67254761D01*
X94178571Y-67302380D01*
X94369047Y-67302380D01*
X94464285Y-67254761D01*
X94511904Y-67207142D01*
X94559523Y-67111904D01*
X94559523Y-66302380D01*
X94988095Y-66397619D02*
X95035714Y-66350000D01*
X95130952Y-66302380D01*
X95369047Y-66302380D01*
X95464285Y-66350000D01*
X95511904Y-66397619D01*
X95559523Y-66492857D01*
X95559523Y-66588095D01*
X95511904Y-66730952D01*
X94940476Y-67302380D01*
X95559523Y-67302380D01*
X91107142Y-78102380D02*
X91773809Y-78102380D01*
X91345238Y-79102380D01*
X92583333Y-78435714D02*
X92583333Y-79102380D01*
X92345238Y-78054761D02*
X92107142Y-78769047D01*
X92726190Y-78769047D01*
X93107142Y-79102380D02*
X93107142Y-78102380D01*
X93107142Y-78578571D02*
X93678571Y-78578571D01*
X93678571Y-79102380D02*
X93678571Y-78102380D01*
X94726190Y-79007142D02*
X94678571Y-79054761D01*
X94535714Y-79102380D01*
X94440476Y-79102380D01*
X94297619Y-79054761D01*
X94202380Y-78959523D01*
X94154761Y-78864285D01*
X94107142Y-78673809D01*
X94107142Y-78530952D01*
X94154761Y-78340476D01*
X94202380Y-78245238D01*
X94297619Y-78150000D01*
X94440476Y-78102380D01*
X94535714Y-78102380D01*
X94678571Y-78150000D01*
X94726190Y-78197619D01*
X95011904Y-78102380D02*
X95583333Y-78102380D01*
X95297619Y-79102380D02*
X95297619Y-78102380D01*
X95869047Y-78197619D02*
X95916666Y-78150000D01*
X96011904Y-78102380D01*
X96250000Y-78102380D01*
X96345238Y-78150000D01*
X96392857Y-78197619D01*
X96440476Y-78292857D01*
X96440476Y-78388095D01*
X96392857Y-78530952D01*
X95821428Y-79102380D01*
X96440476Y-79102380D01*
X96773809Y-78102380D02*
X97392857Y-78102380D01*
X97059523Y-78483333D01*
X97202380Y-78483333D01*
X97297619Y-78530952D01*
X97345238Y-78578571D01*
X97392857Y-78673809D01*
X97392857Y-78911904D01*
X97345238Y-79007142D01*
X97297619Y-79054761D01*
X97202380Y-79102380D01*
X96916666Y-79102380D01*
X96821428Y-79054761D01*
X96773809Y-79007142D01*
X97726190Y-78102380D02*
X98392857Y-78102380D01*
X97964285Y-79102380D01*
%TO.C,R2*%
X73508333Y-113882380D02*
X73175000Y-113406190D01*
X72936904Y-113882380D02*
X72936904Y-112882380D01*
X73317857Y-112882380D01*
X73413095Y-112930000D01*
X73460714Y-112977619D01*
X73508333Y-113072857D01*
X73508333Y-113215714D01*
X73460714Y-113310952D01*
X73413095Y-113358571D01*
X73317857Y-113406190D01*
X72936904Y-113406190D01*
X73889285Y-112977619D02*
X73936904Y-112930000D01*
X74032142Y-112882380D01*
X74270238Y-112882380D01*
X74365476Y-112930000D01*
X74413095Y-112977619D01*
X74460714Y-113072857D01*
X74460714Y-113168095D01*
X74413095Y-113310952D01*
X73841666Y-113882380D01*
X74460714Y-113882380D01*
X73079761Y-111022380D02*
X72508333Y-111022380D01*
X72794047Y-111022380D02*
X72794047Y-110022380D01*
X72698809Y-110165238D01*
X72603571Y-110260476D01*
X72508333Y-110308095D01*
X73698809Y-110022380D02*
X73794047Y-110022380D01*
X73889285Y-110070000D01*
X73936904Y-110117619D01*
X73984523Y-110212857D01*
X74032142Y-110403333D01*
X74032142Y-110641428D01*
X73984523Y-110831904D01*
X73936904Y-110927142D01*
X73889285Y-110974761D01*
X73794047Y-111022380D01*
X73698809Y-111022380D01*
X73603571Y-110974761D01*
X73555952Y-110927142D01*
X73508333Y-110831904D01*
X73460714Y-110641428D01*
X73460714Y-110403333D01*
X73508333Y-110212857D01*
X73555952Y-110117619D01*
X73603571Y-110070000D01*
X73698809Y-110022380D01*
X74460714Y-111022380D02*
X74460714Y-110022380D01*
X74555952Y-110641428D02*
X74841666Y-111022380D01*
X74841666Y-110355714D02*
X74460714Y-110736666D01*
%TO.C,J1*%
X123502380Y-54583333D02*
X124216666Y-54583333D01*
X124359523Y-54630952D01*
X124454761Y-54726190D01*
X124502380Y-54869047D01*
X124502380Y-54964285D01*
X124502380Y-53583333D02*
X124502380Y-54154761D01*
X124502380Y-53869047D02*
X123502380Y-53869047D01*
X123645238Y-53964285D01*
X123740476Y-54059523D01*
X123788095Y-54154761D01*
X116352380Y-56559523D02*
X115352380Y-56559523D01*
X115352380Y-56178571D01*
X115400000Y-56083333D01*
X115447619Y-56035714D01*
X115542857Y-55988095D01*
X115685714Y-55988095D01*
X115780952Y-56035714D01*
X115828571Y-56083333D01*
X115876190Y-56178571D01*
X115876190Y-56559523D01*
X115685714Y-55130952D02*
X116352380Y-55130952D01*
X115685714Y-55559523D02*
X116209523Y-55559523D01*
X116304761Y-55511904D01*
X116352380Y-55416666D01*
X116352380Y-55273809D01*
X116304761Y-55178571D01*
X116257142Y-55130952D01*
X116352380Y-54654761D02*
X115685714Y-54654761D01*
X115780952Y-54654761D02*
X115733333Y-54607142D01*
X115685714Y-54511904D01*
X115685714Y-54369047D01*
X115733333Y-54273809D01*
X115828571Y-54226190D01*
X116352380Y-54226190D01*
X115828571Y-54226190D02*
X115733333Y-54178571D01*
X115685714Y-54083333D01*
X115685714Y-53940476D01*
X115733333Y-53845238D01*
X115828571Y-53797619D01*
X116352380Y-53797619D01*
X115685714Y-53321428D02*
X116685714Y-53321428D01*
X115733333Y-53321428D02*
X115685714Y-53226190D01*
X115685714Y-53035714D01*
X115733333Y-52940476D01*
X115780952Y-52892857D01*
X115876190Y-52845238D01*
X116161904Y-52845238D01*
X116257142Y-52892857D01*
X116304761Y-52940476D01*
X116352380Y-53035714D01*
X116352380Y-53226190D01*
X116304761Y-53321428D01*
X116352380Y-51892857D02*
X116352380Y-52464285D01*
X116352380Y-52178571D02*
X115352380Y-52178571D01*
X115495238Y-52273809D01*
X115590476Y-52369047D01*
X115638095Y-52464285D01*
%TO.C,Q2*%
X80904761Y-62347619D02*
X80809523Y-62300000D01*
X80714285Y-62204761D01*
X80571428Y-62061904D01*
X80476190Y-62014285D01*
X80380952Y-62014285D01*
X80428571Y-62252380D02*
X80333333Y-62204761D01*
X80238095Y-62109523D01*
X80190476Y-61919047D01*
X80190476Y-61585714D01*
X80238095Y-61395238D01*
X80333333Y-61300000D01*
X80428571Y-61252380D01*
X80619047Y-61252380D01*
X80714285Y-61300000D01*
X80809523Y-61395238D01*
X80857142Y-61585714D01*
X80857142Y-61919047D01*
X80809523Y-62109523D01*
X80714285Y-62204761D01*
X80619047Y-62252380D01*
X80428571Y-62252380D01*
X81238095Y-61347619D02*
X81285714Y-61300000D01*
X81380952Y-61252380D01*
X81619047Y-61252380D01*
X81714285Y-61300000D01*
X81761904Y-61347619D01*
X81809523Y-61442857D01*
X81809523Y-61538095D01*
X81761904Y-61680952D01*
X81190476Y-62252380D01*
X81809523Y-62252380D01*
X79142857Y-65178571D02*
X79285714Y-65226190D01*
X79333333Y-65273809D01*
X79380952Y-65369047D01*
X79380952Y-65511904D01*
X79333333Y-65607142D01*
X79285714Y-65654761D01*
X79190476Y-65702380D01*
X78809523Y-65702380D01*
X78809523Y-64702380D01*
X79142857Y-64702380D01*
X79238095Y-64750000D01*
X79285714Y-64797619D01*
X79333333Y-64892857D01*
X79333333Y-64988095D01*
X79285714Y-65083333D01*
X79238095Y-65130952D01*
X79142857Y-65178571D01*
X78809523Y-65178571D01*
X80380952Y-65607142D02*
X80333333Y-65654761D01*
X80190476Y-65702380D01*
X80095238Y-65702380D01*
X79952380Y-65654761D01*
X79857142Y-65559523D01*
X79809523Y-65464285D01*
X79761904Y-65273809D01*
X79761904Y-65130952D01*
X79809523Y-64940476D01*
X79857142Y-64845238D01*
X79952380Y-64750000D01*
X80095238Y-64702380D01*
X80190476Y-64702380D01*
X80333333Y-64750000D01*
X80380952Y-64797619D01*
X80952380Y-65130952D02*
X80857142Y-65083333D01*
X80809523Y-65035714D01*
X80761904Y-64940476D01*
X80761904Y-64892857D01*
X80809523Y-64797619D01*
X80857142Y-64750000D01*
X80952380Y-64702380D01*
X81142857Y-64702380D01*
X81238095Y-64750000D01*
X81285714Y-64797619D01*
X81333333Y-64892857D01*
X81333333Y-64940476D01*
X81285714Y-65035714D01*
X81238095Y-65083333D01*
X81142857Y-65130952D01*
X80952380Y-65130952D01*
X80857142Y-65178571D01*
X80809523Y-65226190D01*
X80761904Y-65321428D01*
X80761904Y-65511904D01*
X80809523Y-65607142D01*
X80857142Y-65654761D01*
X80952380Y-65702380D01*
X81142857Y-65702380D01*
X81238095Y-65654761D01*
X81285714Y-65607142D01*
X81333333Y-65511904D01*
X81333333Y-65321428D01*
X81285714Y-65226190D01*
X81238095Y-65178571D01*
X81142857Y-65130952D01*
X82190476Y-65035714D02*
X82190476Y-65702380D01*
X81952380Y-64654761D02*
X81714285Y-65369047D01*
X82333333Y-65369047D01*
X82619047Y-64702380D02*
X83285714Y-64702380D01*
X82857142Y-65702380D01*
%TO.C,R3*%
X75758333Y-63522380D02*
X75425000Y-63046190D01*
X75186904Y-63522380D02*
X75186904Y-62522380D01*
X75567857Y-62522380D01*
X75663095Y-62570000D01*
X75710714Y-62617619D01*
X75758333Y-62712857D01*
X75758333Y-62855714D01*
X75710714Y-62950952D01*
X75663095Y-62998571D01*
X75567857Y-63046190D01*
X75186904Y-63046190D01*
X76091666Y-62522380D02*
X76710714Y-62522380D01*
X76377380Y-62903333D01*
X76520238Y-62903333D01*
X76615476Y-62950952D01*
X76663095Y-62998571D01*
X76710714Y-63093809D01*
X76710714Y-63331904D01*
X76663095Y-63427142D01*
X76615476Y-63474761D01*
X76520238Y-63522380D01*
X76234523Y-63522380D01*
X76139285Y-63474761D01*
X76091666Y-63427142D01*
X75329761Y-66382380D02*
X74758333Y-66382380D01*
X75044047Y-66382380D02*
X75044047Y-65382380D01*
X74948809Y-65525238D01*
X74853571Y-65620476D01*
X74758333Y-65668095D01*
X75948809Y-65382380D02*
X76044047Y-65382380D01*
X76139285Y-65430000D01*
X76186904Y-65477619D01*
X76234523Y-65572857D01*
X76282142Y-65763333D01*
X76282142Y-66001428D01*
X76234523Y-66191904D01*
X76186904Y-66287142D01*
X76139285Y-66334761D01*
X76044047Y-66382380D01*
X75948809Y-66382380D01*
X75853571Y-66334761D01*
X75805952Y-66287142D01*
X75758333Y-66191904D01*
X75710714Y-66001428D01*
X75710714Y-65763333D01*
X75758333Y-65572857D01*
X75805952Y-65477619D01*
X75853571Y-65430000D01*
X75948809Y-65382380D01*
X76710714Y-66382380D02*
X76710714Y-65382380D01*
X76805952Y-66001428D02*
X77091666Y-66382380D01*
X77091666Y-65715714D02*
X76710714Y-66096666D01*
%TO.C,USB_MICRO1*%
X60552380Y-59052380D02*
X61361904Y-59052380D01*
X61457142Y-59004761D01*
X61504761Y-58957142D01*
X61552380Y-58861904D01*
X61552380Y-58671428D01*
X61504761Y-58576190D01*
X61457142Y-58528571D01*
X61361904Y-58480952D01*
X60552380Y-58480952D01*
X61504761Y-58052380D02*
X61552380Y-57909523D01*
X61552380Y-57671428D01*
X61504761Y-57576190D01*
X61457142Y-57528571D01*
X61361904Y-57480952D01*
X61266666Y-57480952D01*
X61171428Y-57528571D01*
X61123809Y-57576190D01*
X61076190Y-57671428D01*
X61028571Y-57861904D01*
X60980952Y-57957142D01*
X60933333Y-58004761D01*
X60838095Y-58052380D01*
X60742857Y-58052380D01*
X60647619Y-58004761D01*
X60600000Y-57957142D01*
X60552380Y-57861904D01*
X60552380Y-57623809D01*
X60600000Y-57480952D01*
X61028571Y-56719047D02*
X61076190Y-56576190D01*
X61123809Y-56528571D01*
X61219047Y-56480952D01*
X61361904Y-56480952D01*
X61457142Y-56528571D01*
X61504761Y-56576190D01*
X61552380Y-56671428D01*
X61552380Y-57052380D01*
X60552380Y-57052380D01*
X60552380Y-56719047D01*
X60600000Y-56623809D01*
X60647619Y-56576190D01*
X60742857Y-56528571D01*
X60838095Y-56528571D01*
X60933333Y-56576190D01*
X60980952Y-56623809D01*
X61028571Y-56719047D01*
X61028571Y-57052380D01*
X61647619Y-56290476D02*
X61647619Y-55528571D01*
X61552380Y-55290476D02*
X60552380Y-55290476D01*
X61266666Y-54957142D01*
X60552380Y-54623809D01*
X61552380Y-54623809D01*
X61552380Y-54147619D02*
X60552380Y-54147619D01*
X61457142Y-53100000D02*
X61504761Y-53147619D01*
X61552380Y-53290476D01*
X61552380Y-53385714D01*
X61504761Y-53528571D01*
X61409523Y-53623809D01*
X61314285Y-53671428D01*
X61123809Y-53719047D01*
X60980952Y-53719047D01*
X60790476Y-53671428D01*
X60695238Y-53623809D01*
X60600000Y-53528571D01*
X60552380Y-53385714D01*
X60552380Y-53290476D01*
X60600000Y-53147619D01*
X60647619Y-53100000D01*
X61552380Y-52100000D02*
X61076190Y-52433333D01*
X61552380Y-52671428D02*
X60552380Y-52671428D01*
X60552380Y-52290476D01*
X60600000Y-52195238D01*
X60647619Y-52147619D01*
X60742857Y-52100000D01*
X60885714Y-52100000D01*
X60980952Y-52147619D01*
X61028571Y-52195238D01*
X61076190Y-52290476D01*
X61076190Y-52671428D01*
X60552380Y-51480952D02*
X60552380Y-51290476D01*
X60600000Y-51195238D01*
X60695238Y-51100000D01*
X60885714Y-51052380D01*
X61219047Y-51052380D01*
X61409523Y-51100000D01*
X61504761Y-51195238D01*
X61552380Y-51290476D01*
X61552380Y-51480952D01*
X61504761Y-51576190D01*
X61409523Y-51671428D01*
X61219047Y-51719047D01*
X60885714Y-51719047D01*
X60695238Y-51671428D01*
X60600000Y-51576190D01*
X60552380Y-51480952D01*
X61552380Y-50100000D02*
X61552380Y-50671428D01*
X61552380Y-50385714D02*
X60552380Y-50385714D01*
X60695238Y-50480952D01*
X60790476Y-50576190D01*
X60838095Y-50671428D01*
%TO.C,U8*%
X113302380Y-60391904D02*
X114111904Y-60391904D01*
X114207142Y-60344285D01*
X114254761Y-60296666D01*
X114302380Y-60201428D01*
X114302380Y-60010952D01*
X114254761Y-59915714D01*
X114207142Y-59868095D01*
X114111904Y-59820476D01*
X113302380Y-59820476D01*
X113730952Y-59201428D02*
X113683333Y-59296666D01*
X113635714Y-59344285D01*
X113540476Y-59391904D01*
X113492857Y-59391904D01*
X113397619Y-59344285D01*
X113350000Y-59296666D01*
X113302380Y-59201428D01*
X113302380Y-59010952D01*
X113350000Y-58915714D01*
X113397619Y-58868095D01*
X113492857Y-58820476D01*
X113540476Y-58820476D01*
X113635714Y-58868095D01*
X113683333Y-58915714D01*
X113730952Y-59010952D01*
X113730952Y-59201428D01*
X113778571Y-59296666D01*
X113826190Y-59344285D01*
X113921428Y-59391904D01*
X114111904Y-59391904D01*
X114207142Y-59344285D01*
X114254761Y-59296666D01*
X114302380Y-59201428D01*
X114302380Y-59010952D01*
X114254761Y-58915714D01*
X114207142Y-58868095D01*
X114111904Y-58820476D01*
X113921428Y-58820476D01*
X113826190Y-58868095D01*
X113778571Y-58915714D01*
X113730952Y-59010952D01*
X106978571Y-62439523D02*
X107026190Y-62296666D01*
X107073809Y-62249047D01*
X107169047Y-62201428D01*
X107311904Y-62201428D01*
X107407142Y-62249047D01*
X107454761Y-62296666D01*
X107502380Y-62391904D01*
X107502380Y-62772857D01*
X106502380Y-62772857D01*
X106502380Y-62439523D01*
X106550000Y-62344285D01*
X106597619Y-62296666D01*
X106692857Y-62249047D01*
X106788095Y-62249047D01*
X106883333Y-62296666D01*
X106930952Y-62344285D01*
X106978571Y-62439523D01*
X106978571Y-62772857D01*
X107502380Y-61772857D02*
X106502380Y-61772857D01*
X106502380Y-61534761D01*
X106550000Y-61391904D01*
X106645238Y-61296666D01*
X106740476Y-61249047D01*
X106930952Y-61201428D01*
X107073809Y-61201428D01*
X107264285Y-61249047D01*
X107359523Y-61296666D01*
X107454761Y-61391904D01*
X107502380Y-61534761D01*
X107502380Y-61772857D01*
X106502380Y-60344285D02*
X106502380Y-60534761D01*
X106550000Y-60630000D01*
X106597619Y-60677619D01*
X106740476Y-60772857D01*
X106930952Y-60820476D01*
X107311904Y-60820476D01*
X107407142Y-60772857D01*
X107454761Y-60725238D01*
X107502380Y-60630000D01*
X107502380Y-60439523D01*
X107454761Y-60344285D01*
X107407142Y-60296666D01*
X107311904Y-60249047D01*
X107073809Y-60249047D01*
X106978571Y-60296666D01*
X106930952Y-60344285D01*
X106883333Y-60439523D01*
X106883333Y-60630000D01*
X106930952Y-60725238D01*
X106978571Y-60772857D01*
X107073809Y-60820476D01*
X106597619Y-59868095D02*
X106550000Y-59820476D01*
X106502380Y-59725238D01*
X106502380Y-59487142D01*
X106550000Y-59391904D01*
X106597619Y-59344285D01*
X106692857Y-59296666D01*
X106788095Y-59296666D01*
X106930952Y-59344285D01*
X107502380Y-59915714D01*
X107502380Y-59296666D01*
X107502380Y-58344285D02*
X107502380Y-58915714D01*
X107502380Y-58630000D02*
X106502380Y-58630000D01*
X106645238Y-58725238D01*
X106740476Y-58820476D01*
X106788095Y-58915714D01*
X106502380Y-58010952D02*
X106502380Y-57391904D01*
X106883333Y-57725238D01*
X106883333Y-57582380D01*
X106930952Y-57487142D01*
X106978571Y-57439523D01*
X107073809Y-57391904D01*
X107311904Y-57391904D01*
X107407142Y-57439523D01*
X107454761Y-57487142D01*
X107502380Y-57582380D01*
X107502380Y-57868095D01*
X107454761Y-57963333D01*
X107407142Y-58010952D01*
X106502380Y-56772857D02*
X106502380Y-56677619D01*
X106550000Y-56582380D01*
X106597619Y-56534761D01*
X106692857Y-56487142D01*
X106883333Y-56439523D01*
X107121428Y-56439523D01*
X107311904Y-56487142D01*
X107407142Y-56534761D01*
X107454761Y-56582380D01*
X107502380Y-56677619D01*
X107502380Y-56772857D01*
X107454761Y-56868095D01*
X107407142Y-56915714D01*
X107311904Y-56963333D01*
X107121428Y-57010952D01*
X106883333Y-57010952D01*
X106692857Y-56963333D01*
X106597619Y-56915714D01*
X106550000Y-56868095D01*
X106502380Y-56772857D01*
%TO.C,Q1*%
X79654761Y-50597619D02*
X79559523Y-50550000D01*
X79464285Y-50454761D01*
X79321428Y-50311904D01*
X79226190Y-50264285D01*
X79130952Y-50264285D01*
X79178571Y-50502380D02*
X79083333Y-50454761D01*
X78988095Y-50359523D01*
X78940476Y-50169047D01*
X78940476Y-49835714D01*
X78988095Y-49645238D01*
X79083333Y-49550000D01*
X79178571Y-49502380D01*
X79369047Y-49502380D01*
X79464285Y-49550000D01*
X79559523Y-49645238D01*
X79607142Y-49835714D01*
X79607142Y-50169047D01*
X79559523Y-50359523D01*
X79464285Y-50454761D01*
X79369047Y-50502380D01*
X79178571Y-50502380D01*
X80559523Y-50502380D02*
X79988095Y-50502380D01*
X80273809Y-50502380D02*
X80273809Y-49502380D01*
X80178571Y-49645238D01*
X80083333Y-49740476D01*
X79988095Y-49788095D01*
X77892857Y-53428571D02*
X78035714Y-53476190D01*
X78083333Y-53523809D01*
X78130952Y-53619047D01*
X78130952Y-53761904D01*
X78083333Y-53857142D01*
X78035714Y-53904761D01*
X77940476Y-53952380D01*
X77559523Y-53952380D01*
X77559523Y-52952380D01*
X77892857Y-52952380D01*
X77988095Y-53000000D01*
X78035714Y-53047619D01*
X78083333Y-53142857D01*
X78083333Y-53238095D01*
X78035714Y-53333333D01*
X77988095Y-53380952D01*
X77892857Y-53428571D01*
X77559523Y-53428571D01*
X79130952Y-53857142D02*
X79083333Y-53904761D01*
X78940476Y-53952380D01*
X78845238Y-53952380D01*
X78702380Y-53904761D01*
X78607142Y-53809523D01*
X78559523Y-53714285D01*
X78511904Y-53523809D01*
X78511904Y-53380952D01*
X78559523Y-53190476D01*
X78607142Y-53095238D01*
X78702380Y-53000000D01*
X78845238Y-52952380D01*
X78940476Y-52952380D01*
X79083333Y-53000000D01*
X79130952Y-53047619D01*
X79702380Y-53380952D02*
X79607142Y-53333333D01*
X79559523Y-53285714D01*
X79511904Y-53190476D01*
X79511904Y-53142857D01*
X79559523Y-53047619D01*
X79607142Y-53000000D01*
X79702380Y-52952380D01*
X79892857Y-52952380D01*
X79988095Y-53000000D01*
X80035714Y-53047619D01*
X80083333Y-53142857D01*
X80083333Y-53190476D01*
X80035714Y-53285714D01*
X79988095Y-53333333D01*
X79892857Y-53380952D01*
X79702380Y-53380952D01*
X79607142Y-53428571D01*
X79559523Y-53476190D01*
X79511904Y-53571428D01*
X79511904Y-53761904D01*
X79559523Y-53857142D01*
X79607142Y-53904761D01*
X79702380Y-53952380D01*
X79892857Y-53952380D01*
X79988095Y-53904761D01*
X80035714Y-53857142D01*
X80083333Y-53761904D01*
X80083333Y-53571428D01*
X80035714Y-53476190D01*
X79988095Y-53428571D01*
X79892857Y-53380952D01*
X80940476Y-53285714D02*
X80940476Y-53952380D01*
X80702380Y-52904761D02*
X80464285Y-53619047D01*
X81083333Y-53619047D01*
X81369047Y-52952380D02*
X82035714Y-52952380D01*
X81607142Y-53952380D01*
D11*
%TO.C,ESP32-WROOM-32D1*%
X64810000Y-86620000D02*
X64810000Y-87000000D01*
X58390000Y-86620000D02*
X58390000Y-68380000D01*
X83355000Y-68380000D02*
X84135000Y-68380000D01*
X83355000Y-86620000D02*
X84135000Y-86620000D01*
X84135000Y-86620000D02*
X84135000Y-85620000D01*
X84135000Y-68380000D02*
X84135000Y-69380000D01*
X58390000Y-86620000D02*
X64810000Y-86620000D01*
X58390000Y-68380000D02*
X64810000Y-68380000D01*
%TO.C,U4*%
X107890000Y-68380000D02*
X107890000Y-66430000D01*
X113010000Y-68380000D02*
X113010000Y-64930000D01*
X107890000Y-68380000D02*
X107890000Y-70330000D01*
X113010000Y-68380000D02*
X113010000Y-70330000D01*
%TO.C,CP1*%
X68615000Y-63990000D02*
X67890000Y-63990000D01*
X67890000Y-58770000D02*
X67890000Y-59495000D01*
X68615000Y-58770000D02*
X67890000Y-58770000D01*
X67890000Y-63990000D02*
X67890000Y-63265000D01*
X72385000Y-58770000D02*
X73110000Y-58770000D01*
X72385000Y-63990000D02*
X73110000Y-63990000D01*
X73110000Y-58770000D02*
X73110000Y-59495000D01*
%TO.C,U6*%
X107890000Y-102870000D02*
X107890000Y-104820000D01*
X113010000Y-102870000D02*
X113010000Y-99420000D01*
X113010000Y-102870000D02*
X113010000Y-104820000D01*
X107890000Y-102870000D02*
X107890000Y-100920000D01*
%TO.C,U10*%
X112860000Y-94380000D02*
X112860000Y-90930000D01*
X107740000Y-94380000D02*
X107740000Y-92430000D01*
X112860000Y-94380000D02*
X112860000Y-96330000D01*
X107740000Y-94380000D02*
X107740000Y-96330000D01*
%TO.C,C7*%
X102584420Y-103010000D02*
X102865580Y-103010000D01*
X102584420Y-101990000D02*
X102865580Y-101990000D01*
%TO.C,C8*%
X102584420Y-110490000D02*
X102865580Y-110490000D01*
X102584420Y-111510000D02*
X102865580Y-111510000D01*
%TO.C,C5*%
X102359420Y-84990000D02*
X102640580Y-84990000D01*
X102359420Y-86010000D02*
X102640580Y-86010000D01*
%TO.C,J4*%
X122200000Y-98950000D02*
X122200000Y-100750000D01*
X120700000Y-111550000D02*
X120700000Y-110800000D01*
X122200000Y-109750000D02*
X122200000Y-111550000D01*
X122950000Y-111550000D02*
X122950000Y-109750000D01*
X122960000Y-111560000D02*
X122960000Y-98940000D01*
X122200000Y-100750000D02*
X122950000Y-100750000D01*
X120700000Y-99700000D02*
X117750000Y-99700000D01*
X122950000Y-102250000D02*
X122200000Y-102250000D01*
X120700000Y-110800000D02*
X117750000Y-110800000D01*
X122960000Y-98940000D02*
X116990000Y-98940000D01*
X122200000Y-102250000D02*
X122200000Y-108250000D01*
X123250000Y-98650000D02*
X122000000Y-98650000D01*
X117750000Y-99700000D02*
X117750000Y-105250000D01*
X120700000Y-98950000D02*
X120700000Y-99700000D01*
X116990000Y-98940000D02*
X116990000Y-111560000D01*
X122950000Y-98950000D02*
X122200000Y-98950000D01*
X122950000Y-109750000D02*
X122200000Y-109750000D01*
X116990000Y-111560000D02*
X122960000Y-111560000D01*
X122200000Y-111550000D02*
X122950000Y-111550000D01*
X122950000Y-100750000D02*
X122950000Y-98950000D01*
X117750000Y-110800000D02*
X117750000Y-105250000D01*
X122200000Y-108250000D02*
X122950000Y-108250000D01*
X122950000Y-108250000D02*
X122950000Y-102250000D01*
X123250000Y-99900000D02*
X123250000Y-98650000D01*
%TO.C,R4*%
X70977500Y-55062258D02*
X70977500Y-54587742D01*
X72022500Y-55062258D02*
X72022500Y-54587742D01*
%TO.C,J5*%
X53225000Y-101350000D02*
X53225000Y-102600000D01*
X54275000Y-98000000D02*
X53525000Y-98000000D01*
X58725000Y-101550000D02*
X58725000Y-98500000D01*
X55775000Y-102300000D02*
X55775000Y-101550000D01*
X58725000Y-95450000D02*
X58725000Y-98500000D01*
X55775000Y-94700000D02*
X55775000Y-95450000D01*
X55775000Y-101550000D02*
X58725000Y-101550000D01*
X59485000Y-102310000D02*
X59485000Y-94690000D01*
X55775000Y-95450000D02*
X58725000Y-95450000D01*
X53525000Y-94700000D02*
X53525000Y-96500000D01*
X54275000Y-94700000D02*
X53525000Y-94700000D01*
X54275000Y-100500000D02*
X53525000Y-100500000D01*
X53525000Y-98000000D02*
X53525000Y-99000000D01*
X54275000Y-96500000D02*
X54275000Y-94700000D01*
X59485000Y-94690000D02*
X53515000Y-94690000D01*
X53515000Y-102310000D02*
X59485000Y-102310000D01*
X53525000Y-96500000D02*
X54275000Y-96500000D01*
X53225000Y-102600000D02*
X54475000Y-102600000D01*
X53515000Y-94690000D02*
X53515000Y-102310000D01*
X53525000Y-99000000D02*
X54275000Y-99000000D01*
X53525000Y-102300000D02*
X54275000Y-102300000D01*
X54275000Y-102300000D02*
X54275000Y-100500000D01*
X53525000Y-100500000D02*
X53525000Y-102300000D01*
X54275000Y-99000000D02*
X54275000Y-98000000D01*
%TO.C,U7*%
X67280000Y-46330000D02*
X67280000Y-45000000D01*
X69880000Y-46330000D02*
X69880000Y-43670000D01*
X68610000Y-46330000D02*
X67280000Y-46330000D01*
X69880000Y-46330000D02*
X113120000Y-46330000D01*
X113120000Y-46330000D02*
X113120000Y-43670000D01*
X69880000Y-43670000D02*
X113120000Y-43670000D01*
%TO.C,R6*%
X76727500Y-59237258D02*
X76727500Y-58762742D01*
X77772500Y-59237258D02*
X77772500Y-58762742D01*
%TO.C,J2*%
X117750000Y-65700000D02*
X117750000Y-71250000D01*
X116990000Y-77560000D02*
X122960000Y-77560000D01*
X122960000Y-64940000D02*
X116990000Y-64940000D01*
X120700000Y-77550000D02*
X120700000Y-76800000D01*
X123250000Y-65900000D02*
X123250000Y-64650000D01*
X122950000Y-74250000D02*
X122950000Y-68250000D01*
X122200000Y-77550000D02*
X122950000Y-77550000D01*
X122950000Y-64950000D02*
X122200000Y-64950000D01*
X120700000Y-65700000D02*
X117750000Y-65700000D01*
X122950000Y-77550000D02*
X122950000Y-75750000D01*
X123250000Y-64650000D02*
X122000000Y-64650000D01*
X122960000Y-77560000D02*
X122960000Y-64940000D01*
X117750000Y-76800000D02*
X117750000Y-71250000D01*
X120700000Y-76800000D02*
X117750000Y-76800000D01*
X122950000Y-75750000D02*
X122200000Y-75750000D01*
X120700000Y-64950000D02*
X120700000Y-65700000D01*
X116990000Y-64940000D02*
X116990000Y-77560000D01*
X122200000Y-74250000D02*
X122950000Y-74250000D01*
X122200000Y-75750000D02*
X122200000Y-77550000D01*
X122950000Y-66750000D02*
X122950000Y-64950000D01*
X122200000Y-68250000D02*
X122200000Y-74250000D01*
X122200000Y-64950000D02*
X122200000Y-66750000D01*
X122950000Y-68250000D02*
X122200000Y-68250000D01*
X122200000Y-66750000D02*
X122950000Y-66750000D01*
%TO.C,C9*%
X71359420Y-91260000D02*
X71640580Y-91260000D01*
X71359420Y-90240000D02*
X71640580Y-90240000D01*
%TO.C,C2*%
X102609420Y-59760000D02*
X102890580Y-59760000D01*
X102609420Y-58740000D02*
X102890580Y-58740000D01*
%TO.C,C4*%
X102359420Y-77010000D02*
X102640580Y-77010000D01*
X102359420Y-75990000D02*
X102640580Y-75990000D01*
%TO.C,MIC1*%
X89745000Y-60638000D02*
X88245000Y-60638000D01*
X89745000Y-60638000D02*
X91245000Y-60638000D01*
X89040605Y-57984000D02*
G75*
G03*
X89040605Y-57984000I-179605J0D01*
G01*
%TO.C,R7*%
X95987258Y-116522500D02*
X95512742Y-116522500D01*
X95987258Y-115477500D02*
X95512742Y-115477500D01*
%TO.C,C10*%
X86990000Y-63634420D02*
X86990000Y-63915580D01*
X88010000Y-63634420D02*
X88010000Y-63915580D01*
%TO.C,R8*%
X77487258Y-115727500D02*
X77012742Y-115727500D01*
X77487258Y-116772500D02*
X77012742Y-116772500D01*
%TO.C,J3*%
X120700000Y-82700000D02*
X117750000Y-82700000D01*
X116990000Y-81940000D02*
X116990000Y-94560000D01*
X120700000Y-81950000D02*
X120700000Y-82700000D01*
X120700000Y-93800000D02*
X117750000Y-93800000D01*
X122200000Y-92750000D02*
X122200000Y-94550000D01*
X122960000Y-94560000D02*
X122960000Y-81940000D01*
X122960000Y-81940000D02*
X116990000Y-81940000D01*
X122950000Y-92750000D02*
X122200000Y-92750000D01*
X122950000Y-81950000D02*
X122200000Y-81950000D01*
X117750000Y-93800000D02*
X117750000Y-88250000D01*
X122200000Y-94550000D02*
X122950000Y-94550000D01*
X122950000Y-85250000D02*
X122200000Y-85250000D01*
X122200000Y-91250000D02*
X122950000Y-91250000D01*
X122950000Y-91250000D02*
X122950000Y-85250000D01*
X122200000Y-85250000D02*
X122200000Y-91250000D01*
X116990000Y-94560000D02*
X122960000Y-94560000D01*
X120700000Y-94550000D02*
X120700000Y-93800000D01*
X123250000Y-81650000D02*
X122000000Y-81650000D01*
X122950000Y-83750000D02*
X122950000Y-81950000D01*
X117750000Y-82700000D02*
X117750000Y-88250000D01*
X122200000Y-81950000D02*
X122200000Y-83750000D01*
X122200000Y-83750000D02*
X122950000Y-83750000D01*
X123250000Y-82900000D02*
X123250000Y-81650000D01*
X122950000Y-94550000D02*
X122950000Y-92750000D01*
%TO.C,U12*%
X68605000Y-96025000D02*
X67105000Y-96025000D01*
X67105000Y-96295000D02*
X64275000Y-96295000D01*
X68605000Y-102925000D02*
X67105000Y-102925000D01*
X67105000Y-96025000D02*
X67105000Y-96295000D01*
X67105000Y-102925000D02*
X67105000Y-102655000D01*
X67105000Y-102655000D02*
X66005000Y-102655000D01*
%TO.C,U3*%
X107875000Y-51000000D02*
X107875000Y-52950000D01*
X107875000Y-51000000D02*
X107875000Y-49050000D01*
X112995000Y-51000000D02*
X112995000Y-52950000D01*
X112995000Y-51000000D02*
X112995000Y-47550000D01*
%TO.C,U11*%
X107890000Y-111370000D02*
X107890000Y-109420000D01*
X107890000Y-111370000D02*
X107890000Y-113320000D01*
X113010000Y-111370000D02*
X113010000Y-113320000D01*
X113010000Y-111370000D02*
X113010000Y-107920000D01*
%TO.C,C11*%
X62834420Y-104740000D02*
X63115580Y-104740000D01*
X62834420Y-105760000D02*
X63115580Y-105760000D01*
%TO.C,R5*%
X81227500Y-59237258D02*
X81227500Y-58762742D01*
X82272500Y-59237258D02*
X82272500Y-58762742D01*
%TO.C,R1*%
X80272500Y-102512742D02*
X80272500Y-102987258D01*
X79227500Y-102512742D02*
X79227500Y-102987258D01*
%TO.C,U5*%
X107690000Y-85750000D02*
X107690000Y-87700000D01*
X107690000Y-85750000D02*
X107690000Y-83800000D01*
X112810000Y-85750000D02*
X112810000Y-87700000D01*
X112810000Y-85750000D02*
X112810000Y-82300000D01*
%TO.C,U1*%
X94750000Y-81940000D02*
X91300000Y-81940000D01*
X94750000Y-81940000D02*
X96700000Y-81940000D01*
X94750000Y-92060000D02*
X92800000Y-92060000D01*
X94750000Y-92060000D02*
X96700000Y-92060000D01*
%TO.C,C3*%
X102609420Y-67240000D02*
X102890580Y-67240000D01*
X102609420Y-68260000D02*
X102890580Y-68260000D01*
%TO.C,U9*%
X112810000Y-77000000D02*
X112810000Y-78950000D01*
X107690000Y-77000000D02*
X107690000Y-75050000D01*
X107690000Y-77000000D02*
X107690000Y-78950000D01*
X112810000Y-77000000D02*
X112810000Y-73550000D01*
%TO.C,C1*%
X102609420Y-51010000D02*
X102890580Y-51010000D01*
X102609420Y-49990000D02*
X102890580Y-49990000D01*
%TO.C,C6*%
X102359420Y-94510000D02*
X102640580Y-94510000D01*
X102359420Y-93490000D02*
X102640580Y-93490000D01*
%TO.C,SW3*%
X84150000Y-91400000D02*
X84150000Y-91850000D01*
X77850000Y-97600000D02*
X84150000Y-97600000D01*
X77850000Y-95850000D02*
X77850000Y-93150000D01*
X77850000Y-91850000D02*
X77850000Y-91400000D01*
X77850000Y-97150000D02*
X77850000Y-97600000D01*
X77850000Y-91400000D02*
X84150000Y-91400000D01*
X84150000Y-93150000D02*
X84150000Y-95850000D01*
X84150000Y-97600000D02*
X84150000Y-97200000D01*
%TO.C,U2*%
X94750000Y-67690000D02*
X96700000Y-67690000D01*
X94750000Y-77810000D02*
X96700000Y-77810000D01*
X94750000Y-77810000D02*
X92800000Y-77810000D01*
X94750000Y-67690000D02*
X91300000Y-67690000D01*
%TO.C,R2*%
X73912258Y-111477500D02*
X73437742Y-111477500D01*
X73912258Y-112522500D02*
X73437742Y-112522500D01*
%TO.C,J1*%
X120700000Y-48700000D02*
X117750000Y-48700000D01*
X122950000Y-60550000D02*
X122950000Y-58750000D01*
X120700000Y-47950000D02*
X120700000Y-48700000D01*
X122950000Y-58750000D02*
X122200000Y-58750000D01*
X123250000Y-47650000D02*
X122000000Y-47650000D01*
X120700000Y-59800000D02*
X117750000Y-59800000D01*
X122200000Y-57250000D02*
X122950000Y-57250000D01*
X122960000Y-47940000D02*
X116990000Y-47940000D01*
X122200000Y-58750000D02*
X122200000Y-60550000D01*
X116990000Y-60560000D02*
X122960000Y-60560000D01*
X122950000Y-57250000D02*
X122950000Y-51250000D01*
X122960000Y-60560000D02*
X122960000Y-47940000D01*
X122950000Y-49750000D02*
X122950000Y-47950000D01*
X122200000Y-49750000D02*
X122950000Y-49750000D01*
X122950000Y-51250000D02*
X122200000Y-51250000D01*
X122200000Y-60550000D02*
X122950000Y-60550000D01*
X117750000Y-59800000D02*
X117750000Y-54250000D01*
X123250000Y-48900000D02*
X123250000Y-47650000D01*
X116990000Y-47940000D02*
X116990000Y-60560000D01*
X122950000Y-47950000D02*
X122200000Y-47950000D01*
X117750000Y-48700000D02*
X117750000Y-54250000D01*
X122200000Y-51250000D02*
X122200000Y-57250000D01*
X120700000Y-60550000D02*
X120700000Y-59800000D01*
X122200000Y-47950000D02*
X122200000Y-49750000D01*
%TO.C,Q2*%
X81650000Y-64400000D02*
X80350000Y-64400000D01*
X80000000Y-62600000D02*
X81650000Y-62600000D01*
%TO.C,R3*%
X75687742Y-65022500D02*
X76162258Y-65022500D01*
X75687742Y-63977500D02*
X76162258Y-63977500D01*
%TO.C,USB_MICRO1*%
X59210000Y-58460000D02*
X59210000Y-56400000D01*
X53390000Y-58460000D02*
X55000000Y-58460000D01*
X57500000Y-58460000D02*
X59210000Y-58460000D01*
X57500000Y-50740000D02*
X59210000Y-50740000D01*
X53390000Y-50740000D02*
X53390000Y-58460000D01*
X59210000Y-52800000D02*
X59800000Y-52800000D01*
X53390000Y-50740000D02*
X55000000Y-50740000D01*
X59210000Y-50740000D02*
X59210000Y-52800000D01*
%TO.C,U8*%
X113010000Y-59630000D02*
X113010000Y-61580000D01*
X107890000Y-59630000D02*
X107890000Y-61580000D01*
X113010000Y-59630000D02*
X113010000Y-56180000D01*
X107890000Y-59630000D02*
X107890000Y-57680000D01*
%TO.C,Q1*%
X78750000Y-50850000D02*
X80400000Y-50850000D01*
X80400000Y-52650000D02*
X79100000Y-52650000D01*
%TD*%
M02*
