%TF.GenerationSoftware,KiCad,Pcbnew,6.0.5-a6ca702e91~116~ubuntu20.04.1*%
%TF.CreationDate,2022-07-22T15:22:32-05:00*%
%TF.ProjectId,FormulaMixer_PCB-rounded,466f726d-756c-4614-9d69-7865725f5043,rev?*%
%TF.SameCoordinates,Original*%
%TF.FileFunction,Soldermask,Bot*%
%TF.FilePolarity,Negative*%
%FSLAX46Y46*%
G04 Gerber Fmt 4.6, Leading zero omitted, Abs format (unit mm)*
G04 Created by KiCad (PCBNEW 6.0.5-a6ca702e91~116~ubuntu20.04.1) date 2022-07-22 15:22:32*
%MOMM*%
%LPD*%
G01*
G04 APERTURE LIST*
G04 Aperture macros list*
%AMRoundRect*
0 Rectangle with rounded corners*
0 $1 Rounding radius*
0 $2 $3 $4 $5 $6 $7 $8 $9 X,Y pos of 4 corners*
0 Add a 4 corners polygon primitive as box body*
4,1,4,$2,$3,$4,$5,$6,$7,$8,$9,$2,$3,0*
0 Add four circle primitives for the rounded corners*
1,1,$1+$1,$2,$3*
1,1,$1+$1,$4,$5*
1,1,$1+$1,$6,$7*
1,1,$1+$1,$8,$9*
0 Add four rect primitives between the rounded corners*
20,1,$1+$1,$2,$3,$4,$5,0*
20,1,$1+$1,$4,$5,$6,$7,0*
20,1,$1+$1,$6,$7,$8,$9,0*
20,1,$1+$1,$8,$9,$2,$3,0*%
G04 Aperture macros list end*
%ADD10C,3.200000*%
%ADD11RoundRect,0.250000X-0.725000X0.600000X-0.725000X-0.600000X0.725000X-0.600000X0.725000X0.600000X0*%
%ADD12O,1.950000X1.700000*%
%ADD13RoundRect,0.250000X0.750000X-0.600000X0.750000X0.600000X-0.750000X0.600000X-0.750000X-0.600000X0*%
%ADD14O,2.000000X1.700000*%
%ADD15R,1.700000X1.700000*%
%ADD16O,1.700000X1.700000*%
%ADD17R,2.750000X1.000000*%
%ADD18RoundRect,1.300000X0.000000X0.300000X0.000000X0.300000X0.000000X-0.300000X0.000000X-0.300000X0*%
%ADD19C,2.000000*%
G04 APERTURE END LIST*
D10*
%TO.C,REF\u002A\u002A*%
X58750000Y-46000000D03*
%TD*%
%TO.C,REF\u002A\u002A*%
X121500000Y-46000000D03*
%TD*%
%TO.C,REF\u002A\u002A*%
X121500000Y-115000000D03*
%TD*%
%TO.C,REF\u002A\u002A*%
X58500000Y-115000000D03*
%TD*%
D11*
%TO.C,J4*%
X120500000Y-101500000D03*
D12*
X120500000Y-104000000D03*
X120500000Y-106500000D03*
X120500000Y-109000000D03*
%TD*%
D13*
%TO.C,J5*%
X55975000Y-99750000D03*
D14*
X55975000Y-97250000D03*
%TD*%
D15*
%TO.C,U7*%
X68610000Y-45000000D03*
D16*
X71150000Y-45000000D03*
X73690000Y-45000000D03*
X76230000Y-45000000D03*
X78770000Y-45000000D03*
X81310000Y-45000000D03*
X83850000Y-45000000D03*
X86390000Y-45000000D03*
X88930000Y-45000000D03*
X91470000Y-45000000D03*
X99090000Y-45000000D03*
X101630000Y-45000000D03*
X104170000Y-45000000D03*
X106710000Y-45000000D03*
X109250000Y-45000000D03*
X111790000Y-45000000D03*
%TD*%
D11*
%TO.C,J2*%
X120500000Y-67500000D03*
D12*
X120500000Y-70000000D03*
X120500000Y-72500000D03*
X120500000Y-75000000D03*
%TD*%
D11*
%TO.C,J3*%
X120500000Y-84500000D03*
D12*
X120500000Y-87000000D03*
X120500000Y-89500000D03*
X120500000Y-92000000D03*
%TD*%
D11*
%TO.C,J1*%
X120500000Y-50500000D03*
D12*
X120500000Y-53000000D03*
X120500000Y-55500000D03*
X120500000Y-58000000D03*
%TD*%
D17*
%TO.C,SW2*%
X60870000Y-109250000D03*
X66630000Y-109250000D03*
X66630000Y-105250000D03*
X60870000Y-105250000D03*
%TD*%
D18*
%TO.C,SW1*%
X91850000Y-107250000D03*
X80650000Y-107250000D03*
D19*
X88750000Y-114750000D03*
X83750000Y-114750000D03*
X86250000Y-114750000D03*
X88750000Y-100250000D03*
X83750000Y-100250000D03*
%TD*%
M02*
